SplineFontDB: 3.2
FontName: Umpush-LightOblique
FullName: Umpush Light Oblique
FamilyName: Umpush
Weight: Light
Copyright: Copyright (c) 2003 NECTEC. All rights reserved.\nCopyright (c) 2007 Widhaya Trisarnwadhana. All rights reserved.\nModified under GNU General Public License by TLWG.
Version: 001.002
ItalicAngle: -10
UnderlinePosition: -85
UnderlineWidth: 10
Ascent: 1638
Descent: 410
InvalidEm: 0
LayerCount: 3
Layer: 0 0 "Back" 1
Layer: 1 0 "Fore" 0
Layer: 2 1 "Quad" 0
FSType: 0
OS2Version: 4
OS2_WeightWidthSlopeOnly: 0
OS2_UseTypoMetrics: 1
CreationTime: 1176605901
ModificationTime: 1587986234
PfmFamily: 33
TTFWeight: 300
TTFWidth: 5
LineGap: 0
VLineGap: 0
Panose: 2 11 3 4 2 2 2 2 2 4
OS2TypoAscent: 2741
OS2TypoAOffset: 0
OS2TypoDescent: -1312
OS2TypoDOffset: 0
OS2TypoLinegap: 0
OS2WinAscent: 0
OS2WinAOffset: 1
OS2WinDescent: 0
OS2WinDOffset: 1
HheadAscent: 0
HheadAOffset: 1
HheadDescent: 0
HheadDOffset: 1
OS2Vendor: 'PfEd'
Lookup: 4 0 1 "'liga' Standard Ligatures lookup 0" { "'liga' Standard Ligatures lookup 0"  } ['liga' ('latn' <'dflt' > ) ]
Lookup: 6 0 0 "'ccmp' Thai Tone Tilde Reordering" { "'ccmp' Thai Tone Tilde Reordering"  } ['ccmp' ('DFLT' <'dflt' > 'latn' <'dflt' > 'thai' <'KUY ' 'MLY ' 'PAL ' 'SAN ' 'THA ' 'dflt' > ) ]
Lookup: 6 0 0 "'ccmp' Thai Tone Macron Reordering" { "'ccmp' Thai Tone Macron Reordering"  } ['ccmp' ('DFLT' <'dflt' > 'latn' <'dflt' > 'thai' <'KUY ' 'MLY ' 'PAL ' 'SAN ' 'THA ' 'dflt' > ) ]
Lookup: 6 0 0 "'ccmp' Thai Below Vowel Macron Reordering" { "'ccmp' Thai Below Vowel Macron Reordering"  } ['ccmp' ('DFLT' <'dflt' > 'latn' <'dflt' > 'thai' <'KUY ' 'MLY ' 'PAL ' 'SAN ' 'THA ' 'dflt' > ) ]
Lookup: 4 0 0 "'ccmp' Patani Malay Ligatures" { "'ccmp' Patani Malay Ligatures"  } ['ccmp' ('DFLT' <'dflt' > 'thai' <'KUY ' 'MLY ' 'PAL ' 'SAN ' 'THA ' 'dflt' > ) ]
Lookup: 6 0 0 "'ccmp' Thai Conditional Descender Removal" { "'ccmp' Thai Conditional Descender Removal"  } ['ccmp' ('DFLT' <'dflt' > 'thai' <'KUY ' 'MLY ' 'THA ' 'dflt' > ) ]

StartChar: .notdef
Encoding: 65536 -1 0
Width: 1533
VWidth: 2045
Flags: W
HStem: 0 32<293 1253> 1248 32<507 1467>
DStem2: 256 0 287.358 0 0.173648 0.984808<37.9388 1272.63> 1247.36 0 1278 0 0.173648 0.984808<32.4937 1267.18>
LayerCount: 3
Fore
SplineSet
256 0 m 1
 482 1280 l 1
 1504 1280 l 1
 1278 0 l 1
 256 0 l 1
293 32 m 1
 1253 32 l 1
 1467 1248 l 1
 507 1248 l 1
 293 32 l 1
EndSplineSet
Validated: 1
Layer: 2
SplineSet
256 0 m 1,0,-1
 482 1280 l 1,1,-1
 1504 1280 l 1,2,-1
 1278 0 l 1,3,-1
 256 0 l 1,0,-1
293 32 m 1,4,-1
 1253 32 l 1,5,-1
 1467 1248 l 1,6,-1
 507 1248 l 1,7,-1
 293 32 l 1,4,-1
EndSplineSet
EndChar

StartChar: uni0E4D.high
Encoding: 63262 63262 2
Width: 0
VWidth: 2558
Flags: W
HStem: 2026 72<83.4149 215.128> 2254 74<97.3427 231.646>
VStem: 5 71<2105.61 2231.63> 238 71<2122.54 2246.11>
AnchorPoint: "AboveMark" 217 2512 basemark 0
AnchorPoint: "AboveMark" 134 2040 mark 0
LayerCount: 3
Fore
SplineSet
5 2147 m 0
 5 2242 93 2328 184 2328 c 0
 256 2328 309 2277 309 2203 c 0
 309 2107 219 2026 131 2026 c 0
 60 2026 5 2075 5 2147 c 0
171 2254 m 0
 110 2254 76 2201 76 2161 c 0
 76 2127 102 2098 144 2098 c 0
 182 2098 238 2135 238 2190 c 0
 238 2230 209 2254 171 2254 c 0
EndSplineSet
Validated: 1
Layer: 2
SplineSet
5 2147 m 0,0,1
 5 2218 5 2218 60 2273 c 128,-1,2
 115 2328 115 2328 184 2328 c 0,3,4
 238 2328 238 2328 273.5 2293 c 128,-1,5
 309 2258 309 2258 309 2203 c 0,6,7
 309 2132 309 2132 253.5 2079 c 128,-1,8
 198 2026 198 2026 131 2026 c 0,9,10
 77 2026 77 2026 41 2060 c 128,-1,11
 5 2094 5 2094 5 2147 c 0,0,1
171 2254 m 0,12,13
 128 2254 128 2254 102 2224.5 c 128,-1,14
 76 2195 76 2195 76 2161 c 0,15,16
 76 2135 76 2135 94.5 2116.5 c 128,-1,17
 113 2098 113 2098 144 2098 c 0,18,19
 176 2098 176 2098 207 2125 c 128,-1,20
 238 2152 238 2152 238 2190 c 0,21,22
 238 2219 238 2219 219 2236.5 c 128,-1,23
 200 2254 200 2254 171 2254 c 0,12,13
EndSplineSet
EndChar

StartChar: exclam
Encoding: 33 33 5
Width: 681
VWidth: 2045
Flags: W
HStem: 0 193<242 368> 1430 20G<467.46 617>
VStem: 315 75<366 427.635>
DStem2: 208 0 368 0 0.173648 0.984808<27.7837 195.972 734.399 1473.64>
LayerCount: 3
Fore
SplineSet
391 998 m 1
 471 1450 l 1
 617 1450 l 1
 537 998 l 1
 390 366 l 1
 315 366 l 1
 391 998 l 1
242 193 m 1
 402 193 l 1
 368 0 l 1
 208 0 l 1
 242 193 l 1
EndSplineSet
Validated: 1
Layer: 2
SplineSet
391 998 m 1,0,-1
 471 1450 l 1,1,-1
 617 1450 l 1,2,-1
 537 998 l 1,3,-1
 390 366 l 1,4,-1
 315 366 l 1,5,-1
 391 998 l 1,0,-1
242 193 m 1,6,-1
 402 193 l 1,7,-1
 368 0 l 1,8,-1
 208 0 l 1,9,-1
 242 193 l 1,6,-1
EndSplineSet
EndChar

StartChar: quotedbl
Encoding: 34 34 6
Width: 568
VWidth: 2045
Flags: W
HStem: 946 504<347 370 610 632>
VStem: 284 460
LayerCount: 3
Fore
SplineSet
284 946 m 1
 306 1217 l 1
 347 1450 l 1
 481 1450 l 1
 440 1217 l 1
 370 946 l 1
 284 946 l 1
547 946 m 1
 569 1217 l 1
 610 1450 l 1
 744 1450 l 1
 703 1217 l 1
 632 946 l 1
 547 946 l 1
EndSplineSet
Validated: 1
Layer: 2
SplineSet
284 946 m 1,0,-1
 306 1217 l 1,1,-1
 347 1450 l 1,2,-1
 481 1450 l 1,3,-1
 440 1217 l 1,4,-1
 370 946 l 1,5,-1
 284 946 l 1,0,-1
547 946 m 1,6,-1
 569 1217 l 1,7,-1
 610 1450 l 1,8,-1
 744 1450 l 1,9,-1
 703 1217 l 1,10,-1
 632 946 l 1,11,-1
 547 946 l 1,6,-1
EndSplineSet
EndChar

StartChar: numbersign
Encoding: 35 35 7
Width: 1137
VWidth: 2045
Flags: W
HStem: -9 21G<85 219.677 597 731.677> 387 124<111 237 412 749 924 1181> 951 124<211 455 630 967 1142 1281> 1450 20G<646.354 781 1158.35 1293>
DStem2: 85 -9 212 -9 0.359064 0.933313<45.6011 424.17 602.737 1028.83 1207.4 1584.68> 597 -9 724 -9 0.359064 0.933313<45.6011 424.17 602.737 1028.83 1207.4 1584.68>
LayerCount: 3
Fore
SplineSet
212 -9 m 1
 85 -9 l 1
 237 387 l 1
 89 387 l 1
 111 511 l 1
 285 511 l 1
 455 951 l 1
 189 951 l 1
 211 1075 l 1
 503 1075 l 1
 654 1470 l 1
 781 1470 l 1
 630 1075 l 1
 1015 1075 l 1
 1166 1470 l 1
 1293 1470 l 1
 1142 1075 l 1
 1303 1075 l 1
 1281 951 l 1
 1094 951 l 1
 924 511 l 1
 1203 511 l 1
 1181 387 l 1
 876 387 l 1
 724 -9 l 1
 597 -9 l 1
 749 387 l 1
 364 387 l 1
 212 -9 l 1
967 951 m 1
 582 951 l 1
 412 511 l 1
 797 511 l 1
 967 951 l 1
EndSplineSet
Validated: 1
Layer: 2
SplineSet
212 -9 m 1,0,-1
 85 -9 l 1,1,-1
 237 387 l 1,2,-1
 89 387 l 1,3,-1
 111 511 l 1,4,-1
 285 511 l 1,5,-1
 455 951 l 1,6,-1
 189 951 l 1,7,-1
 211 1075 l 1,8,-1
 503 1075 l 1,9,-1
 654 1470 l 1,10,-1
 781 1470 l 1,11,-1
 630 1075 l 1,12,-1
 1015 1075 l 1,13,-1
 1166 1470 l 1,14,-1
 1293 1470 l 1,15,-1
 1142 1075 l 1,16,-1
 1303 1075 l 1,17,-1
 1281 951 l 1,18,-1
 1094 951 l 1,19,-1
 924 511 l 1,20,-1
 1203 511 l 1,21,-1
 1181 387 l 1,22,-1
 876 387 l 1,23,-1
 724 -9 l 1,24,-1
 597 -9 l 1,25,-1
 749 387 l 1,26,-1
 364 387 l 1,27,-1
 212 -9 l 1,0,-1
967 951 m 1,28,-1
 582 951 l 1,29,-1
 412 511 l 1,30,-1
 797 511 l 1,31,-1
 967 951 l 1,28,-1
EndSplineSet
EndChar

StartChar: dollar
Encoding: 36 36 8
Width: 1137
VWidth: 2045
Flags: W
HStem: -16 138<396.645 481 651 789.378> 634 142<767 856.394> 1268 138<573.274 708 878 977.334>
VStem: 141 150<223.202 417> 283 153<903.207 1145.42> 967 149<282.18 542.285> 1049 147<1050 1198.4>
DStem2: 463 -118 609 -118 0.173648 0.984808<25.3526 103.576 267.03 789.023 947.478 1407.49 1571.93 1630.74>
LayerCount: 3
Fore
SplineSet
609 -118 m 1xe4
 463 -118 l 1
 481 -16 l 1
 289 5 141 112 141 324 c 3
 141 353 144 384 150 417 c 1
 296 417 l 1
 293 398 291 380 291 363 c 3xf4
 291 232 382 146 506 122 c 1
 602 671 l 1
 436 719 283 789 283 966 c 3
 283 1232 517 1380 732 1406 c 1
 746 1488 l 1
 892 1488 l 1
 878 1405 l 1
 1052 1382 1196 1279 1196 1108 c 3
 1196 1089 1195 1070 1191 1050 c 1
 1045 1050 l 1
 1047 1064 1049 1077 1049 1090 c 3xea
 1049 1199 960 1253 854 1269 c 1
 767 776 l 1
 921 735 1116 666 1116 462 c 3
 1116 159 856 7 627 -16 c 1
 609 -118 l 1xe4
651 120 m 1
 800 142 967 241 967 433 c 3
 967 554 862 600 742 634 c 1
 651 120 l 1
708 1268 m 1
 572 1246 436 1168 436 1017 c 3xe8
 436 909 521 852 628 815 c 1
 708 1268 l 1
EndSplineSet
Validated: 1
Layer: 2
SplineSet
609 -118 m 1,0,-1
 463 -118 l 1,1,-1
 481 -16 l 1,2,3
 328 1 328 1 234.5 86.5 c 128,-1,4
 141 172 141 172 141 324 c 0,5,6
 141 367.5 141 367.5 150 417 c 1,7,-1
 296 417 l 1,8,9
 291 385 291 385 291 363 c 0,10,11
 291 268 291 268 350.5 204.5 c 128,-1,12
 410 141 410 141 506 122 c 1,13,-1
 602 671 l 1,14,15
 547 687 547 687 504.5 703 c 128,-1,16
 462 719 462 719 418.5 744.5 c 128,-1,17
 375 770 375 770 347 799.5 c 128,-1,18
 319 829 319 829 301 872 c 128,-1,19
 283 915 283 915 283 966 c 0,20,21
 283 1062 283 1062 322.5 1142.5 c 128,-1,22
 362 1223 362 1223 427.5 1276.5 c 128,-1,23
 493 1330 493 1330 571 1363 c 128,-1,24
 649 1396 649 1396 732 1406 c 1,25,-1
 746 1488 l 1,26,-1
 892 1488 l 1,27,-1
 878 1405 l 1,28,29
 1016 1387 1016 1387 1106 1309 c 128,-1,30
 1196 1231 1196 1231 1196 1108 c 0,31,32
 1196 1075 1196 1075 1191 1050 c 1,33,-1
 1045 1050 l 1,34,35
 1049 1078 1049 1078 1049 1090 c 0,36,37
 1049 1167 1049 1167 995 1211.5 c 128,-1,38
 941 1256 941 1256 854 1269 c 1,39,-1
 767 776 l 1,40,41
 822 761 822 761 863.5 747 c 128,-1,42
 905 733 905 733 955.5 706.5 c 128,-1,43
 1006 680 1006 680 1038.5 649 c 128,-1,44
 1071 618 1071 618 1093.5 569.5 c 128,-1,45
 1116 521 1116 521 1116 462 c 0,46,47
 1116 374 1116 374 1087 298.5 c 128,-1,48
 1058 223 1058 223 1010 169 c 128,-1,49
 962 115 962 115 898 75 c 128,-1,50
 834 35 834 35 766 13 c 128,-1,51
 698 -9 698 -9 627 -16 c 1,52,-1
 609 -118 l 1,0,-1
651 120 m 1,53,54
 710 129 710 129 764 152 c 128,-1,55
 818 175 818 175 864.5 212 c 128,-1,56
 911 249 911 249 939 306.5 c 128,-1,57
 967 364 967 364 967 433 c 0,58,59
 967 477 967 477 949.5 510.5 c 128,-1,60
 932 544 932 544 898 567 c 128,-1,61
 864 590 864 590 828.5 605 c 128,-1,62
 793 620 793 620 742 634 c 1,63,-1
 651 120 l 1,53,54
708 1268 m 1,64,65
 594 1250 594 1250 515 1186 c 128,-1,66
 436 1122 436 1122 436 1017 c 0,67,68
 436 881 436 881 628 815 c 1,69,-1
 708 1268 l 1,64,65
EndSplineSet
EndChar

StartChar: percent
Encoding: 37 37 9
Width: 1818
VWidth: 2045
Flags: W
HStem: -48 136<1308.58 1492.03> -9 21G<476 635.662> 588 136<1383.97 1567.42> 718 136<496.577 680.026> 1354 136<571.974 755.423>
VStem: 306 148<897.063 1215.17> 798 148<992.83 1310.94> 1118 148<131.064 449.17> 1610 148<226.83 544.937>
DStem2: 476 -9 622 -9 0.564072 0.825726<82.3545 1815.37>
LayerCount: 3
Fore
SplineSet
1758 422 m 3xaf80
 1758 159 1559 -48 1370 -48 c 259
 1221 -48 1118 79 1118 254 c 3
 1118 517 1317 724 1506 724 c 259
 1655 724 1758 597 1758 422 c 3xaf80
1482 588 m 259
 1397 588 1266 465 1266 268 c 3
 1266 145 1333 88 1394 88 c 259
 1479 88 1610 211 1610 408 c 3
 1610 531 1543 588 1482 588 c 259
946 1188 m 3
 946 925 747 718 558 718 c 259x1f80
 409 718 306 845 306 1020 c 3
 306 1283 505 1490 694 1490 c 259
 843 1490 946 1363 946 1188 c 3
670 1354 m 259
 585 1354 454 1231 454 1034 c 3
 454 911 521 854 582 854 c 259
 667 854 798 977 798 1174 c 3
 798 1297 731 1354 670 1354 c 259
1500 1490 m 1
 1646 1490 l 1
 622 -9 l 1
 476 -9 l 1x4f80
 1500 1490 l 1
EndSplineSet
Validated: 1
Layer: 2
SplineSet
1758 422 m 3,0,1
 1758 326 1758 326 1724 238 c 128,-1,2
 1690 150 1690 150 1635 88 c 128,-1,3
 1580 26 1580 26 1510 -11 c 128,-1,4
 1440 -48 1440 -48 1370 -48 c 0,5,6
 1259 -48 1259 -48 1188.5 37 c 128,-1,7
 1118 122 1118 122 1118 254 c 0,8,9
 1118 350 1118 350 1152 438 c 128,-1,10
 1186 526 1186 526 1241 588 c 128,-1,11
 1296 650 1296 650 1366 687 c 128,-1,12
 1436 724 1436 724 1506 724 c 0,13,14
 1617 724 1617 724 1687.5 639 c 128,-1,15
 1758 554 1758 554 1758 422 c 3,0,1
1482 588 m 259,16,17
 1410 588 1410 588 1338 496.5 c 128,-1,18
 1266 405 1266 405 1266 268 c 0,19,20
 1266 182 1266 182 1304.5 135 c 128,-1,21
 1343 88 1343 88 1394 88 c 0,22,23
 1466 88 1466 88 1538 179.5 c 128,-1,24
 1610 271 1610 271 1610 408 c 0,25,26
 1610 494 1610 494 1571.5 541 c 128,-1,27
 1533 588 1533 588 1482 588 c 259,16,17
946 1188 m 3,28,29
 946 1092 946 1092 912 1004 c 128,-1,30
 878 916 878 916 823 854 c 128,-1,31
 768 792 768 792 698 755 c 128,-1,32
 628 718 628 718 558 718 c 0,33,34
 447 718 447 718 376.5 803 c 128,-1,35
 306 888 306 888 306 1020 c 0,36,37
 306 1116 306 1116 340 1204 c 128,-1,38
 374 1292 374 1292 429 1354 c 128,-1,39
 484 1416 484 1416 554 1453 c 128,-1,40
 624 1490 624 1490 694 1490 c 0,41,42
 805 1490 805 1490 875.5 1405 c 128,-1,43
 946 1320 946 1320 946 1188 c 3,28,29
670 1354 m 259,44,45
 598 1354 598 1354 526 1262.5 c 128,-1,46
 454 1171 454 1171 454 1034 c 0,47,48
 454 948 454 948 492.5 901 c 128,-1,49
 531 854 531 854 582 854 c 0,50,51
 654 854 654 854 726 945.5 c 128,-1,52
 798 1037 798 1037 798 1174 c 0,53,54
 798 1260 798 1260 759.5 1307 c 128,-1,55
 721 1354 721 1354 670 1354 c 259,44,45
1500 1490 m 1,56,-1
 1646 1490 l 1,57,-1
 622 -9 l 1,58,-1
 476 -9 l 1,59,-1
 1500 1490 l 1,56,-1
EndSplineSet
EndChar

StartChar: ampersand
Encoding: 38 38 10
Width: 1364
VWidth: 2045
Flags: W
HStem: -12 136<415.907 761.175> 1344 136<716.446 994.457>
VStem: 152 153<235.102 530.99> 462 151<1019.73 1251.06> 1046 148<1090.42 1289.42>
DStem2: 729 907 571 844 0.539995 -0.841668<-256.526 -32.2941 128.287 593.093>
LayerCount: 3
Fore
SplineSet
1210 -17 m 1
 1125 35 1058 99 1010 173 c 1
 879 50 726 -12 550 -12 c 3
 233 -12 152 215 152 345 c 3
 152 562 317 759 571 844 c 1
 482 973 462 1053 462 1108 c 3
 462 1305 662 1480 898 1480 c 3
 1083 1480 1194 1359 1194 1217 c 3
 1194 1042 1044 909 792 795 c 1
 1048 407 l 1
 1119 506 1168 606 1204 719 c 1
 1348 675 l 1
 1299 542 1227 416 1128 290 c 1
 1176 217 1251 146 1345 77 c 1
 1210 -17 l 1
864 1344 m 3
 733 1344 613 1250 613 1140 c 3
 613 1084 647 1030 729 907 c 1
 911 989 1046 1088 1046 1194 c 3
 1046 1260 986 1344 864 1344 c 3
305 386 m 3
 305 281 364 124 577 124 c 3
 706 124 855 203 929 286 c 1
 652 730 l 1
 354 639 305 470 305 386 c 3
EndSplineSet
Validated: 1
Layer: 2
SplineSet
1210 -17 m 1,0,1
 1083 61 1083 61 1010 173 c 1,2,3
 813 -12 813 -12 550 -12 c 0,4,5
 459 -12 459 -12 387 13 c 128,-1,6
 315 38 315 38 272.5 76 c 128,-1,7
 230 114 230 114 201.5 163.5 c 128,-1,8
 173 213 173 213 162.5 257.5 c 128,-1,9
 152 302 152 302 152 345 c 0,10,11
 152 508 152 508 266.5 644 c 128,-1,12
 381 780 381 780 571 844 c 1,13,14
 462 1002 462 1002 462 1108 c 0,15,16
 462 1256 462 1256 592 1368 c 128,-1,17
 722 1480 722 1480 898 1480 c 0,18,19
 1032 1480 1032 1480 1113 1404 c 128,-1,20
 1194 1328 1194 1328 1194 1217 c 0,21,22
 1194 1090 1194 1090 1091.5 987 c 128,-1,23
 989 884 989 884 792 795 c 1,24,-1
 1048 407 l 1,25,26
 1150 549 1150 549 1204 719 c 1,27,-1
 1348 675 l 1,28,29
 1275 477 1275 477 1128 290 c 1,30,31
 1196 186 1196 186 1345 77 c 1,32,-1
 1210 -17 l 1,0,1
864 1344 m 3,33,34
 765 1344 765 1344 689 1283 c 128,-1,35
 613 1222 613 1222 613 1140 c 0,36,37
 613 1101 613 1101 637 1055 c 128,-1,38
 661 1009 661 1009 729 907 c 1,39,40
 1046 1050 1046 1050 1046 1194 c 0,41,42
 1046 1250 1046 1250 997.5 1297 c 128,-1,43
 949 1344 949 1344 864 1344 c 3,33,34
305 386 m 3,44,45
 305 352 305 352 312.5 318 c 128,-1,46
 320 284 320 284 339.5 248.5 c 128,-1,47
 359 213 359 213 389 186 c 128,-1,48
 419 159 419 159 467.5 141.5 c 128,-1,49
 516 124 516 124 577 124 c 0,50,51
 670 124 670 124 770.5 172.5 c 128,-1,52
 871 221 871 221 929 286 c 1,53,-1
 652 730 l 1,54,55
 567 704 567 704 502 667 c 128,-1,56
 437 630 437 630 400.5 594 c 128,-1,57
 364 558 364 558 341.5 517 c 128,-1,58
 319 476 319 476 312 445.5 c 128,-1,59
 305 415 305 415 305 386 c 3,44,45
EndSplineSet
EndChar

StartChar: quotesingle
Encoding: 39 39 11
Width: 454
VWidth: 2045
Flags: W
HStem: 946 519<394 429>
VStem: 333 221
LayerCount: 3
Fore
SplineSet
333 946 m 1
 351 1220 l 1
 394 1465 l 1
 554 1465 l 1
 511 1220 l 1
 429 946 l 1
 333 946 l 1
EndSplineSet
Validated: 1
Layer: 2
SplineSet
333 946 m 1,0,-1
 351 1220 l 1,1,-1
 394 1465 l 1,2,-1
 554 1465 l 1,3,-1
 511 1220 l 1,4,-1
 429 946 l 1,5,-1
 333 946 l 1,0,-1
EndSplineSet
EndChar

StartChar: parenleft
Encoding: 40 40 12
Width: 681
VWidth: 2045
Flags: W
HStem: -430 21G<322.5 479>
VStem: 197 141<-52.3037 603.886>
LayerCount: 3
Fore
SplineSet
818 1489 m 1
 617 1249 338 788 338 230 c 3
 338 30 375 -189 479 -430 c 1
 403 -430 l 1
 242 -169 197 82 197 285 c 3
 197 784 470 1226 742 1489 c 1
 818 1489 l 1
EndSplineSet
Validated: 1
Layer: 2
SplineSet
818 1489 m 1,0,1
 752 1410 752 1410 690.5 1319.5 c 128,-1,2
 629 1229 629 1229 563 1103 c 128,-1,3
 497 977 497 977 448.5 845.5 c 128,-1,4
 400 714 400 714 369 552 c 128,-1,5
 338 390 338 390 338 230 c 0,6,7
 338 -103 338 -103 479 -430 c 1,8,-1
 403 -430 l 1,9,10
 197 -96 197 -96 197 285 c 0,11,12
 197 465 197 465 243 644.5 c 128,-1,13
 289 824 289 824 368.5 977.5 c 128,-1,14
 448 1131 448 1131 541.5 1258 c 128,-1,15
 635 1385 635 1385 742 1489 c 1,16,-1
 818 1489 l 1,0,1
EndSplineSet
EndChar

StartChar: parenright
Encoding: 41 41 13
Width: 681
VWidth: 2045
Flags: W
HStem: -430 21G<50 349>
VStem: 531 142<449.781 1126.6>
LayerCount: 3
Fore
SplineSet
389 1489 m 1
 465 1489 l 1
 584 1314 673 1073 673 787 c 3
 673 462 572 31 126 -430 c 1
 50 -430 l 1
 408 27 531 452 531 839 c 3
 531 1121 460 1342 389 1489 c 1
EndSplineSet
Validated: 1
Layer: 2
SplineSet
389 1489 m 1,0,-1
 465 1489 l 1,1,2
 560 1349 560 1349 616.5 1170 c 128,-1,3
 673 991 673 991 673 787 c 0,4,5
 673 135 673 135 126 -430 c 1,6,-1
 50 -430 l 1,7,8
 531 184 531 184 531 839 c 0,9,10
 531 1195 531 1195 389 1489 c 1,0,-1
EndSplineSet
EndChar

StartChar: asterisk
Encoding: 42 42 14
Width: 795
VWidth: 2045
Flags: W
HStem: 1210 116<784.77 918.977>
VStem: 598 116<1302.11 1489>
LayerCount: 3
Fore
SplineSet
283 1208 m 1
 339 1325 l 1
 567 1223 l 1
 580 1334 589 1423 598 1489 c 1
 714 1489 l 1
 700 1426 679 1339 650 1228 c 1
 729 1263 819 1296 917 1326 c 1
 933 1210 l 1
 831 1181 741 1158 659 1143 c 1
 696 1109 743 1042 802 942 c 1
 692 873 l 1
 644 956 607 1031 582 1097 c 1
 528 1025 468 952 400 878 c 1
 322 941 l 1
 405 1032 472 1099 527 1142 c 1
 283 1208 l 1
EndSplineSet
Validated: 1
Layer: 2
SplineSet
283 1208 m 1,0,-1
 339 1325 l 1,1,-1
 567 1223 l 1,2,3
 572 1264 572 1264 578.5 1322 c 128,-1,4
 585 1380 585 1380 589.5 1420 c 128,-1,5
 594 1460 594 1460 598 1489 c 1,6,-1
 714 1489 l 1,7,8
 690 1382 690 1382 650 1228 c 1,9,10
 769 1281 769 1281 917 1326 c 1,11,-1
 933 1210 l 1,12,13
 767 1163 767 1163 659 1143 c 1,14,15
 712 1094 712 1094 802 942 c 1,16,-1
 692 873 l 1,17,18
 619 999 619 999 582 1097 c 1,19,20
 497 983 497 983 400 878 c 1,21,-1
 322 941 l 1,22,23
 451 1083 451 1083 527 1142 c 1,24,-1
 283 1208 l 1,0,-1
EndSplineSet
EndChar

StartChar: plus
Encoding: 43 43 15
Width: 1350
VWidth: 2045
Flags: W
HStem: 655 136<328 715 885 1272>
DStem2: 642 237 788 237 0.173648 0.984808<25.3526 424.326 587.78 982.814>
LayerCount: 3
Fore
SplineSet
642 237 m 1
 715 655 l 1
 304 655 l 1
 328 791 l 1
 739 791 l 1
 812 1205 l 1
 958 1205 l 1
 885 791 l 1
 1296 791 l 1
 1272 655 l 1
 861 655 l 1
 788 237 l 1
 642 237 l 1
EndSplineSet
Validated: 1
Layer: 2
SplineSet
642 237 m 1,0,-1
 715 655 l 1,1,-1
 304 655 l 1,2,-1
 328 791 l 1,3,-1
 739 791 l 1,4,-1
 812 1205 l 1,5,-1
 958 1205 l 1,6,-1
 885 791 l 1,7,-1
 1296 791 l 1,8,-1
 1272 655 l 1,9,-1
 861 655 l 1,10,-1
 788 237 l 1,11,-1
 642 237 l 1,0,-1
EndSplineSet
EndChar

StartChar: comma
Encoding: 44 44 16
Width: 568
VWidth: 2045
Flags: W
HStem: -290 495
VStem: 148 275
LayerCount: 3
Fore
SplineSet
204 0 m 1
 240 205 l 1
 423 205 l 1
 387 0 l 2
 370 -99 327 -228 169 -290 c 1
 148 -213 l 1
 224 -181 273 -125 299 0 c 1
 204 0 l 1
EndSplineSet
Validated: 1
Layer: 2
SplineSet
204 0 m 1,0,-1
 240 205 l 1,1,-1
 423 205 l 1,2,-1
 387 0 l 2,3,4
 380 -43 380 -43 367.5 -79.5 c 128,-1,5
 355 -116 355 -116 331.5 -157.5 c 128,-1,6
 308 -199 308 -199 266.5 -233.5 c 128,-1,7
 225 -268 225 -268 169 -290 c 1,8,-1
 148 -213 l 1,9,10
 208 -188 208 -188 244 -139 c 128,-1,11
 280 -90 280 -90 299 0 c 1,12,-1
 204 0 l 1,0,-1
EndSplineSet
EndChar

StartChar: hyphen
Encoding: 45 45 17
Width: 681
VWidth: 2045
Flags: W
HStem: 462 136<169 698>
VStem: 145 577
LayerCount: 3
Fore
SplineSet
145 462 m 1
 169 598 l 1
 722 598 l 1
 698 462 l 1
 145 462 l 1
EndSplineSet
Validated: 1
Layer: 2
SplineSet
145 462 m 1,0,-1
 169 598 l 1,1,-1
 722 598 l 1,2,-1
 698 462 l 1,3,-1
 145 462 l 1,0,-1
EndSplineSet
EndChar

StartChar: period
Encoding: 46 46 18
Width: 568
VWidth: 2045
Flags: W
HStem: 0 196<221 369>
VStem: 186 218
LayerCount: 3
Fore
SplineSet
186 0 m 1
 221 196 l 1
 404 196 l 1
 369 0 l 1
 186 0 l 1
EndSplineSet
Validated: 1
Layer: 2
SplineSet
186 0 m 1,0,-1
 221 196 l 1,1,-1
 404 196 l 1,2,-1
 369 0 l 1,3,-1
 186 0 l 1,0,-1
EndSplineSet
EndChar

StartChar: slash
Encoding: 47 47 19
Width: 568
VWidth: 2045
Flags: W
HStem: -9 21G<-83 58.4557> 1448 20G<753.517 893>
DStem2: -83 -9 47 -9 0.497908 0.86723<64.7281 1703.12>
LayerCount: 3
Fore
SplineSet
-83 -9 m 1
 765 1468 l 1
 893 1468 l 1
 47 -9 l 1
 -83 -9 l 1
EndSplineSet
Validated: 1
Layer: 2
SplineSet
-83 -9 m 1,0,-1
 765 1468 l 1,1,-1
 893 1468 l 1,2,-1
 47 -9 l 1,3,-1
 -83 -9 l 1,0,-1
EndSplineSet
EndChar

StartChar: zero
Encoding: 48 48 20
Width: 1137
VWidth: 2045
Flags: W
HStem: -12 136<443.613 725.293> 1344 136<641.287 935.217>
VStem: 185 150<245.941 839.463> 1043 149<646.577 1223.69>
LayerCount: 3
Fore
SplineSet
1043 992 m 3
 1043 1179 989 1344 797 1344 c 3
 460 1344 335 798 335 479 c 3
 335 292 390 124 582 124 c 3
 901 124 1043 655 1043 992 c 3
558 -12 m 3
 268 -12 185 196 185 444 c 3
 185 894 353 1480 821 1480 c 3
 1111 1480 1192 1274 1192 1026 c 3
 1192 576 1026 -12 558 -12 c 3
EndSplineSet
Validated: 1
Layer: 2
SplineSet
1043 992 m 3,0,1
 1043 1344 1043 1344 797 1344 c 0,2,3
 700 1344 700 1344 620 1284.5 c 128,-1,4
 540 1225 540 1225 488.5 1132 c 128,-1,5
 437 1039 437 1039 401 921 c 128,-1,6
 365 803 365 803 350 691.5 c 128,-1,7
 335 580 335 580 335 479 c 0,8,9
 335 404 335 404 347 343.5 c 128,-1,10
 359 283 359 283 386 232 c 128,-1,11
 413 181 413 181 463 152.5 c 128,-1,12
 513 124 513 124 582 124 c 0,13,14
 674 124 674 124 752 182 c 128,-1,15
 830 240 830 240 882.5 332.5 c 128,-1,16
 935 425 935 425 972 541 c 128,-1,17
 1009 657 1009 657 1026 772 c 128,-1,18
 1043 887 1043 887 1043 992 c 3,0,1
558 -12 m 3,19,20
 185 -12 185 -12 185 444 c 0,21,22
 185 543 185 543 195.5 643 c 128,-1,23
 206 743 206 743 229.5 846 c 128,-1,24
 253 949 253 949 287.5 1041 c 128,-1,25
 322 1133 322 1133 374 1214 c 128,-1,26
 426 1295 426 1295 490 1353.5 c 128,-1,27
 554 1412 554 1412 639 1446 c 128,-1,28
 724 1480 724 1480 821 1480 c 0,29,30
 1192 1480 1192 1480 1192 1026 c 0,31,32
 1192 927 1192 927 1181.5 827 c 128,-1,33
 1171 727 1171 727 1148 623.5 c 128,-1,34
 1125 520 1125 520 1090.5 428 c 128,-1,35
 1056 336 1056 336 1004 255 c 128,-1,36
 952 174 952 174 888.5 115 c 128,-1,37
 825 56 825 56 740 22 c 128,-1,38
 655 -12 655 -12 558 -12 c 3,19,20
EndSplineSet
EndChar

StartChar: one
Encoding: 49 49 21
Width: 1137
VWidth: 2045
Flags: W
HStem: 0 21G<617 766.521> 1451 20G<803.5 1022>
VStem: 399 623
DStem2: 617 0 763 0 0.173648 0.984808<25.3526 1320.02>
LayerCount: 3
Fore
SplineSet
417 1103 m 1
 649 1211 785 1385 822 1471 c 1
 1022 1471 l 1
 763 0 l 1
 617 0 l 1
 846 1300 l 1
 700 1136 603 1060 399 997 c 1
 417 1103 l 1
EndSplineSet
Validated: 1
Layer: 2
SplineSet
417 1103 m 1,0,1
 573 1176 573 1176 680 1283 c 128,-1,2
 787 1390 787 1390 822 1471 c 1,3,-1
 1022 1471 l 1,4,-1
 763 0 l 1,5,-1
 617 0 l 1,6,-1
 846 1300 l 1,7,8
 732 1171 732 1171 639.5 1107 c 128,-1,9
 547 1043 547 1043 399 997 c 1,10,-1
 417 1103 l 1,0,1
EndSplineSet
EndChar

StartChar: two
Encoding: 50 50 22
Width: 1137
VWidth: 2045
Flags: W
HStem: 0 136<283 1031> 1344 136<616.892 966.388>
VStem: 279 146<1039 1155.03> 1074 150<952.821 1244.03>
DStem2: 254 326 424 292 0.811615 0.584193<-85.9257 971.08>
LayerCount: 3
Fore
SplineSet
833 1480 m 3
 1094 1480 1224 1341 1224 1154 c 3
 1224 986 1154 850 1056 766 c 0
 877 612 674 472 424 292 c 16
 337 229 291 180 283 136 c 1
 1055 136 l 1
 1031 0 l 1
 61 0 l 1
 84 131 145 243 254 326 c 0
 560 561 622 581 908 809 c 0
 1008 889 1074 996 1074 1114 c 3
 1074 1230 980 1344 804 1344 c 3
 593 1344 454 1205 425 1039 c 1
 279 1039 l 1
 325 1300 546 1480 833 1480 c 3
EndSplineSet
Validated: 1
Layer: 2
SplineSet
833 1480 m 3,0,1
 1022 1480 1022 1480 1123 1390 c 128,-1,2
 1224 1300 1224 1300 1224 1154 c 0,3,4
 1224 1033 1224 1033 1178.5 932.5 c 128,-1,5
 1133 832 1133 832 1056 766 c 0,6,7
 1004 722 1004 722 950 678.5 c 128,-1,8
 896 635 896 635 823.5 581 c 128,-1,9
 751 527 751 527 708 495.5 c 128,-1,10
 665 464 665 464 564 392 c 128,-1,11
 463 320 463 320 424 292 c 0,12,13
 294 198 294 198 283 136 c 1,14,-1
 1055 136 l 1,15,-1
 1031 0 l 1,16,-1
 61 0 l 1,17,18
 97 207 97 207 254 326 c 0,19,20
 394 433 394 433 575 560.5 c 128,-1,21
 756 688 756 688 908 809 c 0,22,23
 986 871 986 871 1030 949.5 c 128,-1,24
 1074 1028 1074 1028 1074 1114 c 0,25,26
 1074 1207 1074 1207 1001.5 1275.5 c 128,-1,27
 929 1344 929 1344 804 1344 c 0,28,29
 652 1344 652 1344 550 1256.5 c 128,-1,30
 448 1169 448 1169 425 1039 c 1,31,-1
 279 1039 l 1,32,33
 314 1236 314 1236 466.5 1358 c 128,-1,34
 619 1480 619 1480 833 1480 c 3,0,1
EndSplineSet
EndChar

StartChar: three
Encoding: 51 51 23
Width: 1137
VWidth: 2045
Flags: W
HStem: -9 136<423.602 758.223> 708 136<590 844.247> 1069 21G<292 450.5> 1344 136<612.545 954.67>
VStem: 155 148<249.161 426> 292 146<1069 1176.37> 981 149<325.747 616.55> 1027 145<996.105 1275.76>
LayerCount: 3
Fore
SplineSet
1172 1164 m 3xf5
 1172 982 1026 830 911 794 c 1
 958 784 1130 737 1130 528 c 3
 1130 192 826 -9 550 -9 c 3
 282 -9 155 175 155 362 c 3
 155 383 157 405 160 426 c 1
 306 426 l 1
 304 416 303 405 303 394 c 3
 303 292 375 127 574 127 c 3
 741 127 981 247 981 494 c 3xfa
 981 663 816 708 687 708 c 3
 645 708 603 706 563 693 c 1
 590 844 l 1
 914 844 1027 984 1027 1157 c 3
 1027 1293 913 1344 780 1344 c 3
 602 1344 463 1213 438 1069 c 9
 292 1069 l 1
 325 1256 520 1480 811 1480 c 3
 1002 1480 1172 1365 1172 1164 c 3xf5
EndSplineSet
Validated: 1
Layer: 2
SplineSet
1172 1164 m 3,0,1
 1172 1036 1172 1036 1089 930 c 128,-1,2
 1006 824 1006 824 911 794 c 1,3,4
 932 790 932 790 952.5 783 c 128,-1,5
 973 776 973 776 1007.5 756 c 128,-1,6
 1042 736 1042 736 1067 709 c 128,-1,7
 1092 682 1092 682 1111 634.5 c 128,-1,8
 1130 587 1130 587 1130 528 c 0,9,10
 1130 407 1130 407 1078.5 303.5 c 128,-1,11
 1027 200 1027 200 943.5 133 c 128,-1,12
 860 66 860 66 757.5 28.5 c 128,-1,13
 655 -9 655 -9 550 -9 c 0,14,15
 453 -9 453 -9 376 22.5 c 128,-1,16
 299 54 299 54 251.5 107 c 128,-1,17
 204 160 204 160 179.5 225 c 128,-1,18
 155 290 155 290 155 362 c 0,19,20
 155 391 155 391 160 426 c 1,21,-1
 306 426 l 1,22,23
 303 411 303 411 303 394 c 0,24,25
 303 353 303 353 318 309 c 128,-1,26
 333 265 333 265 363 223 c 128,-1,27
 393 181 393 181 448 154 c 128,-1,28
 503 127 503 127 574 127 c 0,29,30
 639 127 639 127 708.5 150.5 c 128,-1,31
 778 174 778 174 840 217.5 c 128,-1,32
 902 261 902 261 941.5 333.5 c 128,-1,33
 981 406 981 406 981 494 c 0,34,35
 981 554 981 554 954 598 c 128,-1,36
 927 642 927 642 881.5 665 c 128,-1,37
 836 688 836 688 788 698 c 128,-1,38
 740 708 740 708 687 708 c 0,39,40
 609 708 609 708 563 693 c 1,41,-1
 590 844 l 1,42,43
 819 844 819 844 923 930 c 128,-1,44
 1027 1016 1027 1016 1027 1157 c 0,45,46
 1027 1253 1027 1253 958 1298.5 c 128,-1,47
 889 1344 889 1344 780 1344 c 0,48,49
 651 1344 651 1344 554 1262.5 c 128,-1,50
 457 1181 457 1181 438 1069 c 1,51,-1
 292 1069 l 1,52,53
 305 1141 305 1141 347 1212.5 c 128,-1,54
 389 1284 389 1284 454 1344.5 c 128,-1,55
 519 1405 519 1405 612.5 1442.5 c 128,-1,56
 706 1480 706 1480 811 1480 c 0,57,58
 961 1480 961 1480 1066.5 1394.5 c 128,-1,59
 1172 1309 1172 1309 1172 1164 c 3,0,1
EndSplineSet
EndChar

StartChar: four
Encoding: 52 52 24
Width: 1137
VWidth: 2045
Flags: W
HStem: 0 21G<696 845.516> 347 136<244 757 927 1101> 1451 20G<915.269 1101>
DStem2: 113 492 244 483 0.641647 0.767<77.1528 1125.02> 696 0 842 0 0.173648 0.984808<25.3526 352.321 515.775 1301.77>
LayerCount: 3
Fore
SplineSet
696 0 m 1
 757 347 l 1
 87 347 l 1
 113 492 l 1
 932 1471 l 1
 1101 1471 l 1
 927 483 l 1
 1125 483 l 1
 1101 347 l 1
 903 347 l 1
 842 0 l 1
 696 0 l 1
781 483 m 1
 922 1282 l 1
 244 483 l 1
 781 483 l 1
EndSplineSet
Validated: 1
Layer: 2
SplineSet
696 0 m 1,0,-1
 757 347 l 1,1,-1
 87 347 l 1,2,-1
 113 492 l 1,3,-1
 932 1471 l 1,4,-1
 1101 1471 l 1,5,-1
 927 483 l 1,6,-1
 1125 483 l 1,7,-1
 1101 347 l 1,8,-1
 903 347 l 1,9,-1
 842 0 l 1,10,-1
 696 0 l 1,0,-1
781 483 m 1,11,-1
 922 1282 l 1,12,-1
 244 483 l 1,13,-1
 781 483 l 1,11,-1
EndSplineSet
EndChar

StartChar: five
Encoding: 53 53 25
Width: 1137
VWidth: 2045
Flags: W
HStem: -12 136<398.276 755.963> 847 136<538.111 885.382> 1314 136<609 1220>
VStem: 152 151<220.453 411> 1006 148<387.87 736.04>
DStem2: 240 704 447 877 0.34588 0.938279<28.3735 117.712 233.919 699.98>
LayerCount: 3
Fore
SplineSet
1006 587 m 3
 1006 753 887 847 701 847 c 3
 571 847 463 789 379 683 c 1
 240 704 l 1
 515 1450 l 1
 1244 1450 l 1
 1220 1314 l 1
 609 1314 l 1
 447 877 l 1
 479 912 575 983 774 983 c 3
 980 983 1154 854 1154 610 c 3
 1154 276 883 -12 543 -12 c 3
 249 -12 152 179 152 348 c 3
 152 370 154 391 157 411 c 1
 303 411 l 1
 303 403 303 395 303 387 c 3
 303 246 349 124 590 124 c 3
 791 124 1006 316 1006 587 c 3
EndSplineSet
Validated: 1
Layer: 2
SplineSet
1006 587 m 3,0,1
 1006 710 1006 710 924 778.5 c 128,-1,2
 842 847 842 847 701 847 c 0,3,4
 509 847 509 847 379 683 c 1,5,-1
 240 704 l 1,6,-1
 515 1450 l 1,7,-1
 1244 1450 l 1,8,-1
 1220 1314 l 1,9,-1
 609 1314 l 1,10,-1
 447 877 l 1,11,12
 482 916 482 916 562.5 949.5 c 128,-1,13
 643 983 643 983 774 983 c 0,14,15
 936 983 936 983 1045 884.5 c 128,-1,16
 1154 786 1154 786 1154 610 c 0,17,18
 1154 445 1154 445 1073 302 c 128,-1,19
 992 159 992 159 850.5 73.5 c 128,-1,20
 709 -12 709 -12 543 -12 c 0,21,22
 438 -12 438 -12 359 20 c 128,-1,23
 280 52 280 52 236.5 105.5 c 128,-1,24
 193 159 193 159 172.5 220 c 128,-1,25
 152 281 152 281 152 348 c 0,26,27
 152 378 152 378 157 411 c 1,28,-1
 303 411 l 1,29,-1
 303 387 l 2,30,31
 303 329 303 329 314.5 285.5 c 128,-1,32
 326 242 326 242 355.5 203.5 c 128,-1,33
 385 165 385 165 444 144.5 c 128,-1,34
 503 124 503 124 590 124 c 0,35,36
 665 124 665 124 739.5 159 c 128,-1,37
 814 194 814 194 873 253.5 c 128,-1,38
 932 313 932 313 969 401 c 128,-1,39
 1006 489 1006 489 1006 587 c 3,0,1
EndSplineSet
EndChar

StartChar: six
Encoding: 54 54 26
Width: 1137
VWidth: 2045
Flags: W
HStem: -12 136<445.453 775.254> 840 136<551.718 879.18> 1344 136<650.03 979.144>
VStem: 176 155<240.697 610.788> 989 150<364.005 730.059> 1066 151<1103 1252.28>
LayerCount: 3
Fore
SplineSet
575 -12 m 3xf8
 294 -12 176 190 176 466 c 3
 176 753 312 1480 863 1480 c 3
 1065 1480 1217 1361 1217 1167 c 3
 1217 1147 1216 1125 1212 1103 c 1
 1066 1103 l 1xf4
 1066 1172 1044 1344 829 1344 c 3
 528 1344 408 1052 351 766 c 1
 362 788 481 976 776 976 c 3
 958 976 1139 843 1139 593 c 3
 1139 304 926 -12 575 -12 c 3xf8
724 840 m 3
 509 840 331 664 331 406 c 3
 331 240 430 124 604 124 c 3
 877 124 989 387 989 562 c 3xf8
 989 718 903 840 724 840 c 3
EndSplineSet
Validated: 1
Layer: 2
SplineSet
575 -12 m 3,0,1
 439 -12 439 -12 347.5 51 c 128,-1,2
 256 114 256 114 216 219 c 128,-1,3
 176 324 176 324 176 466 c 0,4,5
 176 533 176 533 185 613 c 128,-1,6
 194 693 194 693 216.5 792.5 c 128,-1,7
 239 892 239 892 272.5 986 c 128,-1,8
 306 1080 306 1080 361.5 1171 c 128,-1,9
 417 1262 417 1262 485.5 1329.5 c 128,-1,10
 554 1397 554 1397 651.5 1438.5 c 128,-1,11
 749 1480 749 1480 863 1480 c 0,12,13
 1018 1480 1018 1480 1117.5 1395 c 128,-1,14
 1217 1310 1217 1310 1217 1167 c 0,15,16
 1217 1130 1217 1130 1212 1103 c 1,17,-1
 1066 1103 l 1,18,19
 1066 1129 1066 1129 1062.5 1155 c 128,-1,20
 1059 1181 1059 1181 1044.5 1217 c 128,-1,21
 1030 1253 1030 1253 1006 1279.5 c 128,-1,22
 982 1306 982 1306 936 1325 c 128,-1,23
 890 1344 890 1344 829 1344 c 0,24,25
 742 1344 742 1344 669.5 1310.5 c 128,-1,26
 597 1277 597 1277 547 1223.5 c 128,-1,27
 497 1170 497 1170 457.5 1092 c 128,-1,28
 418 1014 418 1014 394 936.5 c 128,-1,29
 370 859 370 859 351 766 c 1,30,31
 357 778 357 778 371 797 c 128,-1,32
 385 816 385 816 421 849 c 128,-1,33
 457 882 457 882 502 909 c 128,-1,34
 547 936 547 936 620 956 c 128,-1,35
 693 976 693 976 776 976 c 0,36,37
 870 976 870 976 951 933.5 c 128,-1,38
 1032 891 1032 891 1085.5 802 c 128,-1,39
 1139 713 1139 713 1139 593 c 0,40,41
 1139 506 1139 506 1114.5 419 c 128,-1,42
 1090 332 1090 332 1041 255 c 128,-1,43
 992 178 992 178 925.5 118 c 128,-1,44
 859 58 859 58 768 23 c 128,-1,45
 677 -12 677 -12 575 -12 c 3,0,1
724 840 m 3,46,47
 559 840 559 840 445 718 c 128,-1,48
 331 596 331 596 331 406 c 0,49,50
 331 279 331 279 403.5 201.5 c 128,-1,51
 476 124 476 124 604 124 c 0,52,53
 682 124 682 124 748 153 c 128,-1,54
 814 182 814 182 857.5 228 c 128,-1,55
 901 274 901 274 931.5 332.5 c 128,-1,56
 962 391 962 391 975.5 449 c 128,-1,57
 989 507 989 507 989 562 c 0,58,59
 989 685 989 685 921 762.5 c 128,-1,60
 853 840 853 840 724 840 c 3,46,47
EndSplineSet
EndChar

StartChar: seven
Encoding: 55 55 27
Width: 1137
VWidth: 2045
Flags: W
HStem: 0 21G<364 521> 1314 136<354 1121>
VStem: 364 146<0 187.312>
LayerCount: 3
Fore
SplineSet
364 0 m 1
 395 168 503 682 1121 1314 c 1
 330 1314 l 1
 354 1450 l 1
 1302 1450 l 1
 1278 1314 l 1
 644 703 532 126 510 0 c 1
 364 0 l 1
EndSplineSet
Validated: 1
Layer: 2
SplineSet
364 0 m 1,0,1
 487 665 487 665 1121 1314 c 1,2,-1
 330 1314 l 1,3,-1
 354 1450 l 1,4,-1
 1302 1450 l 1,5,-1
 1278 1314 l 1,6,7
 1148 1189 1148 1189 1037.5 1055 c 128,-1,8
 927 921 927 921 852.5 809 c 128,-1,9
 778 697 778 697 717 579.5 c 128,-1,10
 656 462 656 462 622 378.5 c 128,-1,11
 588 295 588 295 561.5 208 c 128,-1,12
 535 121 535 121 526 81 c 128,-1,13
 517 41 517 41 510 0 c 1,14,-1
 364 0 l 1,0,1
EndSplineSet
EndChar

StartChar: eight
Encoding: 56 56 28
Width: 1137
VWidth: 2045
Flags: W
HStem: -12 136<420.753 767.921> 727 136<573.723 859.032> 1344 136<637.744 946.838>
VStem: 150 148<239.519 527.426> 331 149<950.426 1202.14> 982 150<315.548 608.571> 1040 149<1010.8 1258.04>
LayerCount: 3
Fore
SplineSet
717 863 m 259xfa
 884 863 1040 997 1040 1141 c 3
 1040 1260 925 1344 802 1344 c 259
 664 1344 480 1236 480 1074 c 3
 480 967 571 863 717 863 c 259xfa
587 124 m 259
 763 124 982 258 982 468 c 3xfc
 982 609 865 727 693 727 c 259
 494 727 298 571 298 376 c 3
 298 224 432 124 587 124 c 259
150 351 m 3
 150 556 264 744 503 804 c 1
 389 849 331 928 331 1040 c 3
 331 1309 559 1480 826 1480 c 0
 1053 1480 1189 1360 1189 1178 c 3xfa
 1189 981 1084 863 913 804 c 1
 1078 759 1132 639 1132 512 c 3
 1132 235 908 -12 563 -12 c 3
 280 -12 150 163 150 351 c 3
EndSplineSet
Validated: 1
Layer: 2
SplineSet
717 863 m 259,0,1
 842 863 842 863 941 948 c 128,-1,2
 1040 1033 1040 1033 1040 1141 c 0,3,4
 1040 1228 1040 1228 968.5 1286 c 128,-1,5
 897 1344 897 1344 802 1344 c 0,6,7
 731 1344 731 1344 658 1311.5 c 128,-1,8
 585 1279 585 1279 532.5 1215 c 128,-1,9
 480 1151 480 1151 480 1074 c 0,10,11
 480 990 480 990 546 926.5 c 128,-1,12
 612 863 612 863 717 863 c 259,0,1
587 124 m 259,13,14
 654 124 654 124 723 149 c 128,-1,15
 792 174 792 174 850 217 c 128,-1,16
 908 260 908 260 945 326 c 128,-1,17
 982 392 982 392 982 468 c 0,18,19
 982 576 982 576 900.5 651.5 c 128,-1,20
 819 727 819 727 693 727 c 0,21,22
 594 727 594 727 503 680.5 c 128,-1,23
 412 634 412 634 355 552.5 c 128,-1,24
 298 471 298 471 298 376 c 0,25,26
 298 265 298 265 382.5 194.5 c 128,-1,27
 467 124 467 124 587 124 c 259,13,14
150 351 m 3,28,29
 150 513 150 513 240.5 637 c 128,-1,30
 331 761 331 761 503 804 c 1,31,32
 331 872 331 872 331 1040 c 0,33,34
 331 1171 331 1171 399.5 1272.5 c 128,-1,35
 468 1374 468 1374 580 1427 c 128,-1,36
 692 1480 692 1480 826 1480 c 0,37,38
 995 1480 995 1480 1092 1398 c 128,-1,39
 1189 1316 1189 1316 1189 1178 c 0,40,41
 1189 899 1189 899 913 804 c 1,42,43
 1029 772 1029 772 1080.5 694.5 c 128,-1,44
 1132 617 1132 617 1132 512 c 0,45,46
 1132 408 1132 408 1091 313 c 128,-1,47
 1050 218 1050 218 977.5 146 c 128,-1,48
 905 74 905 74 797 31 c 128,-1,49
 689 -12 689 -12 563 -12 c 0,50,51
 460 -12 460 -12 379.5 18 c 128,-1,52
 299 48 299 48 250 99.5 c 128,-1,53
 201 151 201 151 175.5 215 c 128,-1,54
 150 279 150 279 150 351 c 3,28,29
EndSplineSet
EndChar

StartChar: nine
Encoding: 57 57 29
Width: 1137
VWidth: 2045
Flags: W
HStem: -12 136<450.081 766.779> 495 136<548.449 851.701> 1344 136<657.165 963.108>
VStem: 202 148<223.835 369> 277 150<754.773 1102.41> 1086 152<756.141 1219.77>
LayerCount: 3
Fore
SplineSet
810 1344 m 259xec
 638 1344 427 1161 427 920 c 3
 427 749 546 631 684 631 c 259
 883 631 1086 815 1086 1054 c 3
 1086 1211 986 1344 810 1344 c 259xec
571 -12 m 3
 339 -12 202 133 202 327 c 3
 202 341 203 355 204 369 c 9
 350 369 l 1xf4
 350 237 440 124 595 124 c 3
 871 124 1001 382 1059 713 c 1
 972 578 869 495 660 495 c 3
 433 495 277 645 277 878 c 3
 277 1243 553 1480 834 1480 c 3
 1080 1480 1238 1351 1238 1017 c 3
 1238 514 1029 -12 571 -12 c 3
EndSplineSet
Validated: 1
Layer: 2
SplineSet
810 1344 m 259,0,1
 746 1344 746 1344 678 1311 c 128,-1,2
 610 1278 610 1278 554 1223 c 128,-1,3
 498 1168 498 1168 462.5 1087.5 c 128,-1,4
 427 1007 427 1007 427 920 c 0,5,6
 427 794 427 794 502.5 712.5 c 128,-1,7
 578 631 578 631 684 631 c 0,8,9
 783 631 783 631 875.5 686 c 128,-1,10
 968 741 968 741 1027 840 c 128,-1,11
 1086 939 1086 939 1086 1054 c 0,12,13
 1086 1177 1086 1177 1011.5 1260.5 c 128,-1,14
 937 1344 937 1344 810 1344 c 259,0,1
571 -12 m 3,15,16
 401 -12 401 -12 301.5 83 c 128,-1,17
 202 178 202 178 202 327 c 0,18,19
 202 341 202 341 204 369 c 1,20,-1
 350 369 l 1,21,22
 350 266 350 266 416.5 195 c 128,-1,23
 483 124 483 124 595 124 c 0,24,25
 956 124 956 124 1059 713 c 1,26,27
 988 603 988 603 898 549 c 128,-1,28
 808 495 808 495 660 495 c 0,29,30
 489 495 489 495 383 599.5 c 128,-1,31
 277 704 277 704 277 878 c 0,32,33
 277 1011 277 1011 324.5 1125.5 c 128,-1,34
 372 1240 372 1240 450 1316.5 c 128,-1,35
 528 1393 528 1393 628.5 1436.5 c 128,-1,36
 729 1480 729 1480 834 1480 c 0,37,38
 1238 1480 1238 1480 1238 1017 c 0,39,40
 1238 863 1238 863 1213 716.5 c 128,-1,41
 1188 570 1188 570 1134.5 437.5 c 128,-1,42
 1081 305 1081 305 1004 205.5 c 128,-1,43
 927 106 927 106 815.5 47 c 128,-1,44
 704 -12 704 -12 571 -12 c 3,15,16
EndSplineSet
EndChar

StartChar: colon
Encoding: 58 58 30
Width: 568
VWidth: 2045
Flags: W
HStem: 0 205<274 390> 856 204<425 541>
VStem: 238 339
DStem2: 238 0 390 0 0.173648 0.984808<26.3945 208.137 895.611 1076.37>
LayerCount: 3
Fore
SplineSet
389 856 m 1
 425 1060 l 1
 577 1060 l 1
 541 856 l 1
 389 856 l 1
238 0 m 1
 274 205 l 1
 426 205 l 1
 390 0 l 1
 238 0 l 1
EndSplineSet
Validated: 1
Layer: 2
SplineSet
389 856 m 1,0,-1
 425 1060 l 1,1,-1
 577 1060 l 1,2,-1
 541 856 l 1,3,-1
 389 856 l 1,0,-1
238 0 m 1,4,-1
 274 205 l 1,5,-1
 426 205 l 1,6,-1
 390 0 l 1,7,-1
 238 0 l 1,4,-1
EndSplineSet
EndChar

StartChar: semicolon
Encoding: 59 59 31
Width: 568
VWidth: 2045
Flags: W
HStem: 856 204<407 539>
VStem: 138 437
DStem2: 168.865 -290 336.865 -290 0.173648 0.984808<294.474 502.611 1192.86 1370.84>
LayerCount: 3
Fore
SplineSet
371 856 m 1
 407 1060 l 1
 575 1060 l 1
 539 856 l 1
 371 856 l 1
220 0 m 1
 256 205 l 1
 424 205 l 1
 388 0 l 2
 360 -159 280 -244 169 -290 c 1
 138 -221 l 1
 252 -173 282 -49 291 0 c 1
 220 0 l 1
EndSplineSet
Validated: 1
Layer: 2
SplineSet
371 856 m 1,0,-1
 407 1060 l 1,1,-1
 575 1060 l 1,2,-1
 539 856 l 1,3,-1
 371 856 l 1,0,-1
220 0 m 1,4,-1
 256 205 l 1,5,-1
 424 205 l 1,6,-1
 388 0 l 2,7,8
 350 -215 350 -215 169 -290 c 1,9,-1
 138 -221 l 1,10,11
 260 -170 260 -170 291 0 c 1,12,-1
 220 0 l 1,4,-1
EndSplineSet
EndChar

StartChar: less
Encoding: 60 60 32
Width: 1350
VWidth: 2045
Flags: W
DStem2: 447 723 291 663 0.898614 -0.438741<0 843.964> 312 785 447 723 0.924404 0.381416<101.147 1058.56>
LayerCount: 3
Fore
SplineSet
291 663 m 1
 312 785 l 1
 1359 1217 l 1
 1335 1081 l 1
 447 723 l 1
 1207 356 l 1
 1184 227 l 1
 291 663 l 1
EndSplineSet
Validated: 1
Layer: 2
SplineSet
291 663 m 1,0,-1
 312 785 l 1,1,-1
 1359 1217 l 1,2,-1
 1335 1081 l 1,3,-1
 447 723 l 1,4,-1
 1207 356 l 1,5,-1
 1184 227 l 1,6,-1
 291 663 l 1,0,-1
EndSplineSet
EndChar

StartChar: equal
Encoding: 61 61 33
Width: 1350
VWidth: 2045
Flags: W
HStem: 437 136<290 1234> 877 136<368 1312>
LayerCount: 3
Fore
SplineSet
1312 877 m 1
 344 877 l 1
 368 1013 l 1
 1336 1013 l 1
 1312 877 l 1
1234 437 m 1
 266 437 l 1
 290 573 l 1
 1258 573 l 1
 1234 437 l 1
EndSplineSet
Validated: 1
Layer: 2
SplineSet
1312 877 m 1,0,-1
 344 877 l 1,1,-1
 368 1013 l 1,2,-1
 1336 1013 l 1,3,-1
 1312 877 l 1,0,-1
1234 437 m 1,4,-1
 266 437 l 1,5,-1
 290 573 l 1,6,-1
 1258 573 l 1,7,-1
 1234 437 l 1,4,-1
EndSplineSet
EndChar

StartChar: greater
Encoding: 62 62 34
Width: 1350
VWidth: 2045
Flags: W
DStem2: 251 356 229 227 0.923155 0.384428<0 959.924> 404 1217 379 1081 0.900198 -0.435482<36.7206 875.873>
LayerCount: 3
Fore
SplineSet
1276 663 m 1
 229 227 l 1
 251 356 l 1
 1138 723 l 1
 379 1081 l 1
 404 1217 l 1
 1297 785 l 1
 1276 663 l 1
EndSplineSet
Validated: 1
Layer: 2
SplineSet
1276 663 m 1,0,-1
 229 227 l 1,1,-1
 251 356 l 1,2,-1
 1138 723 l 1,3,-1
 379 1081 l 1,4,-1
 404 1217 l 1,5,-1
 1297 785 l 1,6,-1
 1276 663 l 1,0,-1
EndSplineSet
EndChar

StartChar: question
Encoding: 63 63 35
Width: 1022
VWidth: 2045
Flags: W
HStem: 0 205<466 589> 1368 136<567.756 912.622>
VStem: 221 146<1045 1159.88> 1031 149<984.186 1254.66>
DStem2: 430 0 589 0 0.173648 0.984808<27.6101 208.137 393.024 578.512>
LayerCount: 3
Fore
SplineSet
776 1504 m 3
 1014 1504 1180 1369 1180 1160 c 3
 1180 720 723 798 646 361 c 9
 500 361 l 17
 582 824 1031 825 1031 1121 c 3
 1031 1230 943 1368 755 1368 c 3
 526 1368 396 1202 367 1045 c 1
 221 1045 l 1
 278 1299 492 1504 776 1504 c 3
430 0 m 1
 466 205 l 1
 625 205 l 1
 589 0 l 1
 430 0 l 1
EndSplineSet
Validated: 1
Layer: 2
SplineSet
776 1504 m 3,0,1
 956 1504 956 1504 1068 1410 c 128,-1,2
 1180 1316 1180 1316 1180 1160 c 0,3,4
 1180 1071 1180 1071 1154.5 1001 c 128,-1,5
 1129 931 1129 931 1087.5 885 c 128,-1,6
 1046 839 1046 839 994.5 799.5 c 128,-1,7
 943 760 943 760 888.5 720 c 128,-1,8
 834 680 834 680 786 634.5 c 128,-1,9
 738 589 738 589 700 519 c 128,-1,10
 662 449 662 449 646 361 c 1,11,-1
 500 361 l 1,12,13
 517 455 517 455 555.5 533 c 128,-1,14
 594 611 594 611 641.5 663 c 128,-1,15
 689 715 689 715 743 760.5 c 128,-1,16
 797 806 797 806 848 844 c 128,-1,17
 899 882 899 882 940 921 c 128,-1,18
 981 960 981 960 1006 1010.5 c 128,-1,19
 1031 1061 1031 1061 1031 1121 c 0,20,21
 1031 1214 1031 1214 958 1291 c 128,-1,22
 885 1368 885 1368 755 1368 c 0,23,24
 673 1368 673 1368 602.5 1340 c 128,-1,25
 532 1312 532 1312 485 1265 c 128,-1,26
 438 1218 438 1218 408 1162 c 128,-1,27
 378 1106 378 1106 367 1045 c 1,28,-1
 221 1045 l 1,29,30
 265 1242 265 1242 417 1373 c 128,-1,31
 569 1504 569 1504 776 1504 c 3,0,1
430 0 m 1,32,-1
 466 205 l 1,33,-1
 625 205 l 1,34,-1
 589 0 l 1,35,-1
 430 0 l 1,32,-1
EndSplineSet
EndChar

StartChar: at
Encoding: 64 64 36
Width: 1635
VWidth: 2045
Flags: W
HStem: -430 124<549.137 1205.65> -12 124<584.759 837.16 1132.18 1373.15> 961 124<829.132 1161.49> 1040 20G<1360.64 1509> 1369 124<874.044 1378.4>
VStem: -24 131<67.5983 601.998> 372 129<200.949 572.207> 1764 133<608.858 1032.56>
LayerCount: 3
Fore
SplineSet
372 336 m 3xdf
 372 743 730 1085 999 1085 c 3xef
 1134 1085 1257 1041 1318 938 c 1
 1369 1060 l 1
 1509 1060 l 1
 1204 257 l 2
 1187 213 1176 190 1176 167 c 3
 1176 137 1206 112 1243 112 c 3
 1555 112 1764 607 1764 825 c 3
 1764 1199 1413 1369 1137 1369 c 3
 677 1369 107 975 107 306 c 3
 107 -177 529 -306 879 -306 c 3
 1360 -306 1551 -102 1658 18 c 1
 1808 18 l 1
 1741 -83 1462 -430 853 -430 c 3
 422 -430 -24 -263 -24 268 c 3
 -24 1037 595 1493 1177 1493 c 3
 1541 1493 1897 1295 1897 872 c 3
 1897 536 1626 -12 1152 -12 c 3
 1087 -12 1008 0 1008 145 c 1
 891 46 771 -12 654 -12 c 3
 526 -12 372 89 372 336 c 3xdf
992 961 m 3
 739 961 501 636 501 361 c 3
 501 171 620 112 706 112 c 3
 999 112 1224 513 1224 763 c 3
 1224 882 1168 961 992 961 c 3
EndSplineSet
Validated: 1
Layer: 2
SplineSet
372 336 m 3,0,1
 372 454 372 454 411 569.5 c 128,-1,2
 450 685 450 685 515.5 776 c 128,-1,3
 581 867 581 867 662 938 c 128,-1,4
 743 1009 743 1009 831 1047 c 128,-1,5
 919 1085 919 1085 999 1085 c 0,6,7
 1106 1085 1106 1085 1190 1048.5 c 128,-1,8
 1274 1012 1274 1012 1318 938 c 1,9,-1
 1369 1060 l 1,10,-1
 1509 1060 l 1,11,-1
 1204 257 l 2,12,13
 1176 185 1176 185 1176 167 c 0,14,15
 1176 144 1176 144 1195.5 128 c 128,-1,16
 1215 112 1215 112 1243 112 c 0,17,18
 1318 112 1318 112 1389.5 149.5 c 128,-1,19
 1461 187 1461 187 1517 248.5 c 128,-1,20
 1573 310 1573 310 1620.5 387 c 128,-1,21
 1668 464 1668 464 1699 543.5 c 128,-1,22
 1730 623 1730 623 1747 696.5 c 128,-1,23
 1764 770 1764 770 1764 825 c 0,24,25
 1764 933 1764 933 1725 1024.5 c 128,-1,26
 1686 1116 1686 1116 1622.5 1178.5 c 128,-1,27
 1559 1241 1559 1241 1476.5 1285 c 128,-1,28
 1394 1329 1394 1329 1308 1349 c 128,-1,29
 1222 1369 1222 1369 1137 1369 c 0,30,31
 1021 1369 1021 1369 900.5 1336 c 128,-1,32
 780 1303 780 1303 665.5 1242.5 c 128,-1,33
 551 1182 551 1182 449.5 1088 c 128,-1,34
 348 994 348 994 272 879.5 c 128,-1,35
 196 765 196 765 151.5 616.5 c 128,-1,36
 107 468 107 468 107 306 c 0,37,38
 107 205 107 205 131.5 120 c 128,-1,39
 156 35 156 35 198.5 -27 c 128,-1,40
 241 -89 241 -89 301 -137.5 c 128,-1,41
 361 -186 361 -186 428 -217.5 c 128,-1,42
 495 -249 495 -249 573 -269 c 128,-1,43
 651 -289 651 -289 725.5 -297.5 c 128,-1,44
 800 -306 800 -306 879 -306 c 0,45,46
 979 -306 979 -306 1068.5 -293.5 c 128,-1,47
 1158 -281 1158 -281 1224.5 -263 c 128,-1,48
 1291 -245 1291 -245 1354 -215.5 c 128,-1,49
 1417 -186 1417 -186 1457.5 -160.5 c 128,-1,50
 1498 -135 1498 -135 1541 -98 c 128,-1,51
 1584 -61 1584 -61 1606 -38.5 c 128,-1,52
 1628 -16 1628 -16 1658 18 c 1,53,-1
 1808 18 l 1,54,55
 1790 -9 1790 -9 1766 -39 c 128,-1,56
 1742 -69 1742 -69 1695.5 -114.5 c 128,-1,57
 1649 -160 1649 -160 1595.5 -201 c 128,-1,58
 1542 -242 1542 -242 1463 -285 c 128,-1,59
 1384 -328 1384 -328 1297 -359 c 128,-1,60
 1210 -390 1210 -390 1094 -410 c 128,-1,61
 978 -430 978 -430 853 -430 c 0,62,63
 717 -430 717 -430 595.5 -409 c 128,-1,64
 474 -388 474 -388 358.5 -336.5 c 128,-1,65
 243 -285 243 -285 160 -207.5 c 128,-1,66
 77 -130 77 -130 26.5 -8 c 128,-1,67
 -24 114 -24 114 -24 268 c 0,68,69
 -24 492 -24 492 45 690 c 128,-1,70
 114 888 114 888 231.5 1032.5 c 128,-1,71
 349 1177 349 1177 502.5 1282.5 c 128,-1,72
 656 1388 656 1388 829 1440.5 c 128,-1,73
 1002 1493 1002 1493 1177 1493 c 0,74,75
 1288 1493 1288 1493 1391.5 1469.5 c 128,-1,76
 1495 1446 1495 1446 1587.5 1396 c 128,-1,77
 1680 1346 1680 1346 1748.5 1274 c 128,-1,78
 1817 1202 1817 1202 1857 1098.5 c 128,-1,79
 1897 995 1897 995 1897 872 c 0,80,81
 1897 769 1897 769 1866 651 c 128,-1,82
 1835 533 1835 533 1770.5 415.5 c 128,-1,83
 1706 298 1706 298 1619.5 202.5 c 128,-1,84
 1533 107 1533 107 1410.5 47.5 c 128,-1,85
 1288 -12 1288 -12 1152 -12 c 0,86,87
 1122 -12 1122 -12 1101 -7.5 c 128,-1,88
 1080 -3 1080 -3 1056.5 11.5 c 128,-1,89
 1033 26 1033 26 1020.5 59.5 c 128,-1,90
 1008 93 1008 93 1008 145 c 1,91,92
 822 -12 822 -12 654 -12 c 0,93,94
 604 -12 604 -12 555.5 8.5 c 128,-1,95
 507 29 507 29 465 69 c 128,-1,96
 423 109 423 109 397.5 178.5 c 128,-1,97
 372 248 372 248 372 336 c 3,0,1
992 961 m 3,98,99
 870 961 870 961 754.5 868.5 c 128,-1,100
 639 776 639 776 570 636.5 c 128,-1,101
 501 497 501 497 501 361 c 0,102,103
 501 293 501 293 520.5 242.5 c 128,-1,104
 540 192 540 192 571.5 165 c 128,-1,105
 603 138 603 138 637 125 c 128,-1,106
 671 112 671 112 706 112 c 0,107,108
 790 112 790 112 871.5 155.5 c 128,-1,109
 953 199 953 199 1015.5 269.5 c 128,-1,110
 1078 340 1078 340 1126 425.5 c 128,-1,111
 1174 511 1174 511 1199 599.5 c 128,-1,112
 1224 688 1224 688 1224 763 c 0,113,114
 1224 859 1224 859 1170.5 910 c 128,-1,115
 1117 961 1117 961 992 961 c 3,98,99
EndSplineSet
EndChar

StartChar: A
Encoding: 65 65 37
Width: 1364
VWidth: 2045
Flags: W
HStem: 0 21G<-3 170.563 1198.95 1366> 467 136<508 1051> 1430 20G<826.4 1005.05>
DStem2: -3 0 159 0 0.501718 0.865031<81.2783 620.712 777.992 1531.64> 1000 1450 886 1255 0.244738 -0.969589<161.17 833.724 974.154 1455.83>
LayerCount: 3
Fore
SplineSet
1051 603 m 1
 886 1255 l 1
 508 603 l 1
 1051 603 l 1
1086 467 m 1
 429 467 l 1
 159 0 l 1
 -3 0 l 1
 838 1450 l 1
 1000 1450 l 1
 1366 0 l 1
 1204 0 l 1
 1086 467 l 1
EndSplineSet
Validated: 1
Layer: 2
SplineSet
1051 603 m 1,0,-1
 886 1255 l 1,1,-1
 508 603 l 1,2,-1
 1051 603 l 1,0,-1
1086 467 m 1,3,-1
 429 467 l 1,4,-1
 159 0 l 1,5,-1
 -3 0 l 1,6,-1
 838 1450 l 1,7,-1
 1000 1450 l 1,8,-1
 1366 0 l 1,9,-1
 1204 0 l 1,10,-1
 1086 467 l 1,3,-1
EndSplineSet
EndChar

StartChar: B
Encoding: 66 66 38
Width: 1364
VWidth: 2045
Flags: W
HStem: 0 136<335 1001.25> 687 136<456 1073.23> 1314 136<543 1151.63>
VStem: 1188 149<310.283 589.636> 1230 150<959.539 1243.63>
DStem2: 165 0 311.02 0 0.173648 0.984808<163.454 722.927 861.028 1359.68>
LayerCount: 3
Fore
SplineSet
753 0 m 2xf0
 165 0 l 1
 421 1450 l 1
 954 1450 l 2
 1317 1450 1380 1267 1380 1143 c 3xe8
 1380 1008 1324 865 1116 772 c 1
 1274 722 1337 607 1337 489 c 3
 1337 296 1194 0 753 0 c 2xf0
874 823 m 2
 1022 823 1230 884 1230 1118 c 3
 1230 1238 1156 1314 936 1314 c 2
 543 1314 l 1
 456 823 l 1
 874 823 l 2
1188 467 m 3xf0
 1188 624 1031 687 871 687 c 2
 432 687 l 1
 335 136 l 1
 802 136 l 2
 1097 136 1188 348 1188 467 c 3xf0
EndSplineSet
Validated: 1
Layer: 2
SplineSet
753 0 m 2,0,-1
 165 0 l 1,1,-1
 421 1450 l 1,2,-1
 954 1450 l 2,3,4
 1041 1450 1041 1450 1111 1436 c 128,-1,5
 1181 1422 1181 1422 1226 1397.5 c 128,-1,6
 1271 1373 1271 1373 1302.5 1343.5 c 128,-1,7
 1334 1314 1334 1314 1350.5 1277.5 c 128,-1,8
 1367 1241 1367 1241 1373.5 1209 c 128,-1,9
 1380 1177 1380 1177 1380 1143 c 0,10,11
 1380 890 1380 890 1116 772 c 1,12,13
 1228 736 1228 736 1282.5 660 c 128,-1,14
 1337 584 1337 584 1337 489 c 0,15,16
 1337 427 1337 427 1319 363.5 c 128,-1,17
 1301 300 1301 300 1257.5 233.5 c 128,-1,18
 1214 167 1214 167 1149.5 116 c 128,-1,19
 1085 65 1085 65 982.5 32.5 c 128,-1,20
 880 0 880 0 753 0 c 2,0,-1
874 823 m 2,21,22
 922 823 922 823 968 831 c 128,-1,23
 1014 839 1014 839 1063 860 c 128,-1,24
 1112 881 1112 881 1148 913 c 128,-1,25
 1184 945 1184 945 1207 998 c 128,-1,26
 1230 1051 1230 1051 1230 1118 c 0,27,28
 1230 1213 1230 1213 1162 1263.5 c 128,-1,29
 1094 1314 1094 1314 936 1314 c 2,30,-1
 543 1314 l 1,31,-1
 456 823 l 1,32,-1
 874 823 l 2,21,22
1188 467 m 3,33,34
 1188 542 1188 542 1141 593 c 128,-1,35
 1094 644 1094 644 1025 665.5 c 128,-1,36
 956 687 956 687 871 687 c 2,37,-1
 432 687 l 1,38,-1
 335 136 l 1,39,-1
 802 136 l 2,40,41
 886 136 886 136 955 159 c 128,-1,42
 1024 182 1024 182 1066 218 c 128,-1,43
 1108 254 1108 254 1136.5 299.5 c 128,-1,44
 1165 345 1165 345 1176.5 386.5 c 128,-1,45
 1188 428 1188 428 1188 467 c 3,33,34
EndSplineSet
EndChar

StartChar: C
Encoding: 67 67 39
Width: 1477
VWidth: 2045
Flags: W
HStem: -12 136<591.608 1045.02> 1344 136<801.618 1228.51>
VStem: 215 150<352.605 862.037> 1411 146<1050 1173.91>
LayerCount: 3
Fore
SplineSet
809 124 m 3
 1084 124 1247 248 1335 480 c 1
 1481 480 l 1
 1378 206 1118 -12 815 -12 c 3
 401 -12 215 220 215 555 c 3
 215 1107 599 1480 1054 1480 c 3
 1361 1480 1528 1305 1557 1050 c 1
 1411 1050 l 1
 1377 1283 1174 1344 1027 1344 c 3
 652 1344 365 1034 365 582 c 3
 365 307 509 124 809 124 c 3
EndSplineSet
Validated: 1
Layer: 2
SplineSet
809 124 m 3,0,1
 1012 124 1012 124 1140 213 c 128,-1,2
 1268 302 1268 302 1335 480 c 1,3,-1
 1481 480 l 1,4,5
 1401 268 1401 268 1218.5 128 c 128,-1,6
 1036 -12 1036 -12 815 -12 c 0,7,8
 663 -12 663 -12 547 29 c 128,-1,9
 431 70 431 70 359 146 c 128,-1,10
 287 222 287 222 251 324.5 c 128,-1,11
 215 427 215 427 215 555 c 0,12,13
 215 757 215 757 282.5 931.5 c 128,-1,14
 350 1106 350 1106 464 1225.5 c 128,-1,15
 578 1345 578 1345 731 1412.5 c 128,-1,16
 884 1480 884 1480 1054 1480 c 0,17,18
 1278 1480 1278 1480 1406 1364 c 128,-1,19
 1534 1248 1534 1248 1557 1050 c 1,20,-1
 1411 1050 l 1,21,22
 1401 1117 1401 1117 1372 1169.5 c 128,-1,23
 1343 1222 1343 1222 1304 1254 c 128,-1,24
 1265 1286 1265 1286 1215.5 1307 c 128,-1,25
 1166 1328 1166 1328 1120 1336 c 128,-1,26
 1074 1344 1074 1344 1027 1344 c 0,27,28
 841 1344 841 1344 690 1248.5 c 128,-1,29
 539 1153 539 1153 452 978.5 c 128,-1,30
 365 804 365 804 365 582 c 0,31,32
 365 369 365 369 477.5 246.5 c 128,-1,33
 590 124 590 124 809 124 c 3,0,1
EndSplineSet
EndChar

StartChar: D
Encoding: 68 68 40
Width: 1477
VWidth: 2045
Flags: W
HStem: 0 136<338 962.708> 1314 136<546 1169.16>
VStem: 1379 150<611.696 1125.27>
DStem2: 168 0 314.02 0 0.173648 0.984808<163.454 1359.68>
LayerCount: 3
Fore
SplineSet
928 1450 m 2
 1385 1450 1529 1252 1529 957 c 3
 1529 441 1267 0 695 0 c 2
 168 0 l 1
 424 1450 l 1
 928 1450 l 2
338 136 m 1
 713 136 l 2
 1187 136 1379 526 1379 915 c 3
 1379 1146 1271 1314 917 1314 c 2
 546 1314 l 1
 338 136 l 1
EndSplineSet
Validated: 1
Layer: 2
SplineSet
928 1450 m 2,0,1
 1063 1450 1063 1450 1166 1426.5 c 128,-1,2
 1269 1403 1269 1403 1337 1361.5 c 128,-1,3
 1405 1320 1405 1320 1448.5 1257.5 c 128,-1,4
 1492 1195 1492 1195 1510.5 1122 c 128,-1,5
 1529 1049 1529 1049 1529 957 c 0,6,7
 1529 800 1529 800 1497.5 659.5 c 128,-1,8
 1466 519 1466 519 1399.5 397.5 c 128,-1,9
 1333 276 1333 276 1236 188 c 128,-1,10
 1139 100 1139 100 1000.5 50 c 128,-1,11
 862 0 862 0 695 0 c 2,12,-1
 168 0 l 1,13,-1
 424 1450 l 1,14,-1
 928 1450 l 2,0,1
338 136 m 1,15,-1
 713 136 l 2,16,17
 851 136 851 136 964 180 c 128,-1,18
 1077 224 1077 224 1153 298 c 128,-1,19
 1229 372 1229 372 1280.5 473 c 128,-1,20
 1332 574 1332 574 1355.5 684.5 c 128,-1,21
 1379 795 1379 795 1379 915 c 0,22,23
 1379 1006 1379 1006 1356 1075.5 c 128,-1,24
 1333 1145 1333 1145 1281.5 1200.5 c 128,-1,25
 1230 1256 1230 1256 1138 1285 c 128,-1,26
 1046 1314 1046 1314 917 1314 c 2,27,-1
 546 1314 l 1,28,-1
 338 136 l 1,15,-1
EndSplineSet
EndChar

StartChar: E
Encoding: 69 69 41
Width: 1209
VWidth: 2045
Flags: W
HStem: 0 136<261 1151> 668 136<379 1068> 1314 136<469 1383>
DStem2: 91 0 237.02 0 0.173648 0.984808<163.454 703.695 841.796 1359.68>
LayerCount: 3
Fore
SplineSet
91 0 m 1
 347 1450 l 1
 1407 1450 l 1
 1383 1314 l 1
 469 1314 l 1
 379 804 l 1
 1092 804 l 1
 1068 668 l 1
 355 668 l 1
 261 136 l 1
 1175 136 l 1
 1151 0 l 1
 91 0 l 1
EndSplineSet
Validated: 1
Layer: 2
SplineSet
91 0 m 1,0,-1
 347 1450 l 1,1,-1
 1407 1450 l 1,2,-1
 1383 1314 l 1,3,-1
 469 1314 l 1,4,-1
 379 804 l 1,5,-1
 1092 804 l 1,6,-1
 1068 668 l 1,7,-1
 355 668 l 1,8,-1
 261 136 l 1,9,-1
 1175 136 l 1,10,-1
 1151 0 l 1,11,-1
 91 0 l 1,0,-1
EndSplineSet
EndChar

StartChar: F
Encoding: 70 70 42
Width: 1137
VWidth: 2045
Flags: W
HStem: 0 21G<91 240.529> 663 136<378 1049> 1314 136<469 1311>
DStem2: 91 0 237 0 0.173648 0.984808<25.3526 698.597 836.698 1359.68>
LayerCount: 3
Fore
SplineSet
91 0 m 1
 347 1450 l 1
 1335 1450 l 1
 1311 1314 l 1
 469 1314 l 1
 378 799 l 1
 1073 799 l 1
 1049 663 l 1
 354 663 l 1
 237 0 l 1
 91 0 l 1
EndSplineSet
Validated: 1
Layer: 2
SplineSet
91 0 m 1,0,-1
 347 1450 l 1,1,-1
 1335 1450 l 1,2,-1
 1311 1314 l 1,3,-1
 469 1314 l 1,4,-1
 378 799 l 1,5,-1
 1073 799 l 1,6,-1
 1049 663 l 1,7,-1
 354 663 l 1,8,-1
 237 0 l 1,9,-1
 91 0 l 1,0,-1
EndSplineSet
EndChar

StartChar: G
Encoding: 71 71 43
Width: 1590
VWidth: 2045
Flags: W
HStem: -12 136<632.462 1078.55> 541 136<1069 1397> 1344 136<834.563 1281.73>
VStem: 262 149<359.506 852.971> 1457 146<1050 1184>
LayerCount: 3
Fore
SplineSet
411 587 m 3
 411 289 580 124 837 124 c 3
 1245 124 1375 414 1397 541 c 1
 1045 541 l 1
 1069 677 l 1
 1567 677 l 1
 1543 539 l 1
 1478 191 1205 -12 833 -12 c 3
 470 -12 262 205 262 560 c 3
 262 1112 649 1480 1100 1480 c 3
 1408 1480 1575 1304 1603 1050 c 1
 1457 1050 l 1
 1450 1135 1392 1344 1064 1344 c 3
 688 1344 411 1027 411 587 c 3
EndSplineSet
Validated: 1
Layer: 2
SplineSet
411 587 m 3,0,1
 411 367 411 367 526 245.5 c 128,-1,2
 641 124 641 124 837 124 c 0,3,4
 953 124 953 124 1049 155.5 c 128,-1,5
 1145 187 1145 187 1204.5 233.5 c 128,-1,6
 1264 280 1264 280 1307.5 340 c 128,-1,7
 1351 400 1351 400 1370 448.5 c 128,-1,8
 1389 497 1389 497 1397 541 c 1,9,-1
 1045 541 l 1,10,-1
 1069 677 l 1,11,-1
 1567 677 l 1,12,-1
 1543 539 l 2,13,14
 1495 280 1495 280 1304.5 134 c 128,-1,15
 1114 -12 1114 -12 833 -12 c 0,16,17
 562 -12 562 -12 412 140 c 128,-1,18
 262 292 262 292 262 560 c 0,19,20
 262 722 262 722 305.5 867 c 128,-1,21
 349 1012 349 1012 427.5 1123 c 128,-1,22
 506 1234 506 1234 610 1315 c 128,-1,23
 714 1396 714 1396 840 1438 c 128,-1,24
 966 1480 966 1480 1100 1480 c 0,25,26
 1324 1480 1324 1480 1452.5 1363.5 c 128,-1,27
 1581 1247 1581 1247 1603 1050 c 1,28,-1
 1457 1050 l 1,29,30
 1454 1081 1454 1081 1445 1113.5 c 128,-1,31
 1436 1146 1436 1146 1409.5 1189.5 c 128,-1,32
 1383 1233 1383 1233 1342.5 1265.5 c 128,-1,33
 1302 1298 1302 1298 1229.5 1321 c 128,-1,34
 1157 1344 1157 1344 1064 1344 c 0,35,36
 878 1344 878 1344 729 1247 c 128,-1,37
 580 1150 580 1150 495.5 977 c 128,-1,38
 411 804 411 804 411 587 c 3,0,1
EndSplineSet
EndChar

StartChar: H
Encoding: 72 72 44
Width: 1477
VWidth: 2045
Flags: W
HStem: 0 21G<165 314.512 1167 1316.53> 689 136<456 1288> 1430 20G<417.469 567 1419.45 1569>
DStem2: 165 0 311 0 0.173648 0.984808<25.3526 724.897 862.998 1472.43> 1167 0 1313 0 0.173648 0.984808<25.3526 699.544 837.645 1472.43>
LayerCount: 3
Fore
SplineSet
165 0 m 1
 421 1450 l 1
 567 1450 l 1
 456 825 l 1
 1312 825 l 1
 1423 1450 l 1
 1569 1450 l 1
 1313 0 l 1
 1167 0 l 1
 1288 689 l 1
 432 689 l 1
 311 0 l 1
 165 0 l 1
EndSplineSet
Validated: 1
Layer: 2
SplineSet
165 0 m 1,0,-1
 421 1450 l 1,1,-1
 567 1450 l 1,2,-1
 456 825 l 1,3,-1
 1312 825 l 1,4,-1
 1423 1450 l 1,5,-1
 1569 1450 l 1,6,-1
 1313 0 l 1,7,-1
 1167 0 l 1,8,-1
 1288 689 l 1,9,-1
 432 689 l 1,10,-1
 311 0 l 1,11,-1
 165 0 l 1,0,-1
EndSplineSet
EndChar

StartChar: I
Encoding: 73 73 45
Width: 568
VWidth: 2045
Flags: W
HStem: 0 21G<223 372.531> 1430 20G<475.469 625>
VStem: 223 402
DStem2: 223 0 369 0 0.173648 0.984808<25.3526 1472.43>
LayerCount: 3
Fore
SplineSet
223 0 m 1
 479 1450 l 1
 625 1450 l 1
 369 0 l 1
 223 0 l 1
EndSplineSet
Validated: 1
Layer: 2
SplineSet
223 0 m 1,0,-1
 479 1450 l 1,1,-1
 625 1450 l 1,2,-1
 369 0 l 1,3,-1
 223 0 l 1,0,-1
EndSplineSet
EndChar

StartChar: J
Encoding: 74 74 46
Width: 1022
VWidth: 2045
Flags: W
HStem: -12 136<345.616 651.784> 1430 20G<970.459 1120>
VStem: 132 148<192.842 452>
DStem2: 715.472 -12 862.008 -12 0.173648 0.984808<233.432 1484.68>
LayerCount: 3
Fore
SplineSet
974 1450 m 17
 1120 1450 l 1
 944 453 l 2
 898 190 776 -12 461 -12 c 3
 181 -12 132 186 132 327 c 3
 132 383 140 429 144 452 c 1
 290 452 l 17
 284 416 280 381 280 349 c 3
 280 212 342 124 482 124 c 3
 665 124 758 230 789 405 c 10
 974 1450 l 17
EndSplineSet
Validated: 1
Layer: 2
SplineSet
974 1450 m 17,0,-1
 1120 1450 l 1,1,-1
 944 453 l 2,2,3
 930 370 930 370 906.5 303 c 128,-1,4
 883 236 883 236 844.5 176 c 128,-1,5
 806 116 806 116 754 75.5 c 128,-1,6
 702 35 702 35 627.5 11.5 c 128,-1,7
 553 -12 553 -12 461 -12 c 0,8,9
 381 -12 381 -12 320 10 c 128,-1,10
 259 32 259 32 224 66 c 128,-1,11
 189 100 189 100 167.5 147.5 c 128,-1,12
 146 195 146 195 139 237.5 c 128,-1,13
 132 280 132 280 132 327 c 0,14,15
 132 383 132 383 144 452 c 1,16,-1
 290 452 l 1,17,18
 280 392 280 392 280 349 c 0,19,20
 280 243 280 243 330 183.5 c 128,-1,21
 380 124 380 124 482 124 c 0,22,23
 739 124 739 124 789 405 c 2,24,-1
 974 1450 l 17,0,-1
EndSplineSet
EndChar

StartChar: K
Encoding: 75 75 47
Width: 1364
VWidth: 2045
Flags: W
HStem: 0 21G<149 298.521 1150.31 1345> 1430 20G<401.469 551 1354.38 1570>
DStem2: 149 0 295 0 0.173648 0.984808<25.3526 602.088 767.648 1472.43> 424 731 395 568 0.799755 0.600327<0 163.354 303.954 1197> 735 823 623 738 0.595461 -0.803384<1.59603 917.233>
LayerCount: 3
Fore
SplineSet
149 0 m 1
 405 1450 l 1
 551 1450 l 1
 424 731 l 1
 1381 1450 l 1
 1570 1450 l 1
 735 823 l 1
 1345 0 l 1
 1165 0 l 1
 623 738 l 1
 395 568 l 1
 295 0 l 1
 149 0 l 1
EndSplineSet
Validated: 1
Layer: 2
SplineSet
149 0 m 1,0,-1
 405 1450 l 1,1,-1
 551 1450 l 1,2,-1
 424 731 l 1,3,-1
 1381 1450 l 1,4,-1
 1570 1450 l 1,5,-1
 735 823 l 1,6,-1
 1345 0 l 1,7,-1
 1165 0 l 1,8,-1
 623 738 l 1,9,-1
 395 568 l 1,10,-1
 295 0 l 1,11,-1
 149 0 l 1,0,-1
EndSplineSet
EndChar

StartChar: L
Encoding: 76 76 48
Width: 1137
VWidth: 2045
Flags: W
HStem: 0 136<319 1058> 1430 20G<401.469 551>
DStem2: 149 0 295.02 0 0.173648 0.984808<163.454 1472.43>
LayerCount: 3
Fore
SplineSet
149 0 m 1
 405 1450 l 1
 551 1450 l 1
 319 136 l 1
 1082 136 l 1
 1058 0 l 1
 149 0 l 1
EndSplineSet
Validated: 1
Layer: 2
SplineSet
149 0 m 1,0,-1
 405 1450 l 1,1,-1
 551 1450 l 1,2,-1
 319 136 l 1,3,-1
 1082 136 l 1,4,-1
 1058 0 l 1,5,-1
 149 0 l 1,0,-1
EndSplineSet
EndChar

StartChar: M
Encoding: 77 77 49
Width: 1702
VWidth: 2045
Flags: W
HStem: 0 21G<152 301.528 790.83 915.262 1403 1552.53> 1430 20G<404.469 559.023 1646.94 1805>
DStem2: 152 0 298 0 0.173648 0.984808<25.3526 1188.03> 554 1450 500 1145 0.243594 -0.969877<282.659 1334.19> 879 156 903 0 0.516247 0.85644<0 1221.81> 1403 0 1549 0 0.173648 0.984808<25.3526 1162.68>
LayerCount: 3
Fore
SplineSet
152 0 m 1
 408 1450 l 1
 554 1450 l 1
 879 156 l 1
 1659 1450 l 1
 1805 1450 l 1
 1549 0 l 1
 1403 0 l 1
 1605 1145 l 1
 903 0 l 1
 796 0 l 1
 500 1145 l 1
 298 0 l 1
 152 0 l 1
EndSplineSet
Validated: 1
Layer: 2
SplineSet
152 0 m 1,0,-1
 408 1450 l 1,1,-1
 554 1450 l 1,2,-1
 879 156 l 1,3,-1
 1659 1450 l 1,4,-1
 1805 1450 l 1,5,-1
 1549 0 l 1,6,-1
 1403 0 l 1,7,-1
 1605 1145 l 1,8,-1
 903 0 l 1,9,-1
 796 0 l 1,10,-1
 500 1145 l 1,11,-1
 298 0 l 1,12,-1
 152 0 l 1,0,-1
EndSplineSet
EndChar

StartChar: N
Encoding: 78 78 50
Width: 1477
VWidth: 2045
Flags: W
HStem: 0 21G<156 305.527 1152.66 1312.53> 1430 20G<408.469 568.338 1415.47 1565>
DStem2: 156 0 302 0 0.173648 0.984808<25.3526 1286.51> 558 1450 521 1242 0.459189 -0.888338<167.784 1398.12> 1163.32 0 1309 0 0.173648 0.984808<211.209 1472.37>
LayerCount: 3
Fore
SplineSet
156 0 m 1
 412 1450 l 1
 558 1450 l 1
 1200 208 l 1
 1419 1450 l 1
 1565 1450 l 1
 1309 0 l 1
 1163 0 l 1
 521 1242 l 1
 302 0 l 1
 156 0 l 1
EndSplineSet
Validated: 1
Layer: 2
SplineSet
156 0 m 1,0,-1
 412 1450 l 1,1,-1
 558 1450 l 1,2,-1
 1200 208 l 1,3,-1
 1419 1450 l 1,4,-1
 1565 1450 l 1,5,-1
 1309 0 l 1,6,-1
 1163 0 l 1,7,-1
 521 1242 l 1,8,-1
 302 0 l 1,9,-1
 156 0 l 1,0,-1
EndSplineSet
EndChar

StartChar: O
Encoding: 79 79 51
Width: 1590
VWidth: 2045
Flags: W
HStem: -12 136<622.285 1025.43> 1344 136<831.473 1234.58>
VStem: 213 150<394.683 856.482> 1493 150<612.418 1073.96>
LayerCount: 3
Fore
SplineSet
1060 1480 m 259
 1415 1480 1643 1258 1643 901 c 3
 1643 350 1239 -12 797 -12 c 259
 442 -12 213 211 213 568 c 3
 213 1119 618 1480 1060 1480 c 259
1036 1344 m 259
 717 1344 363 1038 363 614 c 3
 363 324 560 124 821 124 c 259
 1140 124 1493 431 1493 855 c 3
 1493 1144 1297 1344 1036 1344 c 259
EndSplineSet
Validated: 1
Layer: 2
SplineSet
1060 1480 m 259,0,1
 1327 1480 1327 1480 1485 1324 c 128,-1,2
 1643 1168 1643 1168 1643 901 c 0,3,4
 1643 700 1643 700 1573 527 c 128,-1,5
 1503 354 1503 354 1386 237 c 128,-1,6
 1269 120 1269 120 1115.5 54 c 128,-1,7
 962 -12 962 -12 797 -12 c 0,8,9
 530 -12 530 -12 371.5 144.5 c 128,-1,10
 213 301 213 301 213 568 c 0,11,12
 213 729 213 729 258.5 873.5 c 128,-1,13
 304 1018 304 1018 384 1127.5 c 128,-1,14
 464 1237 464 1237 570.5 1317 c 128,-1,15
 677 1397 677 1397 802.5 1438.5 c 128,-1,16
 928 1480 928 1480 1060 1480 c 259,0,1
1036 1344 m 259,17,18
 917 1344 917 1344 796.5 1288.5 c 128,-1,19
 676 1233 676 1233 580 1139 c 128,-1,20
 484 1045 484 1045 423.5 906 c 128,-1,21
 363 767 363 767 363 614 c 0,22,23
 363 398 363 398 493 261 c 128,-1,24
 623 124 623 124 821 124 c 0,25,26
 916 124 916 124 1013 159 c 128,-1,27
 1110 194 1110 194 1195.5 260 c 128,-1,28
 1281 326 1281 326 1348 414 c 128,-1,29
 1415 502 1415 502 1454 617 c 128,-1,30
 1493 732 1493 732 1493 855 c 0,31,32
 1493 1070 1493 1070 1363 1207 c 128,-1,33
 1233 1344 1233 1344 1036 1344 c 259,17,18
EndSplineSet
EndChar

StartChar: P
Encoding: 80 80 52
Width: 1248
VWidth: 2045
Flags: W
HStem: 0 21G<88 237.517> 580 136<360 1022.84> 1314 136<466 1126.16>
VStem: 1248 150<917.822 1211.47>
DStem2: 88 0 234 0 0.173648 0.984808<25.3526 614.253 752.355 1359.68>
LayerCount: 3
Fore
SplineSet
88 0 m 1
 344 1450 l 1
 928 1450 l 2
 1085 1450 1398 1440 1398 1128 c 3
 1398 803 1183 580 761 580 c 2
 336 580 l 1
 234 0 l 1
 88 0 l 1
788 716 m 2
 1148 716 1248 933 1248 1089 c 3
 1248 1193 1184 1314 891 1314 c 2
 466 1314 l 1
 360 716 l 1
 788 716 l 2
EndSplineSet
Validated: 1
Layer: 2
SplineSet
88 0 m 1,0,-1
 344 1450 l 1,1,-1
 928 1450 l 2,2,3
 972 1450 972 1450 1004.5 1448.5 c 128,-1,4
 1037 1447 1037 1447 1089 1440.5 c 128,-1,5
 1141 1434 1141 1434 1179.5 1422 c 128,-1,6
 1218 1410 1218 1410 1261.5 1386 c 128,-1,7
 1305 1362 1305 1362 1333 1328.5 c 128,-1,8
 1361 1295 1361 1295 1379.5 1243.5 c 128,-1,9
 1398 1192 1398 1192 1398 1128 c 0,10,11
 1398 877 1398 877 1234 728.5 c 128,-1,12
 1070 580 1070 580 761 580 c 2,13,-1
 336 580 l 1,14,-1
 234 0 l 1,15,-1
 88 0 l 1,0,-1
788 716 m 2,16,17
 892 716 892 716 974 740 c 128,-1,18
 1056 764 1056 764 1106 802 c 128,-1,19
 1156 840 1156 840 1189 890.5 c 128,-1,20
 1222 941 1222 941 1235 990 c 128,-1,21
 1248 1039 1248 1039 1248 1089 c 0,22,23
 1248 1123 1248 1123 1239.5 1152.5 c 128,-1,24
 1231 1182 1231 1182 1206.5 1212.5 c 128,-1,25
 1182 1243 1182 1243 1143.5 1265 c 128,-1,26
 1105 1287 1105 1287 1040.5 1300.5 c 128,-1,27
 976 1314 976 1314 891 1314 c 2,28,-1
 466 1314 l 1,29,-1
 360 716 l 1,30,-1
 788 716 l 2,16,17
EndSplineSet
EndChar

StartChar: Q
Encoding: 81 81 53
Width: 1590
VWidth: 2045
Flags: W
HStem: -12 136<604.81 1017.51 1308.38 1556.82> 341 136<706.992 1027.09> 1344 136<813.473 1216.58>
VStem: 195 150<394.81 856.482> 1475 150<607.617 1073.96>
LayerCount: 3
Fore
SplineSet
1414 124 m 3
 1485 124 1551 156 1586 194 c 1
 1648 79 l 1
 1582 18 1495 -12 1385 -12 c 3
 1268 -12 1215 34 1177 92 c 1
 1058 25 923 -12 779 -12 c 3
 424 -12 195 211 195 568 c 3
 195 1119 600 1480 1042 1480 c 3
 1397 1480 1625 1258 1625 901 c 3
 1625 577 1484 331 1301 177 c 1
 1326 145 1360 124 1414 124 c 3
1018 1344 m 3
 699 1344 345 1038 345 614 c 3
 345 465 398 340 484 253 c 1
 563 364 718 477 865 477 c 3
 1092 477 1176 391 1228 303 c 1
 1366 430 1475 613 1475 855 c 3
 1475 1144 1279 1344 1018 1344 c 3
1109 214 m 1
 1065 283 999 341 841 341 c 3
 741 341 635 258 580 180 c 1
 646 144 721 124 803 124 c 3
 908 124 1013 157 1109 214 c 1
EndSplineSet
Validated: 1
Layer: 2
SplineSet
1414 124 m 3,0,1
 1465 124 1465 124 1511.5 144 c 128,-1,2
 1558 164 1558 164 1586 194 c 1,3,-1
 1648 79 l 1,4,5
 1550 -12 1550 -12 1385 -12 c 0,6,7
 1304 -12 1304 -12 1257 15 c 128,-1,8
 1210 42 1210 42 1177 92 c 1,9,10
 992 -12 992 -12 779 -12 c 0,11,12
 512 -12 512 -12 353.5 144.5 c 128,-1,13
 195 301 195 301 195 568 c 0,14,15
 195 729 195 729 240.5 873.5 c 128,-1,16
 286 1018 286 1018 366 1127.5 c 128,-1,17
 446 1237 446 1237 552.5 1317 c 128,-1,18
 659 1397 659 1397 784.5 1438.5 c 128,-1,19
 910 1480 910 1480 1042 1480 c 0,20,21
 1309 1480 1309 1480 1467 1324 c 128,-1,22
 1625 1168 1625 1168 1625 901 c 0,23,24
 1625 670 1625 670 1536.5 485.5 c 128,-1,25
 1448 301 1448 301 1301 177 c 1,26,27
 1342 124 1342 124 1414 124 c 3,0,1
1018 1344 m 3,28,29
 899 1344 899 1344 778.5 1288.5 c 128,-1,30
 658 1233 658 1233 562 1139 c 128,-1,31
 466 1045 466 1045 405.5 906 c 128,-1,32
 345 767 345 767 345 614 c 0,33,34
 345 394 345 394 484 253 c 1,35,36
 548 343 548 343 654.5 410 c 128,-1,37
 761 477 761 477 865 477 c 0,38,39
 946 477 946 477 1009 463 c 128,-1,40
 1072 449 1072 449 1113.5 422.5 c 128,-1,41
 1155 396 1155 396 1180.5 368.5 c 128,-1,42
 1206 341 1206 341 1228 303 c 1,43,44
 1475 530 1475 530 1475 855 c 0,45,46
 1475 1070 1475 1070 1345 1207 c 128,-1,47
 1215 1344 1215 1344 1018 1344 c 3,28,29
1109 214 m 1,48,49
 1071 274 1071 274 1010.5 307.5 c 128,-1,50
 950 341 950 341 841 341 c 0,51,52
 771 341 771 341 698 292.5 c 128,-1,53
 625 244 625 244 580 180 c 1,54,55
 683 124 683 124 803 124 c 0,56,57
 957 124 957 124 1109 214 c 1,48,49
EndSplineSet
EndChar

StartChar: R
Encoding: 82 82 54
Width: 1364
VWidth: 2045
Flags: W
HStem: 0 21G<98 247.517 1155.83 1325> 580 136<370 815> 1314 136<476 1132.93>
VStem: 1253 153<906.51 1213.28>
DStem2: 98 0 244 0 0.173648 0.984808<25.3526 614.253 752.355 1359.68> 968 595 815 580 0.514496 -0.857493<0 613.107>
LayerCount: 3
Fore
SplineSet
968 595 m 1
 1325 0 l 1
 1168 0 l 1
 815 580 l 1
 346 580 l 1
 244 0 l 1
 98 0 l 1
 354 1450 l 1
 939 1450 l 2
 1311 1450 1406 1295 1406 1129 c 3
 1406 812 1192 642 968 595 c 1
826 716 m 2
 1102 716 1253 846 1253 1075 c 3
 1253 1186 1189 1314 927 1314 c 2
 476 1314 l 1
 370 716 l 1
 826 716 l 2
EndSplineSet
Validated: 1
Layer: 2
SplineSet
968 595 m 1,0,-1
 1325 0 l 1,1,-1
 1168 0 l 1,2,-1
 815 580 l 1,3,-1
 346 580 l 1,4,-1
 244 0 l 1,5,-1
 98 0 l 1,6,-1
 354 1450 l 1,7,-1
 939 1450 l 2,8,9
 1406 1450 1406 1450 1406 1129 c 0,10,11
 1406 1014 1406 1014 1369.5 919 c 128,-1,12
 1333 824 1333 824 1270.5 760 c 128,-1,13
 1208 696 1208 696 1131.5 654.5 c 128,-1,14
 1055 613 1055 613 968 595 c 1,0,-1
826 716 m 2,15,16
 1032 716 1032 716 1142.5 809.5 c 128,-1,17
 1253 903 1253 903 1253 1075 c 0,18,19
 1253 1121 1253 1121 1238 1160 c 128,-1,20
 1223 1199 1223 1199 1189 1235.5 c 128,-1,21
 1155 1272 1155 1272 1088 1293 c 128,-1,22
 1021 1314 1021 1314 927 1314 c 2,23,-1
 476 1314 l 1,24,-1
 370 716 l 1,25,-1
 826 716 l 2,15,16
EndSplineSet
EndChar

StartChar: S
Encoding: 83 83 55
Width: 1248
VWidth: 2045
Flags: W
HStem: -12 136<437.414 934.93> 1344 136<618.638 1054.21>
VStem: 125 148<265.684 501> 285 150<951.905 1187.4> 1142 150<301.617 545.736> 1203 149<1018 1207.14>
LayerCount: 3
Fore
SplineSet
862 1344 m 3xf4
 539 1344 435 1179 435 1050 c 3
 435 923 600 864 764 835 c 0
 1193 759 1292 600 1292 473 c 3
 1292 294 1120 -12 687 -12 c 3
 230 -12 125 208 125 399 c 3
 125 434 128 469 134 501 c 9
 280 501 l 17
 276 477 273 452 273 425 c 3
 273 285 348 124 684 124 c 3
 1034 124 1142 320 1142 445 c 3xf8
 1142 542 1052 627 713 689 c 0
 483 731 285 823 285 1013 c 3
 285 1229 491 1480 867 1480 c 3
 1150 1480 1352 1341 1352 1083 c 3
 1352 1062 1351 1040 1348 1018 c 1
 1202 1018 l 17
 1203 1028 1203 1038 1203 1048 c 3
 1203 1242 1061 1344 862 1344 c 3xf4
EndSplineSet
Validated: 1
Layer: 2
SplineSet
862 1344 m 3,0,1
 769 1344 769 1344 694 1325.5 c 128,-1,2
 619 1307 619 1307 571.5 1277.5 c 128,-1,3
 524 1248 524 1248 492.5 1209 c 128,-1,4
 461 1170 461 1170 448 1130.5 c 128,-1,5
 435 1091 435 1091 435 1050 c 0,6,7
 435 893 435 893 764 835 c 0,8,9
 888 813 888 813 983 780 c 128,-1,10
 1078 747 1078 747 1135.5 711.5 c 128,-1,11
 1193 676 1193 676 1229 633.5 c 128,-1,12
 1265 591 1265 591 1278.5 552.5 c 128,-1,13
 1292 514 1292 514 1292 473 c 0,14,15
 1292 417 1292 417 1271.5 354 c 128,-1,16
 1251 291 1251 291 1203 225 c 128,-1,17
 1155 159 1155 159 1087.5 107 c 128,-1,18
 1020 55 1020 55 915.5 21.5 c 128,-1,19
 811 -12 811 -12 687 -12 c 0,20,21
 555 -12 555 -12 453.5 13 c 128,-1,22
 352 38 352 38 291 77.5 c 128,-1,23
 230 117 230 117 191.5 172.5 c 128,-1,24
 153 228 153 228 139 282.5 c 128,-1,25
 125 337 125 337 125 399 c 0,26,27
 125 453 125 453 134 501 c 1,28,-1
 280 501 l 1,29,30
 273 459 273 459 273 425 c 0,31,32
 273 379 273 379 283 339.5 c 128,-1,33
 293 300 293 300 321 259 c 128,-1,34
 349 218 349 218 393.5 189 c 128,-1,35
 438 160 438 160 512.5 142 c 128,-1,36
 587 124 587 124 684 124 c 0,37,38
 784 124 784 124 865.5 145.5 c 128,-1,39
 947 167 947 167 997 200.5 c 128,-1,40
 1047 234 1047 234 1081 278 c 128,-1,41
 1115 322 1115 322 1128.5 363.5 c 128,-1,42
 1142 405 1142 405 1142 445 c 0,43,44
 1142 497 1142 497 1107 538 c 128,-1,45
 1072 579 1072 579 974 619 c 128,-1,46
 876 659 876 659 713 689 c 0,47,48
 285 767 285 767 285 1013 c 0,49,50
 285 1096 285 1096 324 1177.5 c 128,-1,51
 363 1259 363 1259 434 1327 c 128,-1,52
 505 1395 505 1395 618.5 1437.5 c 128,-1,53
 732 1480 732 1480 867 1480 c 0,54,55
 1085 1480 1085 1480 1218.5 1376 c 128,-1,56
 1352 1272 1352 1272 1352 1083 c 0,57,58
 1352 1047 1352 1047 1348 1018 c 1,59,-1
 1202 1018 l 1,60,61
 1203 1028 1203 1028 1203 1048 c 0,62,63
 1203 1190 1203 1190 1109.5 1267 c 128,-1,64
 1016 1344 1016 1344 862 1344 c 3,0,1
EndSplineSet
EndChar

StartChar: T
Encoding: 84 84 56
Width: 1137
VWidth: 2045
Flags: W
HStem: 0 21G<494 643.531> 1314 136<274 726 872 1351>
DStem2: 494 0 640 0 0.173648 0.984808<25.3526 1334.32>
LayerCount: 3
Fore
SplineSet
494 0 m 1
 726 1314 l 1
 250 1314 l 1
 274 1450 l 1
 1375 1450 l 1
 1351 1314 l 1
 872 1314 l 1
 640 0 l 1
 494 0 l 1
EndSplineSet
Validated: 1
Layer: 2
SplineSet
494 0 m 1,0,-1
 726 1314 l 1,1,-1
 250 1314 l 1,2,-1
 274 1450 l 1,3,-1
 1375 1450 l 1,4,-1
 1351 1314 l 1,5,-1
 872 1314 l 1,6,-1
 640 0 l 1,7,-1
 494 0 l 1,0,-1
EndSplineSet
EndChar

StartChar: U
Encoding: 85 85 57
Width: 1477
VWidth: 2045
Flags: W
HStem: -12 136<546.012 989.512> 1430 20G<414.471 564 1419.46 1569>
VStem: 246 150<266.106 718.766>
DStem2: 160.083 -12 305.73 -12 0.173648 0.984808<491.75 1484.58> 1164.73 -12 1311.08 -12 0.173648 0.984808<345.74 1484.64>
LayerCount: 3
Fore
SplineSet
760 124 m 3
 984 124 1205 218 1267 568 c 2
 1423 1450 l 1
 1569 1450 l 1
 1413 566 l 2
 1331 103 1042 -12 736 -12 c 3
 470 -12 246 75 246 402 c 3
 246 451 251 506 262 566 c 2
 418 1450 l 1
 564 1450 l 1
 408 568 l 2
 400 522 396 481 396 444 c 3
 396 195 565 124 760 124 c 3
EndSplineSet
Validated: 1
Layer: 2
SplineSet
760 124 m 3,0,1
 1188 124 1188 124 1267 568 c 2,2,-1
 1423 1450 l 1,3,-1
 1569 1450 l 1,4,-1
 1413 566 l 2,5,6
 1389 431 1389 431 1340 328.5 c 128,-1,7
 1291 226 1291 226 1228 162 c 128,-1,8
 1165 98 1165 98 1082.5 58.5 c 128,-1,9
 1000 19 1000 19 916.5 3.5 c 128,-1,10
 833 -12 833 -12 736 -12 c 0,11,12
 652 -12 652 -12 582.5 -0.5 c 128,-1,13
 513 11 513 11 449 40 c 128,-1,14
 385 69 385 69 341.5 115 c 128,-1,15
 298 161 298 161 272 234 c 128,-1,16
 246 307 246 307 246 402 c 0,17,18
 246 479 246 479 262 566 c 2,19,-1
 418 1450 l 1,20,-1
 564 1450 l 1,21,-1
 408 568 l 2,22,23
 396 499 396 499 396 444 c 0,24,25
 396 124 396 124 760 124 c 3,0,1
EndSplineSet
EndChar

StartChar: V
Encoding: 86 86 58
Width: 1248
VWidth: 2045
Flags: W
HStem: 0 21G<556.917 694.228> 1430 20G<265 424.88 1342.73 1497>
DStem2: 421 1450 265 1450 0.200013 -0.979793<0 1254.91> 660 218 683 0 0.489519 0.871993<0 1414.02>
LayerCount: 3
Fore
SplineSet
561 0 m 1
 265 1450 l 1
 421 1450 l 1
 660 218 l 1
 1354 1450 l 1
 1497 1450 l 1
 683 0 l 1
 561 0 l 1
EndSplineSet
Validated: 1
Layer: 2
SplineSet
561 0 m 1,0,-1
 265 1450 l 1,1,-1
 421 1450 l 1,2,-1
 660 218 l 1,3,-1
 1354 1450 l 1,4,-1
 1497 1450 l 1,5,-1
 683 0 l 1,6,-1
 561 0 l 1,0,-1
EndSplineSet
EndChar

StartChar: W
Encoding: 87 87 59
Width: 1818
VWidth: 2045
Flags: W
HStem: 0 21G<433.848 582.194 1259.98 1408.99> 1430 20G<280 429.023 1103.83 1254.06 1897.39 2052>
DStem2: 427 1450 280 1450 0.106969 -0.994262<0 1232.23> 551 224 573 0 0.417698 0.908586<0 1158.32> 1252 1450 1138 1229 0.100385 -0.994949<208.44 1232.46> 1378 224 1400 0 0.410103 0.912039<0 1334.69>
LayerCount: 3
Fore
SplineSet
436 0 m 1
 280 1450 l 1
 427 1450 l 1
 551 224 l 1
 1113 1450 l 1
 1252 1450 l 1
 1378 224 l 1
 1906 1450 l 1
 2052 1450 l 1
 1400 0 l 1
 1262 0 l 1
 1138 1229 l 1
 573 0 l 1
 436 0 l 1
EndSplineSet
Validated: 1
Layer: 2
SplineSet
436 0 m 1,0,-1
 280 1450 l 1,1,-1
 427 1450 l 1,2,-1
 551 224 l 1,3,-1
 1113 1450 l 1,4,-1
 1252 1450 l 1,5,-1
 1378 224 l 1,6,-1
 1906 1450 l 1,7,-1
 2052 1450 l 1,8,-1
 1400 0 l 1,9,-1
 1262 0 l 1,10,-1
 1138 1229 l 1,11,-1
 573 0 l 1,12,-1
 436 0 l 1,0,-1
EndSplineSet
EndChar

StartChar: X
Encoding: 88 88 60
Width: 1248
VWidth: 2045
Flags: W
HStem: 0 21G<9 203.445 1058.59 1244> 1430 20G<332 518.057 1266.96 1460>
DStem2: 9 0 186 0 0.660336 0.75097<116.879 958.16 1150.63 1930.84> 509 1450 332 1450 0.446336 -0.894865<0 651.614 874.477 1547.5>
LayerCount: 3
Fore
SplineSet
9 0 m 1
 670 740 l 1
 332 1450 l 1
 509 1450 l 1
 778 856 l 1
 1284 1450 l 1
 1460 1450 l 1
 843 740 l 1
 1244 0 l 1
 1069 0 l 1
 739 634 l 1
 186 0 l 1
 9 0 l 1
EndSplineSet
Validated: 1
Layer: 2
SplineSet
9 0 m 1,0,-1
 670 740 l 1,1,-1
 332 1450 l 1,2,-1
 509 1450 l 1,3,-1
 778 856 l 1,4,-1
 1284 1450 l 1,5,-1
 1460 1450 l 1,6,-1
 843 740 l 1,7,-1
 1244 0 l 1,8,-1
 1069 0 l 1,9,-1
 739 634 l 1,10,-1
 186 0 l 1,11,-1
 9 0 l 1,0,-1
EndSplineSet
EndChar

StartChar: Y
Encoding: 89 89 61
Width: 1248
VWidth: 2045
Flags: W
HStem: 0 21G<542 691.51> 1430 20G<262 448.206 1305.72 1497>
DStem2: 439 1450 262 1450 0.424798 -0.905288<0 762.875> 542 0 688 0 0.173648 0.984808<25.3526 630.493> 758 757 797 621 0.645157 0.76405<0 893.355>
LayerCount: 3
Fore
SplineSet
542 0 m 1
 651 621 l 1
 262 1450 l 1
 439 1450 l 1
 758 757 l 1
 1322 1450 l 1
 1497 1450 l 1
 797 621 l 1
 688 0 l 1
 542 0 l 1
EndSplineSet
Validated: 1
Layer: 2
SplineSet
542 0 m 1,0,-1
 651 621 l 1,1,-1
 262 1450 l 1,2,-1
 439 1450 l 1,3,-1
 758 757 l 1,4,-1
 1322 1450 l 1,5,-1
 1497 1450 l 1,6,-1
 797 621 l 1,7,-1
 688 0 l 1,8,-1
 542 0 l 1,0,-1
EndSplineSet
EndChar

StartChar: Z
Encoding: 90 90 62
Width: 1248
VWidth: 2045
Flags: W
HStem: 0 136<257 1198> 1314 136<302 1267>
LayerCount: 3
Fore
SplineSet
41 0 m 1
 66 144 l 1
 1267 1314 l 1
 278 1314 l 1
 302 1450 l 1
 1468 1450 l 1
 1444 1314 l 1
 257 136 l 1
 1222 136 l 1
 1198 0 l 1
 41 0 l 1
EndSplineSet
Validated: 1
Layer: 2
SplineSet
41 0 m 1,0,-1
 66 144 l 1,1,-1
 1267 1314 l 1,2,-1
 278 1314 l 1,3,-1
 302 1450 l 1,4,-1
 1468 1450 l 1,5,-1
 1444 1314 l 1,6,-1
 257 136 l 1,7,-1
 1222 136 l 1,8,-1
 1198 0 l 1,9,-1
 41 0 l 1,0,-1
EndSplineSet
EndChar

StartChar: bracketleft
Encoding: 91 91 63
Width: 681
VWidth: 2045
Flags: W
HStem: -408 136<237 463> 1329 136<519 769>
DStem2: 67 -408 213.02 -408 0.173648 0.984808<163.454 1789.1>
LayerCount: 3
Fore
SplineSet
67 -408 m 1
 397 1465 l 1
 793 1465 l 1
 769 1329 l 1
 519 1329 l 1
 237 -272 l 1
 487 -272 l 1
 463 -408 l 1
 67 -408 l 1
EndSplineSet
Validated: 1
Layer: 2
SplineSet
67 -408 m 1,0,-1
 397 1465 l 1,1,-1
 793 1465 l 1,2,-1
 769 1329 l 1,3,-1
 519 1329 l 1,4,-1
 237 -272 l 1,5,-1
 487 -272 l 1,6,-1
 463 -408 l 1,7,-1
 67 -408 l 1,0,-1
EndSplineSet
EndChar

StartChar: backslash
Encoding: 92 92 64
Width: 568
VWidth: 2045
Flags: W
VStem: 263 264
DStem2: 370 1489 263 1489 0.103213 -0.994659<0 1510.08>
LayerCount: 3
Fore
SplineSet
420 -24 m 1
 263 1489 l 1
 370 1489 l 1
 527 -24 l 1
 420 -24 l 1
EndSplineSet
Validated: 1
Layer: 2
SplineSet
420 -24 m 1,0,-1
 263 1489 l 1,1,-1
 370 1489 l 1,2,-1
 527 -24 l 1,3,-1
 420 -24 l 1,0,-1
EndSplineSet
EndChar

StartChar: bracketright
Encoding: 93 93 65
Width: 681
VWidth: 2045
Flags: W
HStem: -408 136<98 348> 1329 136<404 630>
DStem2: 324.02 -408 470 -408 0.173648 0.984808<138.098 1763.74>
LayerCount: 3
Fore
SplineSet
470 -408 m 1
 74 -408 l 1
 98 -272 l 1
 348 -272 l 1
 630 1329 l 1
 380 1329 l 1
 404 1465 l 1
 800 1465 l 1
 470 -408 l 1
EndSplineSet
Validated: 1
Layer: 2
SplineSet
470 -408 m 1,0,-1
 74 -408 l 1,1,-1
 98 -272 l 1,2,-1
 348 -272 l 1,3,-1
 630 1329 l 1,4,-1
 380 1329 l 1,5,-1
 404 1465 l 1,6,-1
 800 1465 l 1,7,-1
 470 -408 l 1,0,-1
EndSplineSet
EndChar

StartChar: asciicircum
Encoding: 94 94 66
Width: 1350
VWidth: 2045
Flags: W
DStem2: 359 689 496 689 0.523385 0.852096<71.7037 857.659>
LayerCount: 3
Fore
SplineSet
496 689 m 1
 359 689 l 1
 851 1490 l 1
 998 1490 l 1
 1210 689 l 1
 1066 689 l 1
 902 1362 l 1
 496 689 l 1
EndSplineSet
Validated: 1
Layer: 2
SplineSet
496 689 m 1,0,-1
 359 689 l 1,1,-1
 851 1490 l 1,2,-1
 998 1490 l 1,3,-1
 1210 689 l 1,4,-1
 1066 689 l 1,5,-1
 902 1362 l 1,6,-1
 496 689 l 1,0,-1
EndSplineSet
EndChar

StartChar: underscore
Encoding: 95 95 67
Width: 1022
VWidth: 2045
Flags: W
HStem: -408 94<-85 983>
LayerCount: 3
Fore
SplineSet
-102 -408 m 1
 -85 -314 l 1
 1000 -314 l 1
 983 -408 l 1
 -102 -408 l 1
EndSplineSet
Validated: 1
Layer: 2
SplineSet
-102 -408 m 1,0,-1
 -85 -314 l 1,1,-1
 1000 -314 l 1,2,-1
 983 -408 l 1,3,-1
 -102 -408 l 1,0,-1
EndSplineSet
EndChar

StartChar: grave
Encoding: 96 96 68
Width: 681
VWidth: 2045
Flags: W
HStem: 1193 281<576 597>
VStem: 394 289
LayerCount: 3
Fore
SplineSet
683 1193 m 1
 576 1193 l 1
 394 1474 l 1
 597 1474 l 1
 683 1193 l 1
EndSplineSet
Validated: 1
Layer: 2
SplineSet
683 1193 m 1,0,-1
 576 1193 l 1,1,-1
 394 1474 l 1,2,-1
 597 1474 l 1,3,-1
 683 1193 l 1,0,-1
EndSplineSet
EndChar

StartChar: a
Encoding: 97 97 69
Width: 1137
VWidth: 2045
Flags: W
HStem: 0 112<311.947 724.263> 961 124<523.553 928.527>
VStem: 121 129<168.723 375.078> 888 139<1.56889 260.912> 1003 130<596.046 895.069>
DStem2: 865.363 -12 991.419 -12 0.173648 0.984808<281.648 586.868 664.815 815.177>
LayerCount: 3
Fore
SplineSet
362 739 m 1xe8
 239 759 l 1
 329 986 494 1085 773 1085 c 3
 1068 1085 1133 981 1133 845 c 3xe8
 1133 795 1125 741 1115 687 c 2
 1072 445 l 2
 1041 273 1027 183 1027 120 c 3
 1027 72 1035 40 1052 0 c 1
 902 0 l 1
 893 27 888 58 888 94 c 3xf0
 888 106 889 118 890 131 c 1
 794 52 623 -12 434 -12 c 3
 243 -12 121 73 121 230 c 3
 121 464 306 571 656 609 c 0
 875 633 982 652 986 675 c 2
 1000 757 l 2
 1002 769 1003 781 1003 792 c 3
 1003 899 905 961 724 961 c 3
 532 961 424 875 362 739 c 1xe8
502 112 m 3
 728 112 905 214 950 468 c 2
 967 566 l 1
 850 533 741 513 642 504 c 0
 475 489 250 436 250 260 c 3
 250 147 390 112 502 112 c 3
EndSplineSet
Validated: 1
Layer: 2
SplineSet
362 739 m 1,0,-1
 239 759 l 1,1,2
 306 929 306 929 434.5 1007 c 128,-1,3
 563 1085 563 1085 773 1085 c 0,4,5
 880 1085 880 1085 953 1067.5 c 128,-1,6
 1026 1050 1026 1050 1064 1015.5 c 128,-1,7
 1102 981 1102 981 1117.5 940.5 c 128,-1,8
 1133 900 1133 900 1133 845 c 0,9,10
 1133 784 1133 784 1115 687 c 2,11,-1
 1072 445 l 2,12,13
 1027 195 1027 195 1027 120 c 0,14,15
 1027 59 1027 59 1052 0 c 1,16,-1
 902 0 l 1,17,18
 888 42 888 42 888 94 c 0,19,20
 888 105 888 105 890 131 c 1,21,22
 814 69 814 69 692 28.5 c 128,-1,23
 570 -12 570 -12 434 -12 c 0,24,25
 289 -12 289 -12 205 51 c 128,-1,26
 121 114 121 114 121 230 c 0,27,28
 121 401 121 401 253.5 490.5 c 128,-1,29
 386 580 386 580 656 609 c 0,30,31
 981 645 981 645 986 675 c 2,32,-1
 1000 757 l 2,33,34
 1003 775 1003 775 1003 792 c 0,35,36
 1003 873 1003 873 931 917 c 128,-1,37
 859 961 859 961 724 961 c 0,38,39
 463 961 463 961 362 739 c 1,0,-1
502 112 m 3,40,41
 619 112 619 112 709 147 c 128,-1,42
 799 182 799 182 863.5 263.5 c 128,-1,43
 928 345 928 345 950 468 c 2,44,-1
 967 566 l 1,45,46
 797 518 797 518 642 504 c 0,47,48
 586 499 586 499 536.5 490 c 128,-1,49
 487 481 487 481 432.5 462 c 128,-1,50
 378 443 378 443 339.5 417.5 c 128,-1,51
 301 392 301 392 275.5 351.5 c 128,-1,52
 250 311 250 311 250 260 c 0,53,54
 250 207 250 207 291 172 c 128,-1,55
 332 137 332 137 386 124.5 c 128,-1,56
 440 112 440 112 502 112 c 3,40,41
EndSplineSet
EndChar

StartChar: b
Encoding: 98 98 70
Width: 1248
VWidth: 2045
Flags: W
HStem: -12 124<492.708 813.421> 961 124<632.521 953.425> 1444 20G<425.48 556>
VStem: 1070 130<412.588 839.75>
DStem2: 169.237 -12 296.237 -12 0.173648 0.984808<32.2076 178.361 461.185 819.881 966.362 1498.68>
LayerCount: 3
Fore
SplineSet
648 112 m 259
 875 112 1070 342 1070 647 c 3
 1070 796 1012 961 797 961 c 256
 631 961 445 832 393 538 c 256
 386 496 382 455 382 417 c 0
 382 241 462 112 648 112 c 259
618 -12 m 3
 412 -12 328 129 323 142 c 1
 298 -2 l 1
 171 -2 l 1
 429 1464 l 1
 556 1464 l 1
 460 918 l 1
 558 1027 682 1085 833 1085 c 3
 1086 1085 1200 905 1200 677 c 3
 1200 272 937 -12 618 -12 c 3
EndSplineSet
Validated: 1
Layer: 2
SplineSet
648 112 m 259,0,1
 761 112 761 112 857.5 181.5 c 128,-1,2
 954 251 954 251 1012 374.5 c 128,-1,3
 1070 498 1070 498 1070 647 c 0,4,5
 1070 707 1070 707 1057 759.5 c 128,-1,6
 1044 812 1044 812 1014.5 859 c 128,-1,7
 985 906 985 906 929.5 933.5 c 128,-1,8
 874 961 874 961 797 961 c 0,9,10
 733 961 733 961 671 935.5 c 128,-1,11
 609 910 609 910 553 860.5 c 128,-1,12
 497 811 497 811 454.5 727.5 c 128,-1,13
 412 644 412 644 393 538 c 0,14,15
 382 472 382 472 382 417 c 0,16,17
 382 278 382 278 448 195 c 128,-1,18
 514 112 514 112 648 112 c 259,0,1
618 -12 m 3,19,20
 560 -12 560 -12 509 3 c 128,-1,21
 458 18 458 18 426.5 38.5 c 128,-1,22
 395 59 395 59 370 82.5 c 128,-1,23
 345 106 345 106 335.5 120.5 c 128,-1,24
 326 135 326 135 323 142 c 1,25,-1
 298 -2 l 1,26,-1
 171 -2 l 1,27,-1
 429 1464 l 1,28,-1
 556 1464 l 1,29,-1
 460 918 l 1,30,31
 610 1085 610 1085 833 1085 c 0,32,33
 1014 1085 1014 1085 1107 971.5 c 128,-1,34
 1200 858 1200 858 1200 677 c 0,35,36
 1200 528 1200 528 1153.5 399 c 128,-1,37
 1107 270 1107 270 1028.5 180.5 c 128,-1,38
 950 91 950 91 843.5 39.5 c 128,-1,39
 737 -12 737 -12 618 -12 c 3,19,20
EndSplineSet
EndChar

StartChar: c
Encoding: 99 99 71
Width: 1137
VWidth: 2045
Flags: W
HStem: -12 124<426.49 795.392> 961 124<567.828 925.06>
VStem: 177 128<235.827 668.987> 962 127<285.07 402> 1014 133<695 872.698>
LayerCount: 3
Fore
SplineSet
1089 402 m 1xf0
 1052 190 868 -12 592 -12 c 3
 349 -12 177 137 177 403 c 3
 177 823 453 1085 770 1085 c 3
 1067 1085 1147 916 1147 770 c 3
 1147 744 1144 718 1140 695 c 1
 1014 695 l 1xe8
 1014 839 967 961 754 961 c 3
 497 961 305 750 305 417 c 3
 305 211 424 112 596 112 c 3
 836 112 919 234 962 402 c 1
 1089 402 l 1xf0
EndSplineSet
Validated: 1
Layer: 2
SplineSet
1089 402 m 1,0,1
 1075 321 1075 321 1034 247.5 c 128,-1,2
 993 174 993 174 930.5 115.5 c 128,-1,3
 868 57 868 57 780 22.5 c 128,-1,4
 692 -12 692 -12 592 -12 c 0,5,6
 406 -12 406 -12 291.5 98 c 128,-1,7
 177 208 177 208 177 403 c 0,8,9
 177 556 177 556 225 686 c 128,-1,10
 273 816 273 816 354.5 902.5 c 128,-1,11
 436 989 436 989 543.5 1037 c 128,-1,12
 651 1085 651 1085 770 1085 c 0,13,14
 876 1085 876 1085 953 1057 c 128,-1,15
 1030 1029 1030 1029 1070.5 981.5 c 128,-1,16
 1111 934 1111 934 1129 881.5 c 128,-1,17
 1147 829 1147 829 1147 770 c 0,18,19
 1147 735 1147 735 1140 695 c 1,20,-1
 1014 695 l 1,21,22
 1014 754 1014 754 1003 798.5 c 128,-1,23
 992 843 992 843 964.5 881.5 c 128,-1,24
 937 920 937 920 884 940.5 c 128,-1,25
 831 961 831 961 754 961 c 0,26,27
 558 961 558 961 431.5 812 c 128,-1,28
 305 663 305 663 305 417 c 0,29,30
 305 267 305 267 383.5 189.5 c 128,-1,31
 462 112 462 112 596 112 c 0,32,33
 683 112 683 112 747.5 133 c 128,-1,34
 812 154 812 154 853.5 195 c 128,-1,35
 895 236 895 236 920 285 c 128,-1,36
 945 334 945 334 962 402 c 1,37,-1
 1089 402 l 1,0,1
EndSplineSet
EndChar

StartChar: d
Encoding: 100 100 72
Width: 1248
VWidth: 2045
Flags: W
HStem: -12 124<486.969 807.107> 961 124<618.117 940.374> 1445 20G<1200.48 1331>
VStem: 238 130<242.084 662.518>
DStem2: 943.884 -12 1070.88 -12 0.173648 0.984808<34.2384 158.339 303.941 677.869 946.339 1499.73>
LayerCount: 3
Fore
SplineSet
636 112 m 259
 771 112 980 192 1041 537 c 256
 1049 581 1052 622 1052 659 c 3
 1052 859 947 961 785 961 c 259
 499 961 368 649 368 430 c 3
 368 243 464 112 636 112 c 259
238 393 m 3
 238 708 415 1085 795 1085 c 3
 947 1085 1050 1029 1108 920 c 1
 1204 1465 l 1
 1331 1465 l 1
 1073 0 l 1
 946 0 l 1
 971 144 l 1
 962 131 838 -12 631 -12 c 3
 369 -12 238 143 238 393 c 3
EndSplineSet
Validated: 1
Layer: 2
SplineSet
636 112 m 259,0,1
 680 112 680 112 724 122.5 c 128,-1,2
 768 133 768 133 819 162.5 c 128,-1,3
 870 192 870 192 911.5 238 c 128,-1,4
 953 284 953 284 988 361 c 128,-1,5
 1023 438 1023 438 1041 537 c 0,6,7
 1052 597 1052 597 1052 659 c 0,8,9
 1052 806 1052 806 980.5 883.5 c 128,-1,10
 909 961 909 961 785 961 c 0,11,12
 703 961 703 961 632.5 926.5 c 128,-1,13
 562 892 562 892 514.5 837 c 128,-1,14
 467 782 467 782 433 711.5 c 128,-1,15
 399 641 399 641 383.5 569.5 c 128,-1,16
 368 498 368 498 368 430 c 0,17,18
 368 287 368 287 439 199.5 c 128,-1,19
 510 112 510 112 636 112 c 259,0,1
238 393 m 3,20,21
 238 490 238 490 259 586 c 128,-1,22
 280 682 280 682 325 772.5 c 128,-1,23
 370 863 370 863 434 932 c 128,-1,24
 498 1001 498 1001 591.5 1043 c 128,-1,25
 685 1085 685 1085 795 1085 c 0,26,27
 1020 1085 1020 1085 1108 920 c 1,28,-1
 1204 1465 l 1,29,-1
 1331 1465 l 1,30,-1
 1073 0 l 1,31,-1
 946 0 l 1,32,-1
 971 144 l 2,33,34
 966 137 966 137 952 122.5 c 128,-1,35
 938 108 938 108 906.5 83.5 c 128,-1,36
 875 59 875 59 837.5 38.5 c 128,-1,37
 800 18 800 18 744.5 3 c 128,-1,38
 689 -12 689 -12 631 -12 c 0,39,40
 438 -12 438 -12 338 95 c 128,-1,41
 238 202 238 202 238 393 c 3,20,21
EndSplineSet
EndChar

StartChar: e
Encoding: 101 101 73
Width: 1137
VWidth: 2045
Flags: W
HStem: -12 124<409.005 798.591> 494 124<325 1026.74> 961 124<557.566 919.384>
VStem: 152 138<223.308 485.155> 1027 129<619.839 854.328>
LayerCount: 3
Fore
SplineSet
761 1085 m 3
 1010 1085 1156 951 1156 673 c 3
 1156 619 1150 559 1139 494 c 1
 300 494 l 1
 294 459 290 423 290 389 c 3
 290 239 362 112 602 112 c 3
 720 112 869 148 973 329 c 1
 1104 329 l 1
 977 -6 645 -12 577 -12 c 3
 244 -12 152 176 152 375 c 3
 152 830 450 1085 761 1085 c 3
1024 618 m 1
 1026 640 1027 661 1027 680 c 3
 1027 912 879 961 742 961 c 3
 567 961 372 850 325 618 c 1
 1024 618 l 1
EndSplineSet
Validated: 1
Layer: 2
SplineSet
761 1085 m 3,0,1
 951 1085 951 1085 1053.5 981.5 c 128,-1,2
 1156 878 1156 878 1156 673 c 0,3,4
 1156 594 1156 594 1139 494 c 1,5,-1
 300 494 l 1,6,7
 290 436 290 436 290 389 c 0,8,9
 290 330 290 330 305.5 282 c 128,-1,10
 321 234 321 234 355.5 194.5 c 128,-1,11
 390 155 390 155 452.5 133.5 c 128,-1,12
 515 112 515 112 602 112 c 0,13,14
 848 112 848 112 973 329 c 1,15,-1
 1104 329 l 1,16,17
 1078 260 1078 260 1038 204.5 c 128,-1,18
 998 149 998 149 956.5 114.5 c 128,-1,19
 915 80 915 80 864 54.5 c 128,-1,20
 813 29 813 29 773.5 16.5 c 128,-1,21
 734 4 734 4 688.5 -3 c 128,-1,22
 643 -10 643 -10 621.5 -11 c 128,-1,23
 600 -12 600 -12 577 -12 c 0,24,25
 480 -12 480 -12 405 9.5 c 128,-1,26
 330 31 330 31 283 66.5 c 128,-1,27
 236 102 236 102 206 153 c 128,-1,28
 176 204 176 204 164 258 c 128,-1,29
 152 312 152 312 152 375 c 0,30,31
 152 508 152 508 185.5 623 c 128,-1,32
 219 738 219 738 277 822 c 128,-1,33
 335 906 335 906 412 966 c 128,-1,34
 489 1026 489 1026 578 1055.5 c 128,-1,35
 667 1085 667 1085 761 1085 c 3,0,1
1024 618 m 1,36,37
 1027 651 1027 651 1027 680 c 0,38,39
 1027 961 1027 961 742 961 c 0,40,41
 675 961 675 961 609.5 939.5 c 128,-1,42
 544 918 544 918 486 877 c 128,-1,43
 428 836 428 836 385 769 c 128,-1,44
 342 702 342 702 325 618 c 1,45,-1
 1024 618 l 1,36,37
EndSplineSet
EndChar

StartChar: f
Encoding: 102 102 74
Width: 568
VWidth: 2045
Flags: W
HStem: 0 21G<177 307.526> 936 124<205 342 491 700> 1391 124<612.018 884.187>
DStem2: 177 0 304 0 0.173648 0.984808<22.0533 950.432 1098.42 1368.7>
LayerCount: 3
Fore
SplineSet
745 1391 m 3
 696 1391 544 1366 510 1170 c 2
 491 1060 l 1
 722 1060 l 1
 700 936 l 1
 469 936 l 1
 304 0 l 1
 177 0 l 1
 342 936 l 1
 183 936 l 1
 205 1060 l 1
 364 1060 l 1
 384 1175 l 2
 432 1447 620 1515 753 1515 c 3
 804 1515 854 1506 902 1488 c 1
 880 1363 l 1
 830 1382 786 1391 745 1391 c 3
EndSplineSet
Validated: 1
Layer: 2
SplineSet
745 1391 m 3,0,1
 726 1391 726 1391 704.5 1387 c 128,-1,2
 683 1383 683 1383 651 1369 c 128,-1,3
 619 1355 619 1355 593 1332.5 c 128,-1,4
 567 1310 567 1310 543.5 1268 c 128,-1,5
 520 1226 520 1226 510 1170 c 2,6,-1
 491 1060 l 1,7,-1
 722 1060 l 1,8,-1
 700 936 l 1,9,-1
 469 936 l 1,10,-1
 304 0 l 1,11,-1
 177 0 l 1,12,-1
 342 936 l 1,13,-1
 183 936 l 1,14,-1
 205 1060 l 1,15,-1
 364 1060 l 1,16,-1
 384 1175 l 2,17,18
 398 1253 398 1253 428.5 1314.5 c 128,-1,19
 459 1376 459 1376 496 1412.5 c 128,-1,20
 533 1449 533 1449 579.5 1473 c 128,-1,21
 626 1497 626 1497 668 1506 c 128,-1,22
 710 1515 710 1515 753 1515 c 0,23,24
 830 1515 830 1515 902 1488 c 1,25,-1
 880 1363 l 1,26,27
 806 1391 806 1391 745 1391 c 3,0,1
EndSplineSet
EndChar

StartChar: g
Encoding: 103 103 75
Width: 1248
VWidth: 2045
Flags: W
HStem: -435 124<369.363 754.732> -12 124<480.519 799.684> 961 124<615.49 935.323> 1040 20G<1142.41 1273>
VStem: 167 132<-245.643 -74> 232 129<240.451 661.583>
DStem2: 882.73 -435 1008.85 -435 0.173648 0.984808<291.931 631.525 746.951 1090.46 1387.95 1518>
LayerCount: 3
Fore
SplineSet
634 112 m 259xe4
 759 112 994 198 1054 540 c 256
 1060 576 1063 610 1063 642 c 0
 1063 836 954 961 783 961 c 259
 535 961 361 706 361 431 c 3
 361 253 447 112 634 112 c 259xe4
549 -311 m 3
 829 -311 937 -141 985 145 c 2
 992 187 l 1
 892 55 751 -12 591 -12 c 3
 354 -12 232 171 232 406 c 3
 232 790 479 1085 807 1085 c 3xe4
 970 1085 1066 1027 1123 932 c 1
 1146 1060 l 1
 1273 1060 l 1
 1109 133 l 2
 1053 -185 949 -435 540 -435 c 3
 230 -435 167 -266 167 -141 c 3
 167 -116 170 -94 173 -74 c 1
 300 -74 l 17
 299 -86 299 -96 299 -107 c 3xd8
 299 -249 380 -311 549 -311 c 3
EndSplineSet
Validated: 1
Layer: 2
SplineSet
634 112 m 259,0,1
 675 112 675 112 720 123 c 128,-1,2
 765 134 765 134 818.5 164.5 c 128,-1,3
 872 195 872 195 916.5 241 c 128,-1,4
 961 287 961 287 999 364.5 c 128,-1,5
 1037 442 1037 442 1054 540 c 0,6,7
 1063 594 1063 594 1063 642 c 0,8,9
 1063 788 1063 788 987 874.5 c 128,-1,10
 911 961 911 961 783 961 c 0,11,12
 663 961 663 961 565 885.5 c 128,-1,13
 467 810 467 810 414 689.5 c 128,-1,14
 361 569 361 569 361 431 c 0,15,16
 361 290 361 290 430.5 201 c 128,-1,17
 500 112 500 112 634 112 c 259,0,1
549 -311 m 3,18,19
 749 -311 749 -311 848 -197.5 c 128,-1,20
 947 -84 947 -84 985 145 c 2,21,-1
 992 187 l 1,22,23
 841 -12 841 -12 591 -12 c 0,24,25
 476 -12 476 -12 393.5 44 c 128,-1,26
 311 100 311 100 271.5 193 c 128,-1,27
 232 286 232 286 232 406 c 0,28,29
 232 595 232 595 307 751 c 128,-1,30
 382 907 382 907 514 996 c 128,-1,31
 646 1085 646 1085 807 1085 c 0,32,33
 1031 1085 1031 1085 1123 932 c 1,34,-1
 1146 1060 l 1,35,-1
 1273 1060 l 1,36,-1
 1109 133 l 2,37,38
 1094 46 1094 46 1075.5 -20.5 c 128,-1,39
 1057 -87 1057 -87 1027.5 -155 c 128,-1,40
 998 -223 998 -223 956.5 -271 c 128,-1,41
 915 -319 915 -319 857.5 -357.5 c 128,-1,42
 800 -396 800 -396 720 -415.5 c 128,-1,43
 640 -435 640 -435 540 -435 c 0,44,45
 451 -435 451 -435 382.5 -416 c 128,-1,46
 314 -397 314 -397 274.5 -368 c 128,-1,47
 235 -339 235 -339 209.5 -298.5 c 128,-1,48
 184 -258 184 -258 175.5 -220 c 128,-1,49
 167 -182 167 -182 167 -141 c 0,50,51
 167 -114 167 -114 173 -74 c 1,52,-1
 300 -74 l 1,53,54
 299 -86 299 -86 299 -107 c 0,55,56
 299 -213 299 -213 360 -262 c 128,-1,57
 421 -311 421 -311 549 -311 c 3,18,19
EndSplineSet
EndChar

StartChar: h
Encoding: 104 104 76
Width: 1137
VWidth: 2045
Flags: W
HStem: 0 21G<134 264.533 873 1003.52> 961 124<602.391 927.802> 1445 20G<388.478 519>
VStem: 998 128<467.93 892.096>
DStem2: 134 0 261 0 0.173648 0.984808<22.0533 827.24 935.99 1487.54> 873 0 1000 0 0.173648 0.984808<22.0533 760.139>
LayerCount: 3
Fore
SplineSet
990 666 m 2
 995 697 998 726 998 751 c 3
 998 916 889 961 764 961 c 3
 475 961 381 679 373 634 c 2
 261 0 l 1
 134 0 l 1
 392 1465 l 1
 519 1465 l 1
 420 900 l 1
 557 1070 737 1085 790 1085 c 3
 1053 1085 1126 925 1126 767 c 3
 1126 732 1123 698 1117 665 c 2
 1000 0 l 1
 873 0 l 1
 990 666 l 2
EndSplineSet
Validated: 1
Layer: 2
SplineSet
990 666 m 2,0,1
 998 716 998 716 998 751 c 0,2,3
 998 961 998 961 764 961 c 0,4,5
 683 961 683 961 614 931 c 128,-1,6
 545 901 545 901 503.5 859.5 c 128,-1,7
 462 818 462 818 431.5 768 c 128,-1,8
 401 718 401 718 388.5 685.5 c 128,-1,9
 376 653 376 653 373 634 c 2,10,-1
 261 0 l 1,11,-1
 134 0 l 1,12,-1
 392 1465 l 1,13,-1
 519 1465 l 1,14,-1
 420 900 l 1,15,16
 468 959 468 959 526.5 999.5 c 128,-1,17
 585 1040 585 1040 638.5 1057 c 128,-1,18
 692 1074 692 1074 727 1079.5 c 128,-1,19
 762 1085 762 1085 790 1085 c 0,20,21
 866 1085 866 1085 925.5 1067 c 128,-1,22
 985 1049 985 1049 1022 1019 c 128,-1,23
 1059 989 1059 989 1083 947 c 128,-1,24
 1107 905 1107 905 1116.5 861 c 128,-1,25
 1126 817 1126 817 1126 767 c 0,26,27
 1126 714.5 1126 714.5 1117 665 c 2,28,-1
 1000 0 l 1,29,-1
 873 0 l 1,30,-1
 990 666 l 2,0,1
EndSplineSet
EndChar

StartChar: i
Encoding: 105 105 77
Width: 454
VWidth: 2045
Flags: W
HStem: 0 21G<159 289.528> 1040 20G<342.472 473> 1258 207<417 508>
VStem: 159 385
DStem2: 159 0 286 0 0.173648 0.984808<22.0533 1076.37 1299.49 1487.54>
LayerCount: 3
Fore
SplineSet
381 1258 m 1
 417 1465 l 1
 544 1465 l 1
 508 1258 l 1
 381 1258 l 1
159 0 m 1
 346 1060 l 1
 473 1060 l 1
 286 0 l 1
 159 0 l 1
EndSplineSet
Validated: 1
Layer: 2
SplineSet
381 1258 m 1,0,-1
 417 1465 l 1,1,-1
 544 1465 l 1,2,-1
 508 1258 l 1,3,-1
 381 1258 l 1,0,-1
159 0 m 1,4,-1
 346 1060 l 1,5,-1
 473 1060 l 1,6,-1
 286 0 l 1,7,-1
 159 0 l 1,4,-1
EndSplineSet
EndChar

StartChar: j
Encoding: 106 106 78
Width: 454
VWidth: 2045
Flags: W
HStem: -429 124<-150.229 77.5933> 1040 20G<371.463 502> 1258 207<446 537>
DStem2: 111.877 -429 239.406 -429 0.173648 0.984808<183.677 1512.07 1735.19 1923.25>
LayerCount: 3
Fore
SplineSet
410 1258 m 1
 446 1465 l 1
 573 1465 l 1
 537 1258 l 1
 410 1258 l 1
305 -57 m 2
 271 -250 184 -429 -36 -429 c 3
 -77 -429 -120 -423 -167 -411 c 1
 -147 -296 l 1
 -91 -305 -71 -305 -51 -305 c 3
 5 -305 135 -298 178 -54 c 2
 375 1060 l 1
 502 1060 l 1
 305 -57 l 2
EndSplineSet
Validated: 1
Layer: 2
SplineSet
410 1258 m 1,0,-1
 446 1465 l 1,1,-1
 573 1465 l 1,2,-1
 537 1258 l 1,3,-1
 410 1258 l 1,0,-1
305 -57 m 2,4,5
 239 -429 239 -429 -36 -429 c 0,6,7
 -96 -429 -96 -429 -167 -411 c 1,8,-1
 -147 -296 l 1,9,10
 -91 -305 -91 -305 -51 -305 c 0,11,12
 -27 -305 -27 -305 -9 -302.5 c 128,-1,13
 9 -300 9 -300 40.5 -286.5 c 128,-1,14
 72 -273 72 -273 95.5 -248.5 c 128,-1,15
 119 -224 119 -224 142.5 -173.5 c 128,-1,16
 166 -123 166 -123 178 -54 c 2,17,-1
 375 1060 l 1,18,-1
 502 1060 l 1,19,-1
 305 -57 l 2,4,5
EndSplineSet
EndChar

StartChar: k
Encoding: 107 107 79
Width: 1022
VWidth: 2045
Flags: W
HStem: 0 21G<136 266.545 858.547 1015> 1040 20G<984.256 1161> 1445 20G<390.478 521>
DStem2: 136 0 263 0 0.173648 0.984808<22.0533 405.945 563.279 1487.54> 357 533 330 378 0.773003 0.634402<0 189.887 317.167 838.328> 668 654 569 574 0.468694 -0.88336<24.2681 671.925>
LayerCount: 3
Fore
SplineSet
136 0 m 1
 394 1465 l 1
 521 1465 l 1
 357 533 l 1
 1009 1060 l 1
 1161 1060 l 1
 668 654 l 1
 1015 0 l 1
 869 0 l 1
 569 574 l 1
 330 378 l 1
 263 0 l 1
 136 0 l 1
EndSplineSet
Validated: 1
Layer: 2
SplineSet
136 0 m 1,0,-1
 394 1465 l 1,1,-1
 521 1465 l 1,2,-1
 357 533 l 1,3,-1
 1009 1060 l 1,4,-1
 1161 1060 l 1,5,-1
 668 654 l 1,6,-1
 1015 0 l 1,7,-1
 869 0 l 1,8,-1
 569 574 l 1,9,-1
 330 378 l 1,10,-1
 263 0 l 1,11,-1
 136 0 l 1,0,-1
EndSplineSet
EndChar

StartChar: l
Encoding: 108 108 80
Width: 454
VWidth: 2045
Flags: W
HStem: 0 21G<162 292.522> 1445 20G<416.478 547>
VStem: 162 385
DStem2: 162 0 289 0 0.173648 0.984808<22.0533 1487.54>
LayerCount: 3
Fore
SplineSet
162 0 m 1
 420 1465 l 1
 547 1465 l 1
 289 0 l 1
 162 0 l 1
EndSplineSet
Validated: 1
Layer: 2
SplineSet
162 0 m 1,0,-1
 420 1465 l 1,1,-1
 547 1465 l 1,2,-1
 289 0 l 1,3,-1
 162 0 l 1,0,-1
EndSplineSet
EndChar

StartChar: m
Encoding: 109 109 81
Width: 1702
VWidth: 2045
Flags: W
HStem: 0 21G<134 264.519 790 920.541 1446 1576.52> 961 124<609.953 879.886 1243.26 1528.64> 1042 20G<317.478 448>
VStem: 1575 136<652.372 915.112>
DStem2: 134 0 261 0 0.173648 0.984808<22.0533 830.27 905.404 1078.34> 790 0 917 0 0.173648 0.984808<22.0533 797.214> 1446 0 1573 0 0.173648 0.984808<22.0533 790.946>
LayerCount: 3
Fore
SplineSet
1372 961 m 3xd0
 1289 961 1075 892 1025 610 c 2
 917 0 l 1
 790 0 l 1
 910 683 l 2
 917 723 920 758 920 788 c 3
 920 926 848 961 744 961 c 3xd0
 618 961 415 875 362 574 c 2
 261 0 l 1
 134 0 l 1
 321 1062 l 1
 448 1062 l 1xb0
 414 870 l 1
 546 1033 657 1085 807 1085 c 3
 980 1085 1045 976 1059 876 c 1
 1194 1059 1333 1085 1434 1085 c 3
 1599 1085 1711 1014 1711 831 c 3
 1711 800 1708 766 1701 728 c 2
 1573 0 l 1
 1446 0 l 1
 1563 662 l 2
 1571 708 1575 748 1575 782 c 3
 1575 913 1514 961 1372 961 c 3xd0
EndSplineSet
Validated: 1
Layer: 2
SplineSet
1372 961 m 3,0,1
 1344 961 1344 961 1309 952 c 128,-1,2
 1274 943 1274 943 1229 918 c 128,-1,3
 1184 893 1184 893 1145 855.5 c 128,-1,4
 1106 818 1106 818 1072.5 754 c 128,-1,5
 1039 690 1039 690 1025 610 c 2,6,-1
 917 0 l 1,7,-1
 790 0 l 1,8,-1
 910 683 l 2,9,10
 920 740 920 740 920 788 c 0,11,12
 920 885 920 885 875 923 c 128,-1,13
 830 961 830 961 744 961 c 0,14,15
 703 961 703 961 660.5 950 c 128,-1,16
 618 939 618 939 570.5 911 c 128,-1,17
 523 883 523 883 483 840.5 c 128,-1,18
 443 798 443 798 410 729 c 128,-1,19
 377 660 377 660 362 574 c 2,20,-1
 261 0 l 1,21,-1
 134 0 l 1,22,-1
 321 1062 l 1,23,-1
 448 1062 l 1,24,-1
 414 870 l 1,25,26
 511 989 511 989 601 1037 c 128,-1,27
 691 1085 691 1085 807 1085 c 0,28,29
 869 1085 869 1085 917 1067 c 128,-1,30
 965 1049 965 1049 993.5 1017.5 c 128,-1,31
 1022 986 1022 986 1037.5 951 c 128,-1,32
 1053 916 1053 916 1059 876 c 1,33,34
 1213 1085 1213 1085 1434 1085 c 0,35,36
 1565 1085 1565 1085 1638 1024 c 128,-1,37
 1711 963 1711 963 1711 831 c 0,38,39
 1711 782 1711 782 1701 728 c 2,40,-1
 1573 0 l 1,41,-1
 1446 0 l 1,42,-1
 1563 662 l 2,43,44
 1575 731 1575 731 1575 782 c 0,45,46
 1575 879 1575 879 1527.5 920 c 128,-1,47
 1480 961 1480 961 1372 961 c 3,0,1
EndSplineSet
EndChar

StartChar: n
Encoding: 110 110 82
Width: 1137
VWidth: 2045
Flags: W
HStem: 0 21G<134 264.534 873 1003.52> 961 124<590.665 922.746> 1043 20G<317.482 448>
VStem: 995 132<467.32 889.811>
DStem2: 134 0 261 0 0.173648 0.984808<22.0533 805.009 920.697 1079.32> 873 0 1000 0 0.173648 0.984808<22.0533 746.449>
LayerCount: 3
Fore
SplineSet
985 636 m 2xd0
 991 671 995 705 995 738 c 3
 995 864 940 961 764 961 c 3xd0
 498 961 387 711 355 532 c 2
 261 0 l 1
 134 0 l 1
 321 1063 l 1
 448 1063 l 1xb0
 417 885 l 1
 540 1062 676 1085 790 1085 c 3
 1063 1085 1127 921 1127 772 c 3
 1127 734 1123 698 1117 665 c 2
 1000 0 l 1
 873 0 l 1
 985 636 l 2xd0
EndSplineSet
Validated: 1
Layer: 2
SplineSet
985 636 m 2,0,1
 995 694 995 694 995 738 c 0,2,3
 995 961 995 961 764 961 c 0,4,5
 688 961 688 961 623 933 c 128,-1,6
 558 905 558 905 514 862 c 128,-1,7
 470 819 470 819 436.5 760 c 128,-1,8
 403 701 403 701 384 645.5 c 128,-1,9
 365 590 365 590 355 532 c 2,10,-1
 261 0 l 1,11,-1
 134 0 l 1,12,-1
 321 1063 l 1,13,-1
 448 1063 l 1,14,-1
 417 885 l 1,15,16
 461 948 461 948 509.5 990.5 c 128,-1,17
 558 1033 558 1033 608 1052 c 128,-1,18
 658 1071 658 1071 699.5 1078 c 128,-1,19
 741 1085 741 1085 790 1085 c 0,20,21
 888 1085 888 1085 957 1058 c 128,-1,22
 1026 1031 1026 1031 1061.5 983.5 c 128,-1,23
 1097 936 1097 936 1112 884.5 c 128,-1,24
 1127 833 1127 833 1127 772 c 0,25,26
 1127 720 1127 720 1117 665 c 2,27,-1
 1000 0 l 1,28,-1
 873 0 l 1,29,-1
 985 636 l 2,0,1
EndSplineSet
EndChar

StartChar: o
Encoding: 111 111 83
Width: 1137
VWidth: 2045
Flags: W
HStem: -12 124<413.269 768.93> 961 124<548.481 903.293>
VStem: 148 130<246.121 663.305> 1038 129<411.631 826.445>
LayerCount: 3
Fore
SplineSet
278 430 m 3
 278 242 381 112 584 112 c 259
 847 112 1038 339 1038 641 c 3
 1038 830 936 961 733 961 c 259
 471 961 278 732 278 430 c 3
755 1085 m 3
 1016 1085 1167 934 1167 672 c 3
 1167 242 901 -12 562 -12 c 3
 300 -12 148 129 148 389 c 3
 148 818 418 1085 755 1085 c 3
EndSplineSet
Validated: 1
Layer: 2
SplineSet
278 430 m 3,0,1
 278 285 278 285 357 198.5 c 128,-1,2
 436 112 436 112 584 112 c 0,3,4
 713 112 713 112 817.5 181 c 128,-1,5
 922 250 922 250 980 371 c 128,-1,6
 1038 492 1038 492 1038 641 c 0,7,8
 1038 787 1038 787 959.5 874 c 128,-1,9
 881 961 881 961 733 961 c 0,10,11
 537 961 537 961 407.5 809 c 128,-1,12
 278 657 278 657 278 430 c 3,0,1
755 1085 m 3,13,14
 951 1085 951 1085 1059 976.5 c 128,-1,15
 1167 868 1167 868 1167 672 c 0,16,17
 1167 514 1167 514 1120 384 c 128,-1,18
 1073 254 1073 254 991.5 168 c 128,-1,19
 910 82 910 82 799.5 35 c 128,-1,20
 689 -12 689 -12 562 -12 c 0,21,22
 364 -12 364 -12 256 91.5 c 128,-1,23
 148 195 148 195 148 389 c 0,24,25
 148 546 148 546 195.5 678 c 128,-1,26
 243 810 243 810 325 898.5 c 128,-1,27
 407 987 407 987 518 1036 c 128,-1,28
 629 1085 629 1085 755 1085 c 3,13,14
EndSplineSet
EndChar

StartChar: p
Encoding: 112 112 84
Width: 1248
VWidth: 2045
Flags: W
HStem: -12 124<490.122 814.457> 961 124<615.203 936.906>
VStem: 1058 129<406.565 831.823>
DStem2: 93 -390 220 -390 0.173648 0.984808<22.0533 576.602 848.965 1216.62 1364.43 1487.72>
LayerCount: 3
Fore
SplineSet
788 961 m 259
 653 961 444 881 384 538 c 256
 377 496 373 457 373 421 c 0
 373 223 479 112 639 112 c 259
 941 112 1058 421 1058 651 c 3
 1058 870 923 961 788 961 c 259
629 -12 m 3
 478 -12 376 46 317 156 c 1
 220 -390 l 1
 93 -390 l 1
 352 1075 l 1
 479 1075 l 1
 453 932 l 1
 466 943 577 1085 792 1085 c 3
 1054 1085 1187 931 1187 681 c 3
 1187 299 962 -12 629 -12 c 3
EndSplineSet
Validated: 1
Layer: 2
SplineSet
788 961 m 259,0,1
 744 961 744 961 700 950.5 c 128,-1,2
 656 940 656 940 605 910.5 c 128,-1,3
 554 881 554 881 512.5 835.5 c 128,-1,4
 471 790 471 790 436 713 c 128,-1,5
 401 636 401 636 384 538 c 0,6,7
 373 472 373 472 373 421 c 0,8,9
 373 275 373 275 445 193.5 c 128,-1,10
 517 112 517 112 639 112 c 0,11,12
 726 112 726 112 798 146 c 128,-1,13
 870 180 870 180 917 235 c 128,-1,14
 964 290 964 290 997 362 c 128,-1,15
 1030 434 1030 434 1044 506.5 c 128,-1,16
 1058 579 1058 579 1058 651 c 0,17,18
 1058 730 1058 730 1035 791.5 c 128,-1,19
 1012 853 1012 853 973 889 c 128,-1,20
 934 925 934 925 887 943 c 128,-1,21
 840 961 840 961 788 961 c 259,0,1
629 -12 m 3,22,23
 407 -12 407 -12 317 156 c 1,24,-1
 220 -390 l 1,25,-1
 93 -390 l 1,26,-1
 352 1075 l 1,27,-1
 479 1075 l 1,28,-1
 453 932 l 2,29,30
 454 933 454 933 464.5 944 c 128,-1,31
 475 955 475 955 488.5 967.5 c 128,-1,32
 502 980 502 980 523.5 997 c 128,-1,33
 545 1014 545 1014 572.5 1028.5 c 128,-1,34
 600 1043 600 1043 632.5 1056.5 c 128,-1,35
 665 1070 665 1070 706.5 1077.5 c 128,-1,36
 748 1085 748 1085 792 1085 c 0,37,38
 985 1085 985 1085 1086 978.5 c 128,-1,39
 1187 872 1187 872 1187 681 c 0,40,41
 1187 539 1187 539 1146 412 c 128,-1,42
 1105 285 1105 285 1033 191 c 128,-1,43
 961 97 961 97 856 42.5 c 128,-1,44
 751 -12 751 -12 629 -12 c 3,22,23
EndSplineSet
EndChar

StartChar: q
Encoding: 113 113 85
Width: 1248
VWidth: 2045
Flags: W
HStem: -12 124<489.015 812.57> 961 124<638.04 949.666>
VStem: 244 131<232.193 663.224>
DStem2: 887 -390 1014 -390 0.173648 0.984808<22.0533 554.549 703.113 1065.85 1342.38 1487.72>
LayerCount: 3
Fore
SplineSet
794 961 m 259
 637 961 375 795 375 428 c 3
 375 280 431 112 645 112 c 259
 834 112 1003 266 1051 538 c 256
 1059 584 1063 626 1063 663 c 0
 1063 900 912 961 794 961 c 259
834 1085 m 3
 1049 1085 1111 943 1120 932 c 1
 1146 1075 l 1
 1273 1075 l 1
 1014 -390 l 1
 887 -390 l 1
 984 156 l 1
 887 46 762 -12 611 -12 c 3
 322 -12 244 202 244 395 c 3
 244 806 496 1085 834 1085 c 3
EndSplineSet
Validated: 1
Layer: 2
SplineSet
794 961 m 259,0,1
 745 961 745 961 690 941.5 c 128,-1,2
 635 922 635 922 578.5 878.5 c 128,-1,3
 522 835 522 835 477 774.5 c 128,-1,4
 432 714 432 714 403.5 623.5 c 128,-1,5
 375 533 375 533 375 428 c 0,6,7
 375 368 375 368 387.5 315.5 c 128,-1,8
 400 263 400 263 429 215.5 c 128,-1,9
 458 168 458 168 513 140 c 128,-1,10
 568 112 568 112 645 112 c 0,11,12
 791 112 791 112 903.5 225.5 c 128,-1,13
 1016 339 1016 339 1051 538 c 0,14,15
 1063 607 1063 607 1063 663 c 0,16,17
 1063 747 1063 747 1038.5 808.5 c 128,-1,18
 1014 870 1014 870 972 901.5 c 128,-1,19
 930 933 930 933 886.5 947 c 128,-1,20
 843 961 843 961 794 961 c 259,0,1
834 1085 m 3,21,22
 878 1085 878 1085 917 1077.5 c 128,-1,23
 956 1070 956 1070 983.5 1056.5 c 128,-1,24
 1011 1043 1011 1043 1033.5 1028.5 c 128,-1,25
 1056 1014 1056 1014 1071.5 997 c 128,-1,26
 1087 980 1087 980 1096.5 967.5 c 128,-1,27
 1106 955 1106 955 1113 943.5 c 2,28,-1
 1120 932 l 1,29,-1
 1146 1075 l 1,30,-1
 1273 1075 l 1,31,-1
 1014 -390 l 1,32,-1
 887 -390 l 1,33,-1
 984 156 l 1,34,35
 836 -12 836 -12 611 -12 c 0,36,37
 527 -12 527 -12 462 12 c 128,-1,38
 397 36 397 36 356.5 75 c 128,-1,39
 316 114 316 114 290 168.5 c 128,-1,40
 264 223 264 223 254 278 c 128,-1,41
 244 333 244 333 244 395 c 0,42,43
 244 700 244 700 411 892.5 c 128,-1,44
 578 1085 578 1085 834 1085 c 3,21,22
EndSplineSet
EndChar

StartChar: r
Encoding: 114 114 86
Width: 681
VWidth: 2045
Flags: W
HStem: 0 21G<133 263.525> 952 110<536.883 843.437>
DStem2: 133 0 260 0 0.173648 0.984808<22.0533 854.412 954.238 1078.34>
LayerCount: 3
Fore
SplineSet
422 918 m 1
 545 1054 649 1076 729 1076 c 3
 792 1076 845 1060 890 1027 c 1
 819 906 l 1
 762 937 718 952 686 952 c 3
 514 952 405 820 358 556 c 2
 260 0 l 1
 133 0 l 1
 320 1062 l 1
 447 1062 l 1
 422 918 l 1
EndSplineSet
Validated: 1
Layer: 2
SplineSet
422 918 m 1,0,1
 565 1076 565 1076 729 1076 c 0,2,3
 823 1076 823 1076 890 1027 c 1,4,-1
 819 906 l 1,5,6
 734 952 734 952 686 952 c 0,7,8
 428 952 428 952 358 556 c 2,9,-1
 260 0 l 1,10,-1
 133 0 l 1,11,-1
 320 1062 l 1,12,-1
 447 1062 l 1,13,-1
 422 918 l 1,0,1
EndSplineSet
EndChar

StartChar: s
Encoding: 115 115 87
Width: 1022
VWidth: 2045
Flags: W
HStem: -12 124<341.318 739.028> 492 124<427.293 792.009> 961 124<454.388 848.947>
VStem: 120 131<194.399 358> 224 134<679.203 880.15> 873 133<222.135 425.669> 914 129<764 899.462>
LayerCount: 3
Fore
SplineSet
661 1085 m 3xec
 989 1085 1043 916 1043 813 c 3
 1043 794 1041 777 1039 764 c 257
 912 764 l 257
 913 773 914 782 914 792 c 3
 914 863 869 961 674 961 c 259
 427 961 358 858 358 769 c 3xea
 358 700 410 624 626 616 c 256
 820 609 1006 558 1006 378 c 3
 1006 116 729 -12 532 -12 c 3
 357 -12 120 50 120 286 c 3
 120 308 122 332 127 358 c 257
 254 358 l 257
 252 345 251 331 251 319 c 3xf4
 251 189 354 112 516 112 c 3
 670 112 873 171 873 331 c 3
 873 428 769 486 608 492 c 256
 398 500 224 545 224 719 c 3
 224 965 466 1085 661 1085 c 3xec
EndSplineSet
Validated: 1
Layer: 2
SplineSet
661 1085 m 3,0,1
 755 1085 755 1085 826.5 1066 c 128,-1,2
 898 1047 898 1047 938 1019 c 128,-1,3
 978 991 978 991 1002.5 952.5 c 128,-1,4
 1027 914 1027 914 1035 881 c 128,-1,5
 1043 848 1043 848 1043 813 c 0,6,7
 1043 790 1043 790 1039 764 c 1,8,-1
 912 764 l 257,9,10
 914 782 914 782 914 792 c 0,11,12
 914 822 914 822 903.5 849 c 128,-1,13
 893 876 893 876 868 902.5 c 128,-1,14
 843 929 843 929 793 945 c 128,-1,15
 743 961 743 961 674 961 c 0,16,17
 586 961 586 961 521.5 944 c 128,-1,18
 457 927 457 927 423 898 c 128,-1,19
 389 869 389 869 373.5 837 c 128,-1,20
 358 805 358 805 358 769 c 0,21,22
 358 741 358 741 370 717 c 128,-1,23
 382 693 382 693 410.5 670 c 128,-1,24
 439 647 439 647 494 633 c 128,-1,25
 549 619 549 619 626 616 c 0,26,27
 1006 602 1006 602 1006 378 c 0,28,29
 1006 303 1006 303 975.5 237.5 c 128,-1,30
 945 172 945 172 896 127 c 128,-1,31
 847 82 847 82 784 50 c 128,-1,32
 721 18 721 18 657 3 c 128,-1,33
 593 -12 593 -12 532 -12 c 0,34,35
 475 -12 475 -12 421.5 -4 c 128,-1,36
 368 4 368 4 312 25 c 128,-1,37
 256 46 256 46 214.5 78.5 c 128,-1,38
 173 111 173 111 146.5 164.5 c 128,-1,39
 120 218 120 218 120 286 c 0,40,41
 120 322 120 322 127 358 c 1,42,-1
 254 358 l 257,43,44
 251 339 251 339 251 319 c 0,45,46
 251 222 251 222 322.5 167 c 128,-1,47
 394 112 394 112 516 112 c 0,48,49
 577 112 577 112 637 124 c 128,-1,50
 697 136 697 136 751.5 161 c 128,-1,51
 806 186 806 186 839.5 230 c 128,-1,52
 873 274 873 274 873 331 c 0,53,54
 873 403 873 403 801.5 445 c 128,-1,55
 730 487 730 487 608 492 c 0,56,57
 523 495 523 495 458.5 506.5 c 128,-1,58
 394 518 394 518 338.5 542.5 c 128,-1,59
 283 567 283 567 253.5 611.5 c 128,-1,60
 224 656 224 656 224 719 c 0,61,62
 224 807 224 807 264.5 879 c 128,-1,63
 305 951 305 951 370 994.5 c 128,-1,64
 435 1038 435 1038 510 1061.5 c 128,-1,65
 585 1085 585 1085 661 1085 c 3,0,1
EndSplineSet
EndChar

StartChar: t
Encoding: 116 116 88
Width: 568
VWidth: 2045
Flags: W
HStem: -12 124<347.573 552.974> 936 124<205 332 481 662>
VStem: 207 130<123.159 477.75>
DStem2: 165.046 -12 291.694 -12 0.173648 0.984808<246.785 962.589 1110.58 1466.33>
LayerCount: 3
Fore
SplineSet
410 -12 m 3
 269 -12 207 29 207 166 c 3
 207 206 212 254 222 311 c 2
 332 936 l 1
 183 936 l 1
 205 1060 l 1
 354 1060 l 1
 420 1432 l 1
 546 1432 l 1
 481 1060 l 1
 684 1060 l 1
 662 936 l 1
 459 936 l 1
 349 313 l 2
 341 269 337 234 337 207 c 3
 337 124 376 112 468 112 c 3
 495 112 525 118 559 124 c 1
 554 3 l 1
 505 -7 457 -12 410 -12 c 3
EndSplineSet
Validated: 1
Layer: 2
SplineSet
410 -12 m 3,0,1
 301 -12 301 -12 254 27 c 128,-1,2
 207 66 207 66 207 166 c 0,3,4
 207 225 207 225 222 311 c 2,5,-1
 332 936 l 1,6,-1
 183 936 l 1,7,-1
 205 1060 l 1,8,-1
 354 1060 l 1,9,-1
 420 1432 l 1,10,-1
 546 1432 l 1,11,-1
 481 1060 l 1,12,-1
 684 1060 l 1,13,-1
 662 936 l 1,14,-1
 459 936 l 1,15,-1
 349 313 l 2,16,17
 337 247 337 247 337 207 c 0,18,19
 337 148 337 148 365.5 130 c 128,-1,20
 394 112 394 112 468 112 c 0,21,22
 491 112 491 112 559 124 c 1,23,-1
 554 3 l 1,24,25
 480.5 -12 480.5 -12 410 -12 c 3,0,1
EndSplineSet
EndChar

StartChar: u
Encoding: 117 117 89
Width: 1137
VWidth: 2045
Flags: W
HStem: -12 124<391.475 729.711> 1040 20G<287.46 418 1025.48 1156>
VStem: 166 130<204.599 474.809>
DStem2: 101.53 -12 228.472 -12 0.173648 0.984808<380.362 1088.62> 839.884 -12 966.884 -12 0.173648 0.984808<34.2384 134.993 255.246 1088.55>
LayerCount: 3
Fore
SplineSet
863 121 m 1
 736 5 689 -12 535 -12 c 3
 246 -12 166 149 166 307 c 3
 166 338 169 369 174 399 c 2
 291 1060 l 1
 418 1060 l 1
 302 405 l 2
 298 381 296 359 296 339 c 3
 296 161 446 112 554 112 c 3
 755 112 888 259 913 400 c 2
 1029 1060 l 1
 1156 1060 l 1
 969 0 l 1
 842 0 l 1
 863 121 l 1
EndSplineSet
Validated: 1
Layer: 2
SplineSet
863 121 m 1,0,1
 769 35 769 35 710.5 11.5 c 128,-1,2
 652 -12 652 -12 535 -12 c 0,3,4
 431 -12 431 -12 356 15 c 128,-1,5
 281 42 281 42 241.5 89 c 128,-1,6
 202 136 202 136 184 189.5 c 128,-1,7
 166 243 166 243 166 307 c 0,8,9
 166 351 166 351 174 399 c 2,10,-1
 291 1060 l 1,11,-1
 418 1060 l 1,12,-1
 302 405 l 2,13,14
 296 369 296 369 296 339 c 0,15,16
 296 288 296 288 312.5 247.5 c 128,-1,17
 329 207 329 207 355.5 182 c 128,-1,18
 382 157 382 157 417 141 c 128,-1,19
 452 125 452 125 485.5 118.5 c 128,-1,20
 519 112 519 112 554 112 c 0,21,22
 696 112 696 112 794.5 199 c 128,-1,23
 893 286 893 286 913 400 c 2,24,-1
 1029 1060 l 1,25,-1
 1156 1060 l 1,26,-1
 969 0 l 1,27,-1
 842 0 l 1,28,-1
 863 121 l 1,0,1
EndSplineSet
EndChar

StartChar: v
Encoding: 118 118 90
Width: 1022
VWidth: 2045
Flags: W
HStem: 0 21G<446.509 587.509> 1040 20G<213 353.415 1038.78 1186>
DStem2: 349 1060 213 1060 0.219074 -0.975708<0 918.587> 547 163 576 0 0.498778 0.86673<0 1028.34>
LayerCount: 3
Fore
SplineSet
451 0 m 1
 213 1060 l 1
 349 1060 l 1
 547 163 l 1
 1050 1060 l 1
 1186 1060 l 1
 576 0 l 1
 451 0 l 1
EndSplineSet
Validated: 1
Layer: 2
SplineSet
451 0 m 1,0,-1
 213 1060 l 1,1,-1
 349 1060 l 1,2,-1
 547 163 l 1,3,-1
 1050 1060 l 1,4,-1
 1186 1060 l 1,5,-1
 576 0 l 1,6,-1
 451 0 l 1,0,-1
EndSplineSet
EndChar

StartChar: w
Encoding: 119 119 91
Width: 1477
VWidth: 2045
Flags: W
HStem: 0 21G<328.396 482.126 971.609 1125.06> 1040 20G<193 328.319 824.014 967.453 1465.1 1596>
DStem2: 326 1060 193 1060 0.129099 -0.991632<0 902.92> 430 163 473 0 0.409815 0.912169<0 825.222> 965 1060 870 870 0.121719 -0.992565<177.024 903.719> 1075 163 1116 0 0.412508 0.910954<0 981.716>
LayerCount: 3
Fore
SplineSet
870 870 m 17
 473 0 l 1
 331 0 l 1
 193 1060 l 1
 326 1060 l 1
 430 163 l 1
 833 1060 l 1
 965 1060 l 1
 1075 163 l 1
 1474 1060 l 1
 1596 1060 l 1
 1116 0 l 1
 974 0 l 9
 870 870 l 17
EndSplineSet
Validated: 1
Layer: 2
SplineSet
870 870 m 17,0,-1
 473 0 l 1,1,-1
 331 0 l 1,2,-1
 193 1060 l 1,3,-1
 326 1060 l 1,4,-1
 430 163 l 1,5,-1
 833 1060 l 1,6,-1
 965 1060 l 1,7,-1
 1075 163 l 1,8,-1
 1474 1060 l 1,9,-1
 1596 1060 l 1,10,-1
 1116 0 l 1,11,-1
 974 0 l 1,12,-1
 870 870 l 17,0,-1
EndSplineSet
EndChar

StartChar: x
Encoding: 120 120 92
Width: 1022
VWidth: 2045
Flags: W
HStem: 0 21G<15 183.151 845.387 1007> 1040 20G<231 398.949 1001.15 1167>
DStem2: 15 0 165 0 0.68839 0.725341<103.258 103.258 882.403 1461.38> 388 1060 231 1060 0.50851 -0.861056<0 468.309 613.522 1151.21>
LayerCount: 3
Fore
SplineSet
15 0 m 1
 531 553 l 1
 231 1060 l 1
 388 1060 l 1
 613 649 l 1
 1021 1060 l 1
 1167 1060 l 1
 666 562 l 1
 1007 0 l 1
 857 0 l 1
 587 465 l 1
 165 0 l 1
 15 0 l 1
EndSplineSet
Validated: 1
Layer: 2
SplineSet
15 0 m 1,0,-1
 531 553 l 1,1,-1
 231 1060 l 1,2,-1
 388 1060 l 1,3,-1
 613 649 l 1,4,-1
 1021 1060 l 1,5,-1
 1167 1060 l 1,6,-1
 666 562 l 1,7,-1
 1007 0 l 1,8,-1
 857 0 l 1,9,-1
 587 465 l 1,10,-1
 165 0 l 1,11,-1
 15 0 l 1,0,-1
EndSplineSet
EndChar

StartChar: y
Encoding: 121 121 93
Width: 1022
VWidth: 2045
Flags: W
HStem: -435 124<60.293 306.873> 1040 20G<221 364.896 1054.31 1192>
DStem2: 361 1060 221 1060 0.196492 -0.980505<0 983.128> 549 95 575 -95 0.471183 0.882036<0 1094.29>
LayerCount: 3
Fore
SplineSet
53 -420 m 1
 61 -296 l 1
 94 -305 126 -311 158 -311 c 3
 287 -311 435 -214 435 -40 c 3
 435 -17 430 15 422 57 c 2
 221 1060 l 1
 361 1060 l 1
 549 95 l 1
 1065 1060 l 1
 1192 1060 l 1
 575 -95 l 2
 495 -245 367 -435 131 -435 c 3
 105 -435 80 -430 53 -420 c 1
EndSplineSet
Validated: 1
Layer: 2
SplineSet
53 -420 m 1,0,-1
 61 -296 l 1,1,2
 116 -311 116 -311 158 -311 c 0,3,4
 225 -311 225 -311 287 -280.5 c 128,-1,5
 349 -250 349 -250 392 -186.5 c 128,-1,6
 435 -123 435 -123 435 -40 c 0,7,8
 435 -11 435 -11 422 57 c 2,9,-1
 221 1060 l 1,10,-1
 361 1060 l 1,11,-1
 549 95 l 1,12,-1
 1065 1060 l 1,13,-1
 1192 1060 l 1,14,-1
 575 -95 l 2,15,16
 547 -147 547 -147 520.5 -188.5 c 128,-1,17
 494 -230 494 -230 452 -278.5 c 128,-1,18
 410 -327 410 -327 366 -359 c 128,-1,19
 322 -391 322 -391 260.5 -413 c 128,-1,20
 199 -435 199 -435 131 -435 c 0,21,22
 94 -435 94 -435 53 -420 c 1,0,-1
EndSplineSet
EndChar

StartChar: z
Encoding: 122 122 94
Width: 1022
VWidth: 2045
Flags: W
HStem: 0 124<208 979> 936 124<248 956>
DStem2: 62 124 208 124 0.743949 0.668237<108.616 1207.7>
LayerCount: 3
Fore
SplineSet
40 0 m 1
 62 124 l 1
 956 936 l 1
 226 936 l 1
 248 1060 l 1
 1134 1060 l 1
 1112 936 l 1
 208 124 l 1
 1001 124 l 1
 979 0 l 1
 40 0 l 1
EndSplineSet
Validated: 1
Layer: 2
SplineSet
40 0 m 1,0,-1
 62 124 l 1,1,-1
 956 936 l 1,2,-1
 226 936 l 1,3,-1
 248 1060 l 1,4,-1
 1134 1060 l 1,5,-1
 1112 936 l 1,6,-1
 208 124 l 1,7,-1
 1001 124 l 1,8,-1
 979 0 l 1,9,-1
 40 0 l 1,0,-1
EndSplineSet
EndChar

StartChar: braceleft
Encoding: 123 123 95
Width: 681
VWidth: 2045
Flags: W
HStem: -430 124<382.902 558> 449 163<166 261.755> 1366 124<671.152 875>
VStem: 241 127<-289.228 130.094> 299 127<-66.2384 410.734>
LayerCount: 3
Fore
SplineSet
426 274 m 3xe8
 426 154 368 -104 368 -189 c 3
 368 -278 402 -306 498 -306 c 2
 580 -306 l 1
 558 -430 l 1
 503 -430 l 2
 300 -430 241 -359 241 -213 c 3xf0
 241 -94 299 149 299 274 c 3
 299 383 261 446 137 449 c 1
 166 612 l 1
 365 615 400 784 440 997 c 0
 493 1286 523 1490 823 1490 c 2
 897 1490 l 1
 875 1366 l 1
 793 1366 l 2
 637 1366 614 1268 581 1080 c 0
 526 768 500 629 277 530 c 1
 386 480 426 399 426 274 c 3xe8
EndSplineSet
Validated: 1
Layer: 2
SplineSet
426 274 m 3,0,1
 426 210 426 210 397 29.5 c 128,-1,2
 368 -151 368 -151 368 -189 c 0,3,4
 368 -255 368 -255 396.5 -280.5 c 128,-1,5
 425 -306 425 -306 498 -306 c 2,6,-1
 580 -306 l 1,7,-1
 558 -430 l 1,8,-1
 503 -430 l 2,9,10
 356 -430 356 -430 298.5 -378.5 c 128,-1,11
 241 -327 241 -327 241 -213 c 0,12,13
 241 -154 241 -154 270 28.5 c 128,-1,14
 299 211 299 211 299 274 c 0,15,16
 299 360 299 360 262.5 403.5 c 128,-1,17
 226 447 226 447 137 449 c 1,18,-1
 166 612 l 1,19,20
 203 613 203 613 233.5 620 c 128,-1,21
 264 627 264 627 287.5 644 c 128,-1,22
 311 661 311 661 329.5 678.5 c 128,-1,23
 348 696 348 696 363 726.5 c 128,-1,24
 378 757 378 757 388 781.5 c 128,-1,25
 398 806 398 806 408.5 848 c 128,-1,26
 419 890 419 890 425 918.5 c 128,-1,27
 431 947 431 947 440 997 c 0,28,29
 476.915166433 1198.29213395 476.915166433 1198.29213395 501.299862029 1268.60379211 c 0,30,31
 549.572532068 1407.79484583 549.572532068 1407.79484583 649.689043135 1456.43442875 c 0,32,33
 719.618434821 1489.80501312 719.618434821 1489.80501312 823 1490 c 2,34,-1
 897 1490 l 1,35,-1
 875 1366 l 1,36,-1
 793 1366 l 2,37,38
 760 1366 760 1366 734 1359.5 c 128,-1,39
 708 1353 708 1353 689 1343 c 128,-1,40
 670 1333 670 1333 654.5 1312 c 128,-1,41
 639 1291 639 1291 629 1272 c 128,-1,42
 619 1253 619 1253 610 1218.5 c 128,-1,43
 601 1184 601 1184 595 1156 c 128,-1,44
 589 1128 589 1128 581 1080 c 0,45,46
 568 1006 568 1006 561 969.5 c 128,-1,47
 554 933 554 933 542 877.5 c 128,-1,48
 530 822 530 822 519.5 794 c 128,-1,49
 509 766 509 766 492 726 c 128,-1,50
 475 686 475 686 456.5 664 c 128,-1,51
 438 642 438 642 411.5 615 c 128,-1,52
 385 588 385 588 352 568.5 c 128,-1,53
 319 549 319 549 277 530 c 1,54,55
 357 493 357 493 391.5 431.5 c 128,-1,56
 426 370 426 370 426 274 c 3,0,1
EndSplineSet
EndChar

StartChar: bar
Encoding: 124 124 96
Width: 454
VWidth: 2045
Flags: W
HStem: -430 21G<85 215.533>
VStem: 85 466
DStem2: 85 -430 212 -430 0.173648 0.984808<22.0533 1948.71>
LayerCount: 3
Fore
SplineSet
85 -430 m 1
 424 1489 l 1
 551 1489 l 1
 212 -430 l 1
 85 -430 l 1
EndSplineSet
Validated: 1
Layer: 2
SplineSet
85 -430 m 1,0,-1
 424 1489 l 1,1,-1
 551 1489 l 1,2,-1
 212 -430 l 1,3,-1
 85 -430 l 1,0,-1
EndSplineSet
EndChar

StartChar: braceright
Encoding: 125 125 97
Width: 681
VWidth: 2045
Flags: W
HStem: -430 124<4 217.609> 449 163<618.597 713> 1366 124<321 495.021>
VStem: 452 128<651.384 1092.56> 512 127<944.813 1347.49>
LayerCount: 3
Fore
SplineSet
639 1272 m 3xe8
 639 1146 580 927 580 790 c 3
 580 684 616 614 742 612 c 1
 713 449 l 1
 517 444 482 295 436 48 c 0
 377 -275 337 -430 37 -430 c 2
 -18 -430 l 1
 4 -306 l 1
 86 -306 l 2
 246 -306 261 -227 315 80 c 0
 357 321 417 458 601 530 c 1
 489 589 452 662 452 777 c 3xf0
 452 879 512 1118 512 1246 c 3
 512 1325 482 1366 381 1366 c 2
 299 1366 l 1
 321 1490 l 1
 395 1490 l 2
 586 1490 639 1407 639 1272 c 3xe8
EndSplineSet
Validated: 1
Layer: 2
SplineSet
639 1272 m 3,0,1
 639 1210 639 1210 609.5 1035 c 128,-1,2
 580 860 580 860 580 790 c 0,3,4
 580 704 580 704 616.5 658.5 c 128,-1,5
 653 613 653 613 742 612 c 1,6,-1
 713 449 l 1,7,8
 681 448 681 448 653.5 441.5 c 128,-1,9
 626 435 626 435 604.5 425.5 c 128,-1,10
 583 416 583 416 564.5 397.5 c 128,-1,11
 546 379 546 379 532 361.5 c 128,-1,12
 518 344 518 344 505.5 315 c 128,-1,13
 493 286 493 286 484.5 261.5 c 128,-1,14
 476 237 476 237 466.5 197.5 c 128,-1,15
 457 158 457 158 451 127 c 128,-1,16
 445 96 445 96 436 48 c 0,17,18
 425 -15 425 -15 417 -54 c 128,-1,19
 409 -93 409 -93 396.5 -142 c 128,-1,20
 384 -191 384 -191 372.5 -220 c 128,-1,21
 361 -249 361 -249 344 -283.5 c 128,-1,22
 327 -318 327 -318 307.5 -337.5 c 128,-1,23
 288 -357 288 -357 261 -377.5 c 128,-1,24
 234 -398 234 -398 201.5 -407.5 c 128,-1,25
 169 -417 169 -417 128 -423.5 c 128,-1,26
 87 -430 87 -430 37 -430 c 2,27,-1
 -18 -430 l 1,28,-1
 4 -306 l 1,29,-1
 86 -306 l 2,30,31
 199 -306 199 -306 235 -237.5 c 128,-1,32
 271 -169 271 -169 315 80 c 0,33,34
 337 209 337 209 367 290 c 128,-1,35
 397 371 397 371 454 433 c 128,-1,36
 511 495 511 495 601 530 c 1,37,38
 519 573 519 573 485.5 630.5 c 128,-1,39
 452 688 452 688 452 777 c 0,40,41
 452 825 452 825 482 1002 c 128,-1,42
 512 1179 512 1179 512 1246 c 0,43,44
 512 1308 512 1308 483 1337 c 128,-1,45
 454 1366 454 1366 381 1366 c 2,46,-1
 299 1366 l 1,47,-1
 321 1490 l 1,48,-1
 395 1490 l 2,49,50
 531 1490 531 1490 585 1435.5 c 128,-1,51
 639 1381 639 1381 639 1272 c 3,0,1
EndSplineSet
EndChar

StartChar: asciitilde
Encoding: 126 126 98
Width: 1350
VWidth: 2045
Flags: W
HStem: 565 124<896.124 1203.03> 698 124<401.631 723.677>
LayerCount: 3
Fore
SplineSet
554 698 m 3
 450 698 381 653 270 562 c 1
 295 704 l 1
 380 783 479 822 593 822 c 3
 786 822 921 689 1057 689 c 3
 1159 689 1277 771 1337 825 c 1
 1312 680 l 1
 1211 599 1125 565 1016 565 c 3
 815 565 722 698 554 698 c 3
EndSplineSet
Validated: 1
Layer: 2
SplineSet
554 698 m 3,0,1
 481 698 481 698 421 667.5 c 128,-1,2
 361 637 361 637 270 562 c 1,3,-1
 295 704 l 1,4,5
 422 822 422 822 593 822 c 0,6,7
 658 822 658 822 727.5 801 c 128,-1,8
 797 780 797 780 846.5 755.5 c 128,-1,9
 896 731 896 731 954 710 c 128,-1,10
 1012 689 1012 689 1057 689 c 0,11,12
 1126 689 1126 689 1203 731 c 128,-1,13
 1280 773 1280 773 1337 825 c 1,14,-1
 1312 680 l 1,15,16
 1236 619 1236 619 1166.5 592 c 128,-1,17
 1097 565 1097 565 1016 565 c 0,18,19
 949 565 949 565 883 586 c 128,-1,20
 817 607 817 607 772.5 631.5 c 128,-1,21
 728 656 728 656 669 677 c 128,-1,22
 610 698 610 698 554 698 c 3,0,1
EndSplineSet
EndChar

StartChar: exclamdown
Encoding: 161 161 100
Width: 681
VWidth: 2045
Flags: W
HStem: 0 21G<213 365.54> 1064 20G<435.348 516> 1257 193<462 591>
VStem: 440 76<1022.36 1084>
DStem2: 213 0 362 0 0.173648 0.984808<25.8736 821.464 1303.54 1471.21>
LayerCount: 3
Fore
SplineSet
442 452 m 1
 362 0 l 1
 213 0 l 1
 293 452 l 1
 440 1084 l 1
 516 1084 l 1
 442 452 l 1
591 1257 m 1
 428 1257 l 1
 462 1450 l 1
 625 1450 l 1
 591 1257 l 1
EndSplineSet
Validated: 1
Layer: 2
SplineSet
442 452 m 1,0,-1
 362 0 l 1,1,-1
 213 0 l 1,2,-1
 293 452 l 1,3,-1
 440 1084 l 1,4,-1
 516 1084 l 1,5,-1
 442 452 l 1,0,-1
591 1257 m 1,6,-1
 428 1257 l 1,7,-1
 462 1450 l 1,8,-1
 625 1450 l 1,9,-1
 591 1257 l 1,6,-1
EndSplineSet
EndChar

StartChar: cent
Encoding: 162 162 101
Width: 1178
VWidth: 2045
Flags: W
HStem: -9 126<454.565 544 693 888.266> 976 125<592.998 718 868 1036.94> 1446 20G<800.493 931>
VStem: 196 130<248.398 668.755>
DStem2: 481 -369 608 -369 0.173648 0.984808<22.0533 365.471 512.476 1365.72 1517.82 1863.21>
LayerCount: 3
Fore
SplineSet
608 -369 m 1
 481 -369 l 1
 544 -9 l 1
 317 15 196 173 196 406 c 3
 196 784 445 1065 740 1101 c 1
 804 1466 l 1
 931 1466 l 1
 868 1104 l 1
 978 1100 1056 1082 1155 1024 c 1
 1126 863 l 1
 1116 863 l 1
 1075 931 975 970 846 979 c 1
 693 114 l 1
 821 124 925 164 1005 231 c 1
 1015 231 l 1
 987 71 l 1
 839 7 764 -8 671 -11 c 1
 608 -369 l 1
567 117 m 1
 718 976 l 1
 509 946 326 744 326 434 c 3
 326 257 414 141 567 117 c 1
EndSplineSet
Validated: 1
Layer: 2
SplineSet
608 -369 m 1,0,-1
 481 -369 l 1,1,-1
 544 -9 l 1,2,3
 376 9 376 9 286 119 c 128,-1,4
 196 229 196 229 196 406 c 0,5,6
 196 544 196 544 239.5 668.5 c 128,-1,7
 283 793 283 793 357 882.5 c 128,-1,8
 431 972 431 972 530.5 1030 c 128,-1,9
 630 1088 630 1088 740 1101 c 1,10,-1
 804 1466 l 1,11,-1
 931 1466 l 1,12,-1
 868 1104 l 1,13,14
 954 1101 954 1101 1018.5 1083.5 c 128,-1,15
 1083 1066 1083 1066 1155 1024 c 1,16,-1
 1126 863 l 1,17,-1
 1116 863 l 1,18,19
 1055 964 1055 964 846 979 c 1,20,-1
 693 114 l 1,21,22
 883 129 883 129 1005 231 c 1,23,-1
 1015 231 l 1,24,-1
 987 71 l 1,25,26
 881 25 881 25 813 8 c 128,-1,27
 745 -9 745 -9 671 -11 c 1,28,-1
 608 -369 l 1,0,-1
567 117 m 1,29,-1
 718 976 l 1,30,31
 554 952 554 952 440 805 c 128,-1,32
 326 658 326 658 326 434 c 0,33,34
 326 301 326 301 389 218 c 128,-1,35
 452 135 452 135 567 117 c 1,29,-1
EndSplineSet
EndChar

StartChar: sterling
Encoding: 163 163 102
Width: 1115
VWidth: 2045
Flags: W
HStem: 0 160<116 205.684> 0 124<250 1031> 620 124<261 431 580 955> 1305 165<1148.9 1230> 1392 124<801.449 1153.08>
DStem2: 321.677 0 449.491 0 0.173648 0.984808<365.648 629.565 777.554 1328.01>
LayerCount: 3
Fore
SplineSet
547 553 m 2x28
 517 371 381 204 252 134 c 1
 250 124 l 1
 1053 124 l 1
 1031 0 l 1
 88 0 l 1x68
 116 160 l 1
 288 209 393 403 431 620 c 1
 239 620 l 1
 261 744 l 1
 453 744 l 1
 511 1071 l 2
 559 1341 726 1516 974 1516 c 3xa8
 1062 1516 1109 1512 1259 1470 c 1
 1230 1305 l 1
 1221 1305 l 1x30
 1158 1352 1075 1392 971 1392 c 3
 873 1392 688 1355 642 1093 c 2
 580 744 l 1
 977 744 l 1
 955 620 l 1
 558 620 l 1
 547 553 l 2x28
EndSplineSet
Validated: 1
Layer: 2
SplineSet
547 553 m 2,0,1
 525 422 525 422 439.5 305.5 c 128,-1,2
 354 189 354 189 252 134 c 1,3,-1
 250 124 l 1,4,-1
 1053 124 l 1,5,-1
 1031 0 l 1,6,-1
 88 0 l 1,7,-1
 116 160 l 1,8,9
 239 195 239 195 320 321 c 128,-1,10
 401 447 401 447 431 620 c 1,11,-1
 239 620 l 1,12,-1
 261 744 l 1,13,-1
 453 744 l 1,14,-1
 511 1071 l 2,15,16
 548 1277 548 1277 669.5 1396.5 c 128,-1,17
 791 1516 791 1516 974 1516 c 0,18,19
 1045 1516 1045 1516 1098.5 1508 c 128,-1,20
 1152 1500 1152 1500 1259 1470 c 1,21,-1
 1230 1305 l 1,22,-1
 1221 1305 l 1,23,24
 1104 1392 1104 1392 971 1392 c 0,25,26
 937 1392 937 1392 903.5 1386.5 c 128,-1,27
 870 1381 870 1381 826.5 1362 c 128,-1,28
 783 1343 783 1343 749 1312 c 128,-1,29
 715 1281 715 1281 685 1224.5 c 128,-1,30
 655 1168 655 1168 642 1093 c 2,31,-1
 580 744 l 1,32,-1
 977 744 l 1,33,-1
 955 620 l 1,34,-1
 558 620 l 1,35,-1
 547 553 l 2,0,1
EndSplineSet
EndChar

StartChar: currency
Encoding: 164 164 103
Width: 1115
VWidth: 2045
Flags: W
HStem: 326 124<518.572 778.053> 873 124<575.116 834.94>
VStem: 338 128<501.316 763.069> 888 128<561.59 821.711>
DStem2: 112 272 200 163 0.760494 0.649345<0 343.566 1022.53 1363.68> 375 1157 249 1051 0.636318 -0.771427<1.59515 288.131 862.822 1145.95>
LayerCount: 3
Fore
SplineSet
1016 718 m 3
 1016 617 976 547 929 486 c 1
 1103 272 l 1
 979 166 l 1
 801 378 l 1
 746 348 687 326 617 326 c 3
 547 326 498 349 453 379 c 1
 200 163 l 1
 112 272 l 1
 363 486 l 1
 348 522 338 561 338 606 c 3
 338 707 377 773 424 834 c 1
 249 1051 l 1
 375 1157 l 1
 552 942 l 1
 607 972 666 997 736 997 c 3
 806 997 856 976 901 946 c 1
 1151 1157 l 1
 1240 1051 l 1
 991 837 l 1
 1006 801 1016 763 1016 718 c 3
714 873 m 3
 587 873 466 766 466 621 c 3
 466 522 534 450 639 450 c 3
 766 450 888 557 888 702 c 3
 888 801 819 873 714 873 c 3
EndSplineSet
Validated: 1
Layer: 2
SplineSet
1016 718 m 3,0,1
 1016 599 1016 599 929 486 c 1,2,-1
 1103 272 l 1,3,-1
 979 166 l 1,4,-1
 801 378 l 1,5,6
 706 326 706 326 617 326 c 0,7,8
 532 326 532 326 453 379 c 1,9,-1
 200 163 l 1,10,-1
 112 272 l 1,11,-1
 363 486 l 1,12,13
 338 546 338 546 338 606 c 0,14,15
 338 675 338 675 360.5 727.5 c 128,-1,16
 383 780 383 780 424 834 c 1,17,-1
 249 1051 l 1,18,-1
 375 1157 l 1,19,-1
 552 942 l 1,20,21
 653 997 653 997 736 997 c 0,22,23
 824 997 824 997 901 946 c 1,24,-1
 1151 1157 l 1,25,-1
 1240 1051 l 1,26,-1
 991 837 l 1,27,28
 1016 777 1016 777 1016 718 c 3,0,1
714 873 m 3,29,30
 616 873 616 873 541 800 c 128,-1,31
 466 727 466 727 466 621 c 0,32,33
 466 546 466 546 513.5 498 c 128,-1,34
 561 450 561 450 639 450 c 0,35,36
 737 450 737 450 812.5 523 c 128,-1,37
 888 596 888 596 888 702 c 0,38,39
 888 777 888 777 840 825 c 128,-1,40
 792 873 792 873 714 873 c 3,29,30
EndSplineSet
EndChar

StartChar: yen
Encoding: 165 165 104
Width: 1115
VWidth: 2045
Flags: W
HStem: 0 21G<495 625.535> 447 124<226 574 720 1070>
DStem2: 528 1489 350 1489 0.303487 -0.952836<0 665.049> 495 0 622 0 0.173648 0.984808<22.0533 453.927 601.396 667.856> 710 849 738 677 0.562199 0.827002<0 759.783>
LayerCount: 3
Fore
SplineSet
1290 1489 m 1
 738 677 l 1
 720 571 l 1
 1092 571 l 1
 1070 447 l 1
 701 447 l 1
 622 0 l 1
 495 0 l 1
 574 447 l 1
 204 447 l 1
 226 571 l 1
 600 571 l 1
 615 657 l 1
 350 1489 l 1
 528 1489 l 1
 710 849 l 1
 1120 1489 l 1
 1290 1489 l 1
EndSplineSet
Validated: 1
Layer: 2
SplineSet
1290 1489 m 1,0,-1
 738 677 l 1,1,-1
 720 571 l 1,2,-1
 1092 571 l 1,3,-1
 1070 447 l 1,4,-1
 701 447 l 1,5,-1
 622 0 l 1,6,-1
 495 0 l 1,7,-1
 574 447 l 1,8,-1
 204 447 l 1,9,-1
 226 571 l 1,10,-1
 600 571 l 1,11,-1
 615 657 l 1,12,-1
 350 1489 l 1,13,-1
 528 1489 l 1,14,-1
 710 849 l 1,15,-1
 1120 1489 l 1,16,-1
 1290 1489 l 1,0,-1
EndSplineSet
EndChar

StartChar: brokenbar
Encoding: 166 166 105
Width: 780
VWidth: 2045
Flags: W
VStem: 259 470
DStem2: 259 -393 386 -393 0.173648 0.984808<22.0533 810.187 1190.82 1978.95>
LayerCount: 3
Fore
SplineSet
589 758 m 1
 462 758 l 1
 602 1556 l 1
 729 1556 l 1
 589 758 l 1
386 -393 m 1
 259 -393 l 1
 399 405 l 1
 526 405 l 1
 386 -393 l 1
EndSplineSet
Validated: 1
Layer: 2
SplineSet
589 758 m 1,0,-1
 462 758 l 1,1,-1
 602 1556 l 1,2,-1
 729 1556 l 1,3,-1
 589 758 l 1,0,-1
386 -393 m 1,4,-1
 259 -393 l 1,5,-1
 399 405 l 1,6,-1
 526 405 l 1,7,-1
 386 -393 l 1,4,-1
EndSplineSet
EndChar

StartChar: section
Encoding: 167 167 106
Width: 1115
VWidth: 2045
Flags: W
HStem: -378 136<240.512 666.728> 1374 136<644.747 1083.62>
VStem: 228 155<411.186 644.901> 366 153<1025.27 1260.15> 798 152<-128.774 106.501> 933 155<486.579 718.46>
DStem2: 546 348 500 206 0.949224 -0.3146<-160.377 215.062> 684 966 595 842 0.953994 -0.299827<-84.4123 289.54>
LayerCount: 3
Fore
SplineSet
595 842 m 1xe4
 507 794 383 692 383 526 c 3
 383 419 456 378 546 348 c 2
 721 290 l 1
 878 389 933 479 933 606 c 3
 933 680 895 747 770 787 c 2
 595 842 l 1xe4
1088 665 m 3
 1088 429 891 322 806 266 c 1
 872 227 950 183 950 57 c 3
 950 -138 808 -378 422 -378 c 3
 307 -378 225 -360 135 -325 c 1
 163 -162 l 1
 311 -240 418 -242 461 -242 c 3
 593 -242 798 -190 798 6 c 3
 798 98 731 137 627 168 c 2
 500 206 l 2
 354 250 228 307 228 467 c 3xe8
 228 614 303 745 512 865 c 1
 450 905 366 953 366 1082 c 3
 366 1275 500 1510 894 1510 c 3
 983 1510 1077 1497 1182 1461 c 1
 1153 1297 l 1
 1063 1345 975 1374 849 1374 c 3
 726 1374 519 1327 519 1129 c 3xd0
 519 1040 576 997 684 966 c 2
 816 928 l 2
 981 880 1088 811 1088 665 c 3
EndSplineSet
Validated: 1
Layer: 2
SplineSet
595 842 m 1,0,1
 558 822 558 822 524 795 c 128,-1,2
 490 768 490 768 456.5 729 c 128,-1,3
 423 690 423 690 403 637.5 c 128,-1,4
 383 585 383 585 383 526 c 0,5,6
 383 452 383 452 425 413 c 128,-1,7
 467 374 467 374 546 348 c 2,8,-1
 721 290 l 1,9,10
 837 363 837 363 885 436 c 128,-1,11
 933 509 933 509 933 606 c 0,12,13
 933 735 933 735 770 787 c 2,14,-1
 595 842 l 1,0,1
1088 665 m 3,15,16
 1088 631 1088 631 1082 598 c 128,-1,17
 1076 565 1076 565 1067.5 538.5 c 128,-1,18
 1059 512 1059 512 1043 485 c 128,-1,19
 1027 458 1027 458 1014 439 c 128,-1,20
 1001 420 1001 420 978.5 398 c 128,-1,21
 956 376 956 376 942.5 363 c 128,-1,22
 929 350 929 350 904 332 c 128,-1,23
 879 314 879 314 868.5 306.5 c 128,-1,24
 858 299 858 299 834 284 c 128,-1,25
 810 269 810 269 806 266 c 1,26,27
 841 245 841 245 858 233 c 128,-1,28
 875 221 875 221 901 195.5 c 128,-1,29
 927 170 927 170 938.5 136 c 128,-1,30
 950 102 950 102 950 57 c 0,31,32
 950 -4 950 -4 932.5 -63.5 c 128,-1,33
 915 -123 915 -123 874.5 -180.5 c 128,-1,34
 834 -238 834 -238 775 -281.5 c 128,-1,35
 716 -325 716 -325 624.5 -351.5 c 128,-1,36
 533 -378 533 -378 422 -378 c 0,37,38
 271 -378 271 -378 135 -325 c 1,39,-1
 163 -162 l 1,40,41
 315 -242 315 -242 461 -242 c 0,42,43
 504 -242 504 -242 547 -235.5 c 128,-1,44
 590 -229 590 -229 636.5 -211 c 128,-1,45
 683 -193 683 -193 718 -166 c 128,-1,46
 753 -139 753 -139 775.5 -94.5 c 128,-1,47
 798 -50 798 -50 798 6 c 0,48,49
 798 71 798 71 755.5 106.5 c 128,-1,50
 713 142 713 142 627 168 c 2,51,-1
 500 206 l 2,52,53
 451 221 451 221 415 235 c 128,-1,54
 379 249 379 249 341.5 271 c 128,-1,55
 304 293 304 293 281 319 c 128,-1,56
 258 345 258 345 243 382.5 c 128,-1,57
 228 420 228 420 228 467 c 0,58,59
 228 582 228 582 294.5 680 c 128,-1,60
 361 778 361 778 512 865 c 1,61,62
 481 885 481 885 471.5 891.5 c 128,-1,63
 462 898 462 898 435.5 921 c 128,-1,64
 409 944 409 944 398 962.5 c 128,-1,65
 387 981 387 981 376.5 1013 c 128,-1,66
 366 1045 366 1045 366 1082 c 0,67,68
 366 1143 366 1143 382.5 1201 c 128,-1,69
 399 1259 399 1259 439 1316 c 128,-1,70
 479 1373 479 1373 537.5 1415.5 c 128,-1,71
 596 1458 596 1458 688 1484 c 128,-1,72
 780 1510 780 1510 894 1510 c 0,73,74
 1039 1510 1039 1510 1182 1461 c 1,75,-1
 1153 1297 l 1,76,77
 1009 1374 1009 1374 849 1374 c 0,78,79
 808 1374 808 1374 767 1368 c 128,-1,80
 726 1362 726 1362 680 1344.5 c 128,-1,81
 634 1327 634 1327 599.5 1301 c 128,-1,82
 565 1275 565 1275 542 1230.5 c 128,-1,83
 519 1186 519 1186 519 1129 c 0,84,85
 519 1065 519 1065 559 1027.5 c 128,-1,86
 599 990 599 990 684 966 c 2,87,-1
 816 928 l 2,88,89
 950 889 950 889 1019 828.5 c 128,-1,90
 1088 768 1088 768 1088 665 c 3,15,16
EndSplineSet
EndChar

StartChar: dieresis
Encoding: 168 168 107
Width: 1115
VWidth: 2045
Flags: W
HStem: 1315 171<527 674 939 1086>
VStem: 497 619
LayerCount: 3
Fore
SplineSet
1086 1315 m 1
 909 1315 l 1
 939 1486 l 1
 1116 1486 l 1
 1086 1315 l 1
674 1315 m 1
 497 1315 l 1
 527 1486 l 1
 704 1486 l 1
 674 1315 l 1
EndSplineSet
Validated: 1
Layer: 2
SplineSet
1086 1315 m 1,0,-1
 909 1315 l 1,1,-1
 939 1486 l 1,2,-1
 1116 1486 l 1,3,-1
 1086 1315 l 1,0,-1
674 1315 m 1,4,-1
 497 1315 l 1,5,-1
 527 1486 l 1,6,-1
 704 1486 l 1,7,-1
 674 1315 l 1,4,-1
EndSplineSet
EndChar

StartChar: copyright
Encoding: 169 169 108
Width: 1898
VWidth: 2045
Flags: W
HStem: -209 111<684.085 1185.5> 180 124<847.265 1219.12> 911 158<1365.14 1434> 1018 124<979.732 1332.28> 1408 111<945.316 1446.67>
VStem: 186 119<283.668 779.091> 635 128<387.347 783.164> 1824 119<531.546 1026.6>
LayerCount: 3
Fore
SplineSet
913 -209 m 3xcf
 479 -209 186 99 186 502 c 3
 186 1078 701 1519 1218 1519 c 3
 1652 1519 1943 1211 1943 809 c 3
 1943 233 1430 -209 913 -209 c 3xcf
1824 794 m 3
 1824 1158 1557 1408 1198 1408 c 3
 769 1408 305 1044 305 516 c 3
 305 152 574 -98 933 -98 c 3
 1362 -98 1824 267 1824 794 c 3
1039 304 m 3
 1169 304 1301 389 1328 411 c 1
 1345 411 l 1
 1318 255 l 1
 1177 200 1121 180 1014 180 c 3
 835 180 635 254 635 532 c 3
 635 903 874 1142 1183 1142 c 3xdf
 1299 1142 1397 1107 1461 1069 c 1
 1434 911 l 1
 1417 911 l 1xef
 1375 957 1273 1018 1165 1018 c 3xdf
 977 1018 763 905 763 546 c 3
 763 339 897 304 1039 304 c 3
EndSplineSet
Validated: 1
Layer: 2
SplineSet
913 -209 m 3,0,1
 700 -209 700 -209 533.5 -115.5 c 128,-1,2
 367 -22 367 -22 276.5 140 c 128,-1,3
 186 302 186 302 186 502 c 0,4,5
 186 712 186 712 275 903 c 128,-1,6
 364 1094 364 1094 508 1227.5 c 128,-1,7
 652 1361 652 1361 839 1440 c 128,-1,8
 1026 1519 1026 1519 1218 1519 c 0,9,10
 1431 1519 1431 1519 1597 1425.5 c 128,-1,11
 1763 1332 1763 1332 1853 1170.5 c 128,-1,12
 1943 1009 1943 1009 1943 809 c 0,13,14
 1943 599 1943 599 1854.5 408 c 128,-1,15
 1766 217 1766 217 1622 83 c 128,-1,16
 1478 -51 1478 -51 1291.5 -130 c 128,-1,17
 1105 -209 1105 -209 913 -209 c 3,0,1
1824 794 m 3,18,19
 1824 973 1824 973 1742.5 1113.5 c 128,-1,20
 1661 1254 1661 1254 1518.5 1331 c 128,-1,21
 1376 1408 1376 1408 1198 1408 c 0,22,23
 1070 1408 1070 1408 941 1366.5 c 128,-1,24
 812 1325 812 1325 698 1245.5 c 128,-1,25
 584 1166 584 1166 496 1059 c 128,-1,26
 408 952 408 952 356.5 811 c 128,-1,27
 305 670 305 670 305 516 c 0,28,29
 305 337 305 337 387 196.5 c 128,-1,30
 469 56 469 56 612 -21 c 128,-1,31
 755 -98 755 -98 933 -98 c 0,32,33
 1061 -98 1061 -98 1190 -56.5 c 128,-1,34
 1319 -15 1319 -15 1432.5 65 c 128,-1,35
 1546 145 1546 145 1634 252 c 128,-1,36
 1722 359 1722 359 1773 500 c 128,-1,37
 1824 641 1824 641 1824 794 c 3,18,19
1039 304 m 3,38,39
 1123 304 1123 304 1206.5 342 c 128,-1,40
 1290 380 1290 380 1328 411 c 1,41,-1
 1345 411 l 1,42,-1
 1318 255 l 1,43,44
 1202 210 1202 210 1145.5 195 c 128,-1,45
 1089 180 1089 180 1014 180 c 0,46,47
 957 180 957 180 905.5 189.5 c 128,-1,48
 854 199 854 199 803.5 224 c 128,-1,49
 753 249 753 249 716.5 287.5 c 128,-1,50
 680 326 680 326 657.5 389 c 128,-1,51
 635 452 635 452 635 532 c 0,52,53
 635 668 635 668 677.5 783 c 128,-1,54
 720 898 720 898 793 976.5 c 128,-1,55
 866 1055 866 1055 967 1098.5 c 128,-1,56
 1068 1142 1068 1142 1183 1142 c 0,57,58
 1338 1142 1338 1142 1461 1069 c 1,59,-1
 1434 911 l 1,60,-1
 1417 911 l 1,61,62
 1380 951 1380 951 1309.5 984.5 c 128,-1,63
 1239 1018 1239 1018 1165 1018 c 0,64,65
 1106 1018 1106 1018 1051 1004 c 128,-1,66
 996 990 996 990 942.5 955 c 128,-1,67
 889 920 889 920 850 867.5 c 128,-1,68
 811 815 811 815 787 732.5 c 128,-1,69
 763 650 763 650 763 546 c 0,70,71
 763 486 763 486 778.5 441.5 c 128,-1,72
 794 397 794 397 818.5 371 c 128,-1,73
 843 345 843 345 880.5 329.5 c 128,-1,74
 918 314 918 314 955 309 c 128,-1,75
 992 304 992 304 1039 304 c 3,38,39
EndSplineSet
EndChar

StartChar: ordfeminine
Encoding: 170 170 109
Width: 1007
VWidth: 2045
Flags: W
HStem: 541 124<415.979 739.945> 1395 124<491.247 931.771>
VStem: 255 130<700.124 949.431> 965 126<1184 1358.55>
DStem2: 841.768 541 968.768 541 0.173648 0.984808<46.4236 117.751 212.132 523.829 644.549 738.121>
LayerCount: 3
Fore
SplineSet
750 1519 m 3
 999 1519 1091 1425 1091 1274 c 3
 1091 1249 1088 1221 1083 1193 c 2
 973 565 l 1
 846 565 l 1
 862 657 l 1
 796 613 709 541 497 541 c 3
 358 541 255 631 255 779 c 3
 255 1112 542 1167 955 1184 c 1
 960 1215 965 1244 965 1270 c 3
 965 1345 923 1395 728 1395 c 3
 672 1395 585 1385 439 1333 c 1
 424 1333 l 1
 449 1474 l 1
 449 1474 635 1519 750 1519 c 3
577 665 m 3
 657 665 740 668 887 802 c 1
 932 1057 l 1
 740 1045 l 2
 430 1026 385 937 385 794 c 3
 385 716 427 665 577 665 c 3
EndSplineSet
Validated: 1
Layer: 2
SplineSet
750 1519 m 3,0,1
 930 1519 930 1519 1010.5 1456 c 128,-1,2
 1091 1393 1091 1393 1091 1274 c 0,3,4
 1091 1238 1091 1238 1083 1193 c 2,5,-1
 973 565 l 1,6,-1
 846 565 l 1,7,-1
 862 657 l 2,8,9
 859 655 859 655 839.5 641.5 c 128,-1,10
 820 628 820 628 813 624 c 128,-1,11
 806 620 806 620 785.5 607.5 c 128,-1,12
 765 595 765 595 752 590 c 128,-1,13
 739 585 739 585 715.5 575 c 128,-1,14
 692 565 692 565 670.5 560.5 c 128,-1,15
 649 556 649 556 621.5 550.5 c 128,-1,16
 594 545 594 545 562.5 543 c 128,-1,17
 531 541 531 541 497 541 c 0,18,19
 391 541 391 541 323 605.5 c 128,-1,20
 255 670 255 670 255 779 c 0,21,22
 255 849 255 849 272.5 905 c 128,-1,23
 290 961 290 961 320.5 1001.5 c 128,-1,24
 351 1042 351 1042 401 1072.5 c 128,-1,25
 451 1103 451 1103 505.5 1122.5 c 128,-1,26
 560 1142 560 1142 636.5 1154.5 c 128,-1,27
 713 1167 713 1167 786 1173.5 c 128,-1,28
 859 1180 859 1180 955 1184 c 1,29,30
 965 1246 965 1246 965 1270 c 0,31,32
 965 1300 965 1300 955 1321.5 c 128,-1,33
 945 1343 945 1343 920 1360.5 c 128,-1,34
 895 1378 895 1378 847 1386.5 c 128,-1,35
 799 1395 799 1395 728 1395 c 0,36,37
 613 1395 613 1395 439 1333 c 1,38,-1
 424 1333 l 1,39,-1
 449 1474 l 1,40,41
 635 1519 635 1519 750 1519 c 3,0,1
577 665 m 3,42,43
 629 665 629 665 662.5 670 c 128,-1,44
 696 675 696 675 757 707 c 128,-1,45
 818 739 818 739 887 802 c 1,46,-1
 932 1057 l 1,47,-1
 740 1045 l 2,48,49
 649 1039 649 1039 584.5 1024.5 c 128,-1,50
 520 1010 520 1010 481 990 c 128,-1,51
 442 970 442 970 420.5 938 c 128,-1,52
 399 906 399 906 392 873.5 c 128,-1,53
 385 841 385 841 385 794 c 0,54,55
 385 731 385 731 428 698 c 128,-1,56
 471 665 471 665 577 665 c 3,42,43
EndSplineSet
EndChar

StartChar: guillemotleft
Encoding: 171 171 110
Width: 1170
VWidth: 2045
Flags: W
DStem2: 397 652 211 607 0.695717 -0.718316<0 405.29> 227 698 397 652 0.797548 0.603256<107.833 590.651> 841 652 663 610 0.702002 -0.712175<0 383.262> 678 695 841 652 0.802568 0.596561<105.166 560.368>
LayerCount: 3
Fore
SplineSet
1077 190 m 1
 663 610 l 1
 678 695 l 1
 1239 1112 l 1
 1206 924 l 1
 841 652 l 1
 1110 379 l 1
 1077 190 l 1
642 162 m 1
 211 607 l 1
 227 698 l 1
 814 1142 l 1
 780 946 l 1
 397 652 l 1
 676 358 l 1
 642 162 l 1
EndSplineSet
Validated: 1
Layer: 2
SplineSet
1077 190 m 1,0,-1
 663 610 l 1,1,-1
 678 695 l 1,2,-1
 1239 1112 l 1,3,-1
 1206 924 l 1,4,-1
 841 652 l 1,5,-1
 1110 379 l 1,6,-1
 1077 190 l 1,0,-1
642 162 m 1,7,-1
 211 607 l 1,8,-1
 227 698 l 1,9,-1
 814 1142 l 1,10,-1
 780 946 l 1,11,-1
 397 652 l 1,12,-1
 676 358 l 1,13,-1
 642 162 l 1,7,-1
EndSplineSet
EndChar

StartChar: logicalnot
Encoding: 172 172 111
Width: 1486
VWidth: 2045
Flags: W
HStem: 625 136<291 1286>
DStem2: 1186 57 1332 57 0.173648 0.984808<25.3526 576.736>
LayerCount: 3
Fore
SplineSet
1332 57 m 1
 1186 57 l 1
 1286 625 l 1
 267 625 l 1
 291 761 l 1
 1456 761 l 1
 1332 57 l 1
EndSplineSet
Validated: 1
Layer: 2
SplineSet
1332 57 m 1,0,-1
 1186 57 l 1,1,-1
 1286 625 l 1,2,-1
 267 625 l 1,3,-1
 291 761 l 1,4,-1
 1456 761 l 1,5,-1
 1332 57 l 1,0,-1
EndSplineSet
EndChar

StartChar: registered
Encoding: 174 174 113
Width: 1898
VWidth: 2045
Flags: W
HStem: -209 111<684.085 1193.13> 569 124<898 1092> 1006 124<953 1308.57> 1408 111<945.669 1433.16>
VStem: 186 119<283.214 778.277> 1331 131<769.967 982.055> 1824 119<539.135 1023.31>
DStem2: 612.414 -209 739.414 -209 0.173648 0.984808<451.579 811.952 937.888 1255.68> 1209 615 1092 569 0.566965 -0.823742<0 389.852>
LayerCount: 3
Fore
SplineSet
913 -209 m 3
 479 -209 186 98 186 501 c 3
 186 1078 703 1519 1218 1519 c 3
 1659 1519 1943 1206 1943 808 c 3
 1943 208 1406 -209 913 -209 c 3
1824 792 m 3
 1824 1150 1563 1408 1198 1408 c 3
 769 1408 305 1041 305 516 c 3
 305 152 574 -98 933 -98 c 3
 1364 -98 1824 269 1824 792 c 3
1462 932 m 3
 1462 752 1328 659 1209 615 c 1
 1485 214 l 1
 1314 214 l 1
 1092 569 l 1
 876 569 l 1
 814 214 l 1
 687 214 l 1
 848 1130 l 1
 1158 1130 l 2
 1253 1130 1462 1119 1462 932 c 3
1090 693 m 2
 1256 693 1331 771 1331 901 c 3
 1331 1006 1225 1006 1163 1006 c 2
 953 1006 l 1
 898 693 l 1
 1090 693 l 2
EndSplineSet
Validated: 1
Layer: 2
SplineSet
913 -209 m 3,0,1
 700 -209 700 -209 533.5 -115.5 c 128,-1,2
 367 -22 367 -22 276.5 139.5 c 128,-1,3
 186 301 186 301 186 501 c 0,4,5
 186 670 186 670 243.5 828 c 128,-1,6
 301 986 301 986 401.5 1109.5 c 128,-1,7
 502 1233 502 1233 632 1326 c 128,-1,8
 762 1419 762 1419 913.5 1469 c 128,-1,9
 1065 1519 1065 1519 1218 1519 c 0,10,11
 1380 1519 1380 1519 1517 1464 c 128,-1,12
 1654 1409 1654 1409 1746.5 1313 c 128,-1,13
 1839 1217 1839 1217 1891 1087 c 128,-1,14
 1943 957 1943 957 1943 808 c 0,15,16
 1943 633 1943 633 1883.5 472.5 c 128,-1,17
 1824 312 1824 312 1722 190 c 128,-1,18
 1620 68 1620 68 1489 -23 c 128,-1,19
 1358 -114 1358 -114 1209 -161.5 c 128,-1,20
 1060 -209 1060 -209 913 -209 c 3,0,1
1824 792 m 3,21,22
 1824 969 1824 969 1744 1109.5 c 128,-1,23
 1664 1250 1664 1250 1521 1329 c 128,-1,24
 1378 1408 1378 1408 1198 1408 c 0,25,26
 1070 1408 1070 1408 941 1366.5 c 128,-1,27
 812 1325 812 1325 698 1244.5 c 128,-1,28
 584 1164 584 1164 496 1057 c 128,-1,29
 408 950 408 950 356.5 809.5 c 128,-1,30
 305 669 305 669 305 516 c 0,31,32
 305 337 305 337 387 196.5 c 128,-1,33
 469 56 469 56 612 -21 c 128,-1,34
 755 -98 755 -98 933 -98 c 0,35,36
 1062 -98 1062 -98 1191 -56.5 c 128,-1,37
 1320 -15 1320 -15 1433 65 c 128,-1,38
 1546 145 1546 145 1634 252 c 128,-1,39
 1722 359 1722 359 1773 499.5 c 128,-1,40
 1824 640 1824 640 1824 792 c 3,21,22
1462 932 m 3,41,42
 1462 868 1462 868 1440 813.5 c 128,-1,43
 1418 759 1418 759 1379.5 721.5 c 128,-1,44
 1341 684 1341 684 1299.5 658.5 c 128,-1,45
 1258 633 1258 633 1209 615 c 1,46,-1
 1485 214 l 1,47,-1
 1314 214 l 1,48,-1
 1092 569 l 1,49,-1
 876 569 l 1,50,-1
 814 214 l 1,51,-1
 687 214 l 1,52,-1
 848 1130 l 1,53,-1
 1158 1130 l 2,54,55
 1462 1130 1462 1130 1462 932 c 3,41,42
1090 693 m 2,56,57
 1212 693 1212 693 1271.5 747 c 128,-1,58
 1331 801 1331 801 1331 901 c 0,59,60
 1331 931 1331 931 1318.5 952 c 128,-1,61
 1306 973 1306 973 1290.5 983.5 c 128,-1,62
 1275 994 1275 994 1248 999.5 c 128,-1,63
 1221 1005 1221 1005 1205.5 1005.5 c 128,-1,64
 1190 1006 1190 1006 1163 1006 c 2,65,-1
 953 1006 l 1,66,-1
 898 693 l 1,67,-1
 1090 693 l 2,56,57
EndSplineSet
EndChar

StartChar: macron
Encoding: 175 175 114
Width: 1115
VWidth: 2045
Flags: W
HStem: 1658 130<300 1425>
LayerCount: 3
Fore
SplineSet
1425 1658 m 1
 277 1658 l 1
 300 1788 l 1
 1448 1788 l 1
 1425 1658 l 1
EndSplineSet
Validated: 1
Layer: 2
SplineSet
1425 1658 m 1,0,-1
 277 1658 l 1,1,-1
 300 1788 l 1,2,-1
 1448 1788 l 1,3,-1
 1425 1658 l 1,0,-1
EndSplineSet
EndChar

StartChar: degree
Encoding: 176 176 115
Width: 961
VWidth: 2045
Flags: W
HStem: 755 124<500.552 789.71> 1389 124<574.373 863.666>
VStem: 295 129<956.621 1240.42> 940 129<1026.89 1312.41>
LayerCount: 3
Fore
SplineSet
749 1513 m 3
 949 1513 1069 1379 1069 1205 c 3
 1069 951 853 755 615 755 c 3
 429 755 295 879 295 1063 c 3
 295 1319 507 1513 749 1513 c 3
637 879 m 3
 802 879 940 1019 940 1180 c 3
 940 1294 864 1389 727 1389 c 3
 552 1389 424 1244 424 1088 c 3
 424 971 506 879 637 879 c 3
EndSplineSet
Validated: 1
Layer: 2
SplineSet
749 1513 m 3,0,1
 896 1513 896 1513 982.5 1426 c 128,-1,2
 1069 1339 1069 1339 1069 1205 c 0,3,4
 1069 1081 1069 1081 1005.5 977 c 128,-1,5
 942 873 942 873 837.5 814 c 128,-1,6
 733 755 733 755 615 755 c 0,7,8
 475 755 475 755 385 840.5 c 128,-1,9
 295 926 295 926 295 1063 c 0,10,11
 295 1252 295 1252 430 1382.5 c 128,-1,12
 565 1513 565 1513 749 1513 c 3,0,1
637 879 m 3,13,14
 760 879 760 879 850 969 c 128,-1,15
 940 1059 940 1059 940 1180 c 0,16,17
 940 1269 940 1269 883 1329 c 128,-1,18
 826 1389 826 1389 727 1389 c 0,19,20
 599 1389 599 1389 511.5 1298.5 c 128,-1,21
 424 1208 424 1208 424 1088 c 0,22,23
 424 998 424 998 482.5 938.5 c 128,-1,24
 541 879 541 879 637 879 c 3,13,14
EndSplineSet
EndChar

StartChar: plusminus
Encoding: 177 177 116
Width: 1486
VWidth: 2045
Flags: W
HStem: 159 136<214 724 870 1354> 739 136<316 802 972 1456>
DStem2: 700.02 159 846.02 159 0.173648 0.984808<163.451 588.897 752.351 1262.14>
LayerCount: 3
Fore
SplineSet
1354 159 m 1
 190 159 l 1
 214 295 l 1
 724 295 l 1
 802 739 l 1
 292 739 l 1
 316 875 l 1
 826 875 l 1
 919 1402 l 1
 1065 1402 l 1
 972 875 l 1
 1480 875 l 1
 1456 739 l 1
 948 739 l 1
 870 295 l 1
 1378 295 l 1
 1354 159 l 1
EndSplineSet
Validated: 1
Layer: 2
SplineSet
1354 159 m 1,0,-1
 190 159 l 1,1,-1
 214 295 l 1,2,-1
 724 295 l 1,3,-1
 802 739 l 1,4,-1
 292 739 l 1,5,-1
 316 875 l 1,6,-1
 826 875 l 1,7,-1
 919 1402 l 1,8,-1
 1065 1402 l 1,9,-1
 972 875 l 1,10,-1
 1480 875 l 1,11,-1
 1456 739 l 1,12,-1
 948 739 l 1,13,-1
 870 295 l 1,14,-1
 1378 295 l 1,15,-1
 1354 159 l 1,0,-1
EndSplineSet
EndChar

StartChar: uni00B2
Encoding: 178 178 117
Width: 1007
Flags: W
HStem: 566 124<486 919> 1394 124<627.743 876.889>
VStem: 420 127<1210 1314.19> 912 129<1142.93 1357.34>
LayerCount: 3
Fore
SplineSet
762 1394 m 3
 688 1394 573 1358 547 1210 c 1
 420 1210 l 1
 453 1397 595 1518 786 1518 c 3
 935 1518 1041 1438 1041 1292 c 3
 1041 1069 849 966 694 851 c 0
 627 801 539 730 486 690 c 1
 941 690 l 1
 919 566 l 1
 285 566 l 1
 309 702 435 804 596 921 c 0
 757 1039 912 1125 912 1262 c 3
 912 1345 842 1394 762 1394 c 3
EndSplineSet
Validated: 1
Layer: 2
SplineSet
762 1394 m 3,0,1
 731 1394 731 1394 700 1385.5 c 128,-1,2
 669 1377 669 1377 637 1358 c 128,-1,3
 605 1339 605 1339 580.5 1301 c 128,-1,4
 556 1263 556 1263 547 1210 c 1,5,-1
 420 1210 l 1,6,7
 445 1351 445 1351 544 1434.5 c 128,-1,8
 643 1518 643 1518 786 1518 c 0,9,10
 901 1518 901 1518 971 1458.5 c 128,-1,11
 1041 1399 1041 1399 1041 1292 c 0,12,13
 1041 1251 1041 1251 1032 1213 c 128,-1,14
 1023 1175 1023 1175 1009.5 1145.5 c 128,-1,15
 996 1116 996 1116 971.5 1084.5 c 128,-1,16
 947 1053 947 1053 926 1031.5 c 128,-1,17
 905 1010 905 1010 871 982 c 128,-1,18
 837 954 837 954 814 937.5 c 128,-1,19
 791 921 791 921 752.5 893.5 c 128,-1,20
 714 866 714 866 694 851 c 0,21,22
 657 824 657 824 582.5 765.5 c 128,-1,23
 508 707 508 707 486 690 c 1,24,-1
 941 690 l 1,25,-1
 919 566 l 1,26,-1
 285 566 l 1,27,28
 294 615 294 615 319.5 661 c 128,-1,29
 345 707 345 707 391 752.5 c 128,-1,30
 437 798 437 798 481.5 834 c 128,-1,31
 526 870 526 870 596 921 c 0,32,33
 620 938 620 938 663.5 969 c 128,-1,34
 707 1000 707 1000 730 1017 c 128,-1,35
 753 1034 753 1034 787 1061 c 128,-1,36
 821 1088 821 1088 839 1108 c 128,-1,37
 857 1128 857 1128 876.5 1154 c 128,-1,38
 896 1180 896 1180 904 1206.5 c 128,-1,39
 912 1233 912 1233 912 1262 c 0,40,41
 912 1322 912 1322 868.5 1358 c 128,-1,42
 825 1394 825 1394 762 1394 c 3,0,1
EndSplineSet
EndChar

StartChar: uni00B3
Encoding: 179 179 118
Width: 1007
Flags: W
HStem: 559 124<492.859 753.781> 1015 104<602.656 776.862> 1394 124<610.769 848.339>
VStem: 330 129<717.122 863.157> 840 130<767.25 985.774> 867 128<1199.45 1371.04>
LayerCount: 3
Fore
SplineSet
644 1119 m 3xf8
 716 1119 867 1188 867 1291 c 3
 867 1350 825 1394 734 1394 c 3
 623 1394 570 1328 539 1230 c 1
 412 1230 l 1
 441 1395 585 1518 753 1518 c 3
 888 1518 995 1435 995 1308 c 3xf4
 995 1201 930 1125 857 1079 c 1
 930 1049 970 995 970 914 c 3
 970 702 779 559 589 559 c 3
 432 559 330 655 330 802 c 3
 330 822 332 843 336 864 c 1
 463 864 l 1
 460 849 459 835 459 822 c 3
 459 740 507 683 610 683 c 3
 742 683 840 772 840 894 c 3
 840 969 790 1015 684 1015 c 3
 652 1015 612 1007 580 998 c 1
 602 1122 l 1
 616 1121 630 1119 644 1119 c 3xf8
EndSplineSet
Validated: 1
Layer: 2
SplineSet
644 1119 m 1,0,1
 683 1119 683 1119 733.5 1139.5 c 128,-1,2
 784 1160 784 1160 825.5 1201.5 c 128,-1,3
 867 1243 867 1243 867 1291 c 0,4,5
 867 1337 867 1337 833.5 1365.5 c 128,-1,6
 800 1394 800 1394 734 1394 c 0,7,8
 655 1394 655 1394 609.5 1351.5 c 128,-1,9
 564 1309 564 1309 539 1230 c 1,10,-1
 412 1230 l 1,11,12
 434 1354 434 1354 530.5 1436 c 128,-1,13
 627 1518 627 1518 753 1518 c 0,14,15
 856 1518 856 1518 925.5 1460 c 128,-1,16
 995 1402 995 1402 995 1308 c 0,17,18
 995 1166 995 1166 857 1079 c 1,19,20
 970 1033 970 1033 970 914 c 0,21,22
 970 812 970 812 914 729 c 128,-1,23
 858 646 858 646 771.5 602.5 c 128,-1,24
 685 559 685 559 589 559 c 0,25,26
 471 559 471 559 400.5 625.5 c 128,-1,27
 330 692 330 692 330 802 c 0,28,29
 330 832 330 832 336 864 c 1,30,-1
 463 864 l 1,31,32
 459 844 459 844 459 822 c 0,33,34
 459 758 459 758 497 720.5 c 128,-1,35
 535 683 535 683 610 683 c 0,36,37
 709 683 709 683 774.5 743 c 128,-1,38
 840 803 840 803 840 894 c 0,39,40
 840 952 840 952 801 983.5 c 128,-1,41
 762 1015 762 1015 684 1015 c 0,42,43
 640 1015 640 1015 580 998 c 1,44,-1
 602 1122 l 1,45,-1
 644 1119 l 1,0,1
EndSplineSet
EndChar

StartChar: acute
Encoding: 180 180 119
Width: 1115
VWidth: 2045
Flags: W
HStem: 1302 373
VStem: 702 438
LayerCount: 3
Fore
SplineSet
1140 1675 m 1
 804 1302 l 1
 702 1302 l 1
 947 1675 l 1
 1140 1675 l 1
EndSplineSet
Validated: 1
Layer: 2
SplineSet
1140 1675 m 1,0,-1
 804 1302 l 1,1,-1
 702 1302 l 1,2,-1
 947 1675 l 1,3,-1
 1140 1675 l 1,0,-1
EndSplineSet
EndChar

StartChar: micro
Encoding: 181 181 120
Width: 1160
VWidth: 2045
Flags: W
HStem: -12 124<448.699 759.975> 1040 20G<319.479 450 1081.46 1212>
DStem2: 64 -411 191 -411 0.173648 0.984808<22.0533 556.038 682.19 1493.63> 825.53 -411 952.53 -411 0.173648 0.984808<439.394 522.886 646.682 1493.71>
LayerCount: 3
Fore
SplineSet
596 112 m 3
 686 112 842 183 946 275 c 1
 1085 1060 l 1
 1212 1060 l 1
 1025 0 l 1
 898 0 l 1
 916 104 l 1
 779 -8 644 -12 574 -12 c 3
 477 -12 360 8 283 115 c 1
 191 -411 l 1
 64 -411 l 1
 323 1060 l 1
 450 1060 l 1
 311 275 l 1
 363 199 489 112 596 112 c 3
EndSplineSet
Validated: 1
Layer: 2
SplineSet
596 112 m 3,0,1
 664 112 664 112 766.5 159.5 c 128,-1,2
 869 207 869 207 946 275 c 1,3,-1
 1085 1060 l 1,4,-1
 1212 1060 l 1,5,-1
 1025 0 l 1,6,-1
 898 0 l 1,7,-1
 916 104 l 1,8,9
 774 -12 774 -12 574 -12 c 128,-1,10
 374 -12 374 -12 283 115 c 1,11,-1
 191 -411 l 1,12,-1
 64 -411 l 1,13,-1
 323 1060 l 1,14,-1
 450 1060 l 1,15,-1
 311 275 l 1,16,17
 353 214 353 214 436.5 163 c 128,-1,18
 520 112 520 112 596 112 c 3,0,1
EndSplineSet
EndChar

StartChar: paragraph
Encoding: 182 182 121
Width: 1115
VWidth: 2045
Flags: W
HStem: 1365 124<895 1094>
DStem2: 462 -362 590 -362 0.173648 0.984808<22.227 968.68> 789 -362 916 -362 0.173648 0.984808<22.0533 1753.73>
LayerCount: 3
Fore
SplineSet
834 1489 m 2
 1243 1489 l 1
 916 -362 l 1
 789 -362 l 1
 1094 1365 l 1
 895 1365 l 1
 590 -362 l 1
 462 -362 l 1
 630 592 l 1
 385 599 234 730 234 951 c 3
 234 1310 493 1489 834 1489 c 2
EndSplineSet
Validated: 1
Layer: 2
SplineSet
834 1489 m 2,0,-1
 1243 1489 l 1,1,-1
 916 -362 l 1,2,-1
 789 -362 l 1,3,-1
 1094 1365 l 1,4,-1
 895 1365 l 1,5,-1
 590 -362 l 1,6,-1
 462 -362 l 1,7,-1
 630 592 l 1,8,9
 445 597 445 597 339.5 691.5 c 128,-1,10
 234 786 234 786 234 951 c 0,11,12
 234 1082 234 1082 279.5 1186 c 128,-1,13
 325 1290 325 1290 406.5 1355.5 c 128,-1,14
 488 1421 488 1421 596.5 1455 c 128,-1,15
 705 1489 705 1489 834 1489 c 2,0,-1
EndSplineSet
EndChar

StartChar: periodcentered
Encoding: 183 183 122
Width: 722
VWidth: 2045
Flags: W
HStem: 831 285<439 629>
VStem: 389 290
LayerCount: 3
Fore
SplineSet
629 831 m 1
 389 831 l 1
 439 1116 l 1
 679 1116 l 1
 629 831 l 1
EndSplineSet
Validated: 1
Layer: 2
SplineSet
629 831 m 1,0,-1
 389 831 l 1,1,-1
 439 1116 l 1,2,-1
 679 1116 l 1,3,-1
 629 831 l 1,0,-1
EndSplineSet
EndChar

StartChar: cedilla
Encoding: 184 184 123
Width: 1115
VWidth: 2045
Flags: W
HStem: -435 124<239.703 547.076> -411 133<241 381.064>
VStem: 645 124<-190.358 20>
LayerCount: 3
Fore
SplineSet
384 -311 m 3xa0
 523 -311 597 -266 625 -107 c 0
 646 11 632 -56 645 20 c 1
 769 20 l 1
 769 6 759 -66 755 -89 c 0
 708 -356 515 -435 390 -435 c 3xa0
 319 -435 250 -421 218 -411 c 1
 241 -278 l 1
 250 -278 l 1x60
 281 -295 321 -311 384 -311 c 3xa0
EndSplineSet
Validated: 1
Layer: 2
SplineSet
384 -311 m 3,0,1
 493 -311 493 -311 549 -266.5 c 128,-1,2
 605 -222 605 -222 625 -107 c 0,3,4
 637 -42 637 -42 638.5 -26.5 c 128,-1,5
 640 -11 640 -11 645 20 c 1,6,-1
 769 20 l 1,7,8
 769 -8 769 -8 755 -89 c 0,9,10
 741 -166 741 -166 710.5 -227.5 c 128,-1,11
 680 -289 680 -289 642.5 -326.5 c 128,-1,12
 605 -364 605 -364 559 -389.5 c 128,-1,13
 513 -415 513 -415 471.5 -425 c 128,-1,14
 430 -435 430 -435 390 -435 c 0,15,16
 295 -435 295 -435 218 -411 c 1,17,-1
 241 -278 l 1,18,-1
 250 -278 l 1,19,20
 310 -311 310 -311 384 -311 c 3,0,1
EndSplineSet
EndChar

StartChar: uni0E01
Encoding: 3585 3585 124
Width: 1248
VWidth: 2045
Flags: W
HStem: 0 21G<250 366.531 985 1101.53> 776 112<500 613> 1154 112<618.815 975.426>
VStem: 1128 114<569.875 1005.39>
DStem2: 250 0 363 0 0.173648 0.984808<19.6222 788.001> 985 0 1098 0 0.173648 0.984808<19.6222 853.069>
LayerCount: 3
Fore
SplineSet
1122 776 m 2
 1126 798 1128 821 1128 842 c 0
 1128 1022 991 1154 807 1154 c 256
 690 1154 506 1098 396 888 c 9
 633 888 l 1
 613 776 l 1
 500 776 l 17
 363 0 l 17
 250 0 l 9
 387 776 l 9
 247 776 l 1
 295 1051 558 1266 827 1266 c 256
 1068 1266 1242 1093 1242 861 c 0
 1242 833 1240 805 1235 776 c 2
 1098 0 l 1
 985 0 l 1
 1122 776 l 2
EndSplineSet
Validated: 1
Layer: 2
SplineSet
1122 776 m 2,0,1
 1128 809 1128 809 1128 842 c 0,2,3
 1128 977 1128 977 1036.5 1065.5 c 128,-1,4
 945 1154 945 1154 807 1154 c 0,5,6
 759 1154 759 1154 708 1141.5 c 128,-1,7
 657 1129 657 1129 600 1100.5 c 128,-1,8
 543 1072 543 1072 489 1017.5 c 128,-1,9
 435 963 435 963 396 888 c 1,10,-1
 633 888 l 1,11,-1
 613 776 l 1,12,-1
 500 776 l 1,13,-1
 363 0 l 1,14,-1
 250 0 l 1,15,-1
 387 776 l 1,16,-1
 247 776 l 1,17,18
 271 911 271 911 357.5 1024 c 128,-1,19
 444 1137 444 1137 569 1201.5 c 128,-1,20
 694 1266 694 1266 827 1266 c 0,21,22
 1007 1266 1007 1266 1124.5 1151 c 128,-1,23
 1242 1036 1242 1036 1242 861 c 0,24,25
 1242 817 1242 817 1235 776 c 2,26,-1
 1098 0 l 1,27,-1
 985 0 l 1,28,-1
 1122 776 l 2,0,1
EndSplineSet
EndChar

StartChar: uni0E02
Encoding: 3586 3586 125
Width: 1173
VWidth: 2045
Flags: W
HStem: 0 112<368 480 593 932> 761 112<388.432 536.481> 1154 112<553.586 731.362>
VStem: 268 115<877.747 1020.39> 555 115<435.9 637.411 893.034 1037> 782 114<849.688 1105.31>
DStem2: 460.251 0 573.251 0 0.173648 0.984808<133.35 719.11> 912.251 0 1025 0 0.173648 0.984808<113.728 1273.28>
LayerCount: 3
Fore
SplineSet
670 990 m 0
 670 861 552 761 434 761 c 0
 333 761 268 832 268 922 c 0
 268 1114 462 1266 635 1266 c 0
 792 1266 896 1155 896 1010 c 0
 896 766 702 731 663 510 c 2
 593 112 l 17
 932 112 l 25
 1133 1254 l 1
 1246 1254 l 1
 1025 0 l 9
 348 0 l 1
 368 112 l 1
 480 112 l 25
 550 510 l 2
 598 779 782 794 782 993 c 0
 782 1085 714 1154 615 1154 c 0
 594 1154 574 1151 553 1145 c 1
 603 1133 670 1079 670 990 c 0
455 873 m 0
 501 873 555 913 555 972 c 0
 555 1010 529 1042 485 1042 c 0
 433 1042 383 998 383 944 c 0
 383 905 411 873 455 873 c 0
EndSplineSet
Validated: 1
Layer: 2
SplineSet
670 990 m 0,0,1
 670 896 670 896 597.5 828.5 c 128,-1,2
 525 761 525 761 434 761 c 0,3,4
 360 761 360 761 314 807 c 128,-1,5
 268 853 268 853 268 922 c 0,6,7
 268 1014 268 1014 324 1095 c 128,-1,8
 380 1176 380 1176 464 1221 c 128,-1,9
 548 1266 548 1266 635 1266 c 0,10,11
 751 1266 751 1266 823.5 1193 c 128,-1,12
 896 1120 896 1120 896 1010 c 0,13,14
 896 942 896 942 876 886.5 c 128,-1,15
 856 831 856 831 825 791 c 128,-1,16
 794 751 794 751 762 712.5 c 128,-1,17
 730 674 730 674 702 622 c 128,-1,18
 674 570 674 570 663 510 c 2,19,-1
 593 112 l 1,20,-1
 932 112 l 1,21,-1
 1133 1254 l 1,22,-1
 1246 1254 l 1,23,-1
 1025 0 l 1,24,-1
 348 0 l 1,25,-1
 368 112 l 1,26,-1
 480 112 l 1,27,-1
 550 510 l 2,28,29
 561 573 561 573 583.5 625.5 c 128,-1,30
 606 678 606 678 631.5 711 c 128,-1,31
 657 744 657 744 684 778 c 128,-1,32
 711 812 711 812 732.5 839.5 c 128,-1,33
 754 867 754 867 768 906.5 c 128,-1,34
 782 946 782 946 782 993 c 0,35,36
 782 1063 782 1063 735.5 1108.5 c 128,-1,37
 689 1154 689 1154 615 1154 c 0,38,39
 584 1154 584 1154 553 1145 c 1,40,41
 597 1135 597 1135 633.5 1093 c 128,-1,42
 670 1051 670 1051 670 990 c 0,0,1
455 873 m 0,43,44
 492 873 492 873 523.5 901.5 c 128,-1,45
 555 930 555 930 555 972 c 0,46,47
 555 1002 555 1002 536 1022 c 128,-1,48
 517 1042 517 1042 485 1042 c 0,49,50
 445 1042 445 1042 414 1013 c 128,-1,51
 383 984 383 984 383 944 c 0,52,53
 383 914 383 914 403 893.5 c 128,-1,54
 423 873 423 873 455 873 c 0,43,44
EndSplineSet
EndChar

StartChar: uni0E03
Encoding: 3587 3587 126
Width: 1248
VWidth: 2045
Flags: W
HStem: 0 112<441 554 667 1005> 644 112<391.848 540.573> 924 112<404.293 552.883> 1246 8G<486 592.398 797.337 870.5 1202.48 1319>
VStem: 242 144<761.239 976.647> 558 115<773.055 919.342> 864 114<858.98 1132.02>
DStem2: 534.251 0 647.251 0 0.173648 0.984808<133.35 714.41> 985.251 0 1098 0 0.173648 0.984808<113.728 1273.28>
LayerCount: 3
Fore
SplineSet
673 874 m 0
 673 743 555 644 439 644 c 0
 355 644 242 688 242 854 c 0
 242 1093 409 1228 563 1266 c 1
 685 1183 l 1
 833 1266 l 1
 908 1238 978 1144 978 1021 c 0
 978 770 776 733 737 510 c 2
 667 112 l 1
 1005 112 l 1
 1206 1254 l 25
 1319 1254 l 17
 1098 0 l 1
 421 0 l 1
 441 112 l 1
 554 112 l 1
 624 510 l 2
 674 794 864 786 864 1013 c 0
 864 1095 827 1131 813 1136 c 1
 661 1051 l 1
 527 1142 l 17
 507 1138 413 1088 372 988 c 1
 427 1020 472 1036 508 1036 c 0
 607 1036 673 966 673 874 c 0
458 756 m 0
 510 756 558 798 558 854 c 0
 558 895 528 924 488 924 c 0
 435 924 386 879 386 824 c 0
 386 782 419 756 458 756 c 0
EndSplineSet
Validated: 1
Layer: 2
SplineSet
673 874 m 0,0,1
 673 779 673 779 601 711.5 c 128,-1,2
 529 644 529 644 439 644 c 0,3,4
 404 644 404 644 372 654 c 128,-1,5
 340 664 340 664 309.5 686 c 128,-1,6
 279 708 279 708 260.5 751.5 c 128,-1,7
 242 795 242 795 242 854 c 0,8,9
 242 940 242 940 270 1013 c 128,-1,10
 298 1086 298 1086 345 1136 c 128,-1,11
 392 1186 392 1186 447.5 1218.5 c 128,-1,12
 503 1251 503 1251 563 1266 c 1,13,-1
 685 1183 l 1,14,-1
 833 1266 l 1,15,16
 893 1244 893 1244 935.5 1176.5 c 128,-1,17
 978 1109 978 1109 978 1021 c 0,18,19
 978 951 978 951 957 894 c 128,-1,20
 936 837 936 837 904 795.5 c 128,-1,21
 872 754 872 754 839 715 c 128,-1,22
 806 676 806 676 777 623.5 c 128,-1,23
 748 571 748 571 737 510 c 2,24,-1
 667 112 l 1,25,-1
 1005 112 l 1,26,-1
 1206 1254 l 1,27,-1
 1319 1254 l 1,28,-1
 1098 0 l 1,29,-1
 421 0 l 1,30,-1
 441 112 l 1,31,-1
 554 112 l 1,32,-1
 624 510 l 2,33,34
 638 588 638 588 668 648.5 c 128,-1,35
 698 709 698 709 730.5 746 c 128,-1,36
 763 783 763 783 793.5 818.5 c 128,-1,37
 824 854 824 854 844 902 c 128,-1,38
 864 950 864 950 864 1013 c 0,39,40
 864 1067 864 1067 846.5 1098.5 c 128,-1,41
 829 1130 829 1130 813 1136 c 1,42,-1
 661 1051 l 1,43,-1
 527 1142 l 1,44,45
 501 1137 501 1137 450 1095 c 128,-1,46
 399 1053 399 1053 372 988 c 1,47,48
 455 1036 455 1036 508 1036 c 0,49,50
 581 1036 581 1036 627 990 c 128,-1,51
 673 944 673 944 673 874 c 0,0,1
458 756 m 0,52,53
 498 756 498 756 528 784.5 c 128,-1,54
 558 813 558 813 558 854 c 0,55,56
 558 885 558 885 538 904.5 c 128,-1,57
 518 924 518 924 488 924 c 0,58,59
 448 924 448 924 417 894.5 c 128,-1,60
 386 865 386 865 386 824 c 0,61,62
 386 793 386 793 407 774.5 c 128,-1,63
 428 756 428 756 458 756 c 0,52,53
EndSplineSet
EndChar

StartChar: uni0E04
Encoding: 3588 3588 127
Width: 1301
VWidth: 2045
Flags: W
HStem: 0 21G<171 294.504 1018 1134.53> 549 112<698.935 846.38> 827 112<711.798 859.579> 1154 112<672.66 1019.79>
VStem: 865 115<679.169 821.089> 1163 114<710.625 1010.83>
DStem2: 171 0 283.865 0 0.173648 0.984808<19.6222 102.535 314.073 1001.51> 1018 0 1131 0 0.173648 0.984808<19.6222 866.218>
LayerCount: 3
Fore
SplineSet
980 778 m 0
 980 642 857 549 745 549 c 0
 656 549 616 601 607 615 c 9
 284 0 l 9
 171 0 l 17
 310 788 l 2
 357 1056 611 1266 874 1266 c 0
 1109 1266 1277 1098 1277 872 c 0
 1277 845 1275 817 1270 788 c 2
 1131 0 l 1
 1018 0 l 1
 1157 788 l 2
 1161 811 1163 834 1163 855 c 0
 1163 1033 1028 1154 854 1154 c 0
 659 1154 461 1002 423 788 c 2
 335 290 l 17
 607 816 l 18
 627 855 703 939 814 939 c 0
 913 939 980 870 980 778 c 0
765 661 m 0
 812 661 865 699 865 758 c 0
 865 797 838 827 794 827 c 0
 743 827 694 784 694 729 c 0
 694 691 722 661 765 661 c 0
EndSplineSet
Validated: 1
Layer: 2
SplineSet
980 778 m 0,0,1
 980 680 980 680 907 614.5 c 128,-1,2
 834 549 834 549 745 549 c 0,3,4
 705 549 705 549 672 564 c 128,-1,5
 639 579 639 579 627 591 c 128,-1,6
 615 603 615 603 607 615 c 1,7,-1
 284 0 l 1,8,-1
 171 0 l 1,9,-1
 310 788 l 2,10,11
 333 919 333 919 417 1029.5 c 128,-1,12
 501 1140 501 1140 622.5 1203 c 128,-1,13
 744 1266 744 1266 874 1266 c 0,14,15
 1050 1266 1050 1266 1163.5 1154 c 128,-1,16
 1277 1042 1277 1042 1277 872 c 0,17,18
 1277 829 1277 829 1270 788 c 2,19,-1
 1131 0 l 1,20,-1
 1018 0 l 1,21,-1
 1157 788 l 2,22,23
 1163 822 1163 822 1163 855 c 0,24,25
 1163 987 1163 987 1074.5 1070.5 c 128,-1,26
 986 1154 986 1154 854 1154 c 0,27,28
 704 1154 704 1154 577.5 1049.5 c 128,-1,29
 451 945 451 945 423 788 c 2,30,-1
 335 290 l 1,31,-1
 607 816 l 2,32,33
 628 857 628 857 684 898 c 128,-1,34
 740 939 740 939 814 939 c 128,-1,35
 888 939 888 939 934 893.5 c 128,-1,36
 980 848 980 848 980 778 c 0,0,1
765 661 m 0,37,38
 803 661 803 661 834 688.5 c 128,-1,39
 865 716 865 716 865 758 c 0,40,41
 865 788 865 788 845.5 807.5 c 128,-1,42
 826 827 826 827 794 827 c 0,43,44
 755 827 755 827 724.5 798 c 128,-1,45
 694 769 694 769 694 729 c 0,46,47
 694 700 694 700 713.5 680.5 c 128,-1,48
 733 661 733 661 765 661 c 0,37,38
EndSplineSet
EndChar

StartChar: uni0E05
Encoding: 3589 3589 128
Width: 1301
VWidth: 2045
Flags: W
HStem: 0 21G<175 298.709 1018 1134.54> 521 112<697.386 845.624> 803 112<711.62 857.915> 1246 20G<589.5 669.55 1073.83 1148>
VStem: 864 115<651.48 798.519> 1187 115<860.278 1104.57>
DStem2: 175 0 287.865 0 0.173648 0.984808<19.6222 100.297 314.073 1119.37> 642 1266 610 1142 0.810187 -0.586172<27.1508 257.031> 850 1115 827 985 0.864475 0.502676<0 245.479> 1018 0 1131 0 0.173648 0.984808<19.6222 995.826>
LayerCount: 3
Fore
SplineSet
979 753 m 0
 979 622 860 521 744 521 c 0
 650 521 620 581 605 592 c 9
 288 0 l 1
 175 0 l 9
 341 939 l 2
 376 1135 537 1238 642 1266 c 9
 850 1115 l 1
 1108 1266 l 17
 1188 1242 1302 1157 1302 1001 c 0
 1302 981 1301 961 1297 939 c 2
 1131 0 l 1
 1018 0 l 1
 1184 939 l 2
 1187 954 1187 969 1187 982 c 0
 1187 1076 1128 1125 1097 1142 c 9
 827 985 l 1
 610 1142 l 17
 563 1121 475 1060 454 939 c 2
 339 290 l 17
 606 791 l 18
 628 831 702 915 813 915 c 0
 909 915 979 846 979 753 c 0
764 633 m 0
 817 633 864 679 864 733 c 0
 864 774 834 803 794 803 c 0
 741 803 693 757 693 703 c 0
 693 662 724 633 764 633 c 0
EndSplineSet
Validated: 1
Layer: 2
SplineSet
979 753 m 0,0,1
 979 657 979 657 906.5 589 c 128,-1,2
 834 521 834 521 744 521 c 0,3,4
 712 521 712 521 685 531 c 128,-1,5
 658 541 658 541 645 552 c 128,-1,6
 632 563 632 563 619.5 576.5 c 128,-1,7
 607 590 607 590 605 592 c 2,8,-1
 288 0 l 1,9,-1
 175 0 l 1,10,-1
 341 939 l 2,11,12
 353 1009 353 1009 387 1068 c 128,-1,13
 421 1127 421 1127 466 1166 c 128,-1,14
 511 1205 511 1205 555 1230 c 128,-1,15
 599 1255 599 1255 642 1266 c 1,16,-1
 850 1115 l 1,17,-1
 1108 1266 l 1,18,19
 1181 1244 1181 1244 1241.5 1175.5 c 128,-1,20
 1302 1107 1302 1107 1302 1001 c 0,21,22
 1302 966 1302 966 1297 939 c 2,23,-1
 1131 0 l 1,24,-1
 1018 0 l 1,25,-1
 1184 939 l 2,26,27
 1187 954 1187 954 1187 982 c 0,28,29
 1187 1044 1187 1044 1158.5 1084 c 128,-1,30
 1130 1124 1130 1124 1097 1142 c 1,31,-1
 827 985 l 1,32,-1
 610 1142 l 1,33,34
 561 1120 561 1120 514.5 1069.5 c 128,-1,35
 468 1019 468 1019 454 939 c 2,36,-1
 339 290 l 1,37,-1
 606 791 l 2,38,39
 629 833 629 833 684.5 874 c 128,-1,40
 740 915 740 915 813 915 c 0,41,42
 885 915 885 915 932 869 c 128,-1,43
 979 823 979 823 979 753 c 0,0,1
764 633 m 0,44,45
 804 633 804 633 834 663 c 128,-1,46
 864 693 864 693 864 733 c 0,47,48
 864 764 864 764 844 783.5 c 128,-1,49
 824 803 824 803 794 803 c 0,50,51
 754 803 754 803 723.5 773 c 128,-1,52
 693 743 693 743 693 703 c 0,53,54
 693 673 693 673 713.5 653 c 128,-1,55
 734 633 734 633 764 633 c 0,44,45
EndSplineSet
EndChar

StartChar: uni0E06
Encoding: 3590 3590 129
Width: 1519
VWidth: 2045
Flags: W
HStem: -12 112<447.399 595.9> 268 112<461.266 611.837> 645 113<440.803 589.174> 926 110<453.599 601.307> 1246 8G<534.5 641.157 846.096 919 1452.48 1569>
VStem: 291 144<765.129 976.703> 328 115<104.964 248.187> 607 114<776.186 920.523> 913 115<854.787 1132.75>
DStem2: 580.23 -12 692.988 -12 0.173648 0.984808<378.754 727.919> 751 317 731 206 0.92562 -0.378455<23.4961 544.096> 1233.14 -12 1345.88 -12 0.173648 0.984808<125.913 1285.47>
LayerCount: 3
Fore
SplineSet
508 758 m 0xfd80
 560 758 607 801 607 857 c 0
 607 895 581 926 537 926 c 0
 481 926 435 879 435 826 c 0
 435 785 467 758 508 758 c 0xfd80
328 150 m 0xfb80
 328 280 447 380 564 380 c 0
 595 380 622 373 646 361 c 9
 672 510 l 2
 722 794 913 780 913 1012 c 0
 913 1096 876 1131 862 1136 c 1
 709 1051 l 1
 576 1142 l 17
 556 1138 462 1088 421 988 c 1
 476 1020 521 1036 557 1036 c 0
 653 1036 721 966 721 874 c 0
 721 743 602 645 488 645 c 0
 404 645 291 688 291 854 c 0xfd80
 291 1090 457 1228 612 1266 c 1
 733 1183 l 1
 882 1266 l 1
 956 1237 1028 1147 1028 1022 c 0
 1028 774 824 734 785 510 c 2
 751 317 l 25
 1255 112 l 9
 1456 1254 l 1
 1569 1254 l 1
 1348 0 l 1
 1235 0 l 1
 731 206 l 17
 697 15 550 -12 496 -12 c 0
 396 -12 328 58 328 150 c 0xfb80
515 100 m 0
 567 100 616 145 616 200 c 0
 616 241 584 268 544 268 c 0
 493 268 443 226 443 170 c 0xfb80
 443 129 475 100 515 100 c 0
EndSplineSet
Validated: 1
Layer: 2
SplineSet
508 758 m 0,0,1
 548 758 548 758 577.5 787 c 128,-1,2
 607 816 607 816 607 857 c 0,3,4
 607 886 607 886 588 906 c 128,-1,5
 569 926 569 926 537 926 c 0,6,7
 495 926 495 926 465 896 c 128,-1,8
 435 866 435 866 435 826 c 0,9,10
 435 796 435 796 456 777 c 128,-1,11
 477 758 477 758 508 758 c 0,0,1
328 150 m 0,12,13
 328 245 328 245 400.5 312.5 c 128,-1,14
 473 380 473 380 564 380 c 0,15,16
 608 380 608 380 646 361 c 1,17,-1
 672 510 l 2,18,19
 684 576 684 576 707.5 629.5 c 128,-1,20
 731 683 731 683 757 715 c 128,-1,21
 783 747 783 747 811 780.5 c 128,-1,22
 839 814 839 814 861.5 842 c 128,-1,23
 884 870 884 870 898.5 914 c 128,-1,24
 913 958 913 958 913 1012 c 0,25,26
 913 1067 913 1067 895.5 1098.5 c 128,-1,27
 878 1130 878 1130 862 1136 c 1,28,-1
 709 1051 l 1,29,-1
 576 1142 l 1,30,31
 550 1137 550 1137 499 1095 c 128,-1,32
 448 1053 448 1053 421 988 c 1,33,34
 504 1036 504 1036 557 1036 c 0,35,36
 628 1036 628 1036 674.5 990 c 128,-1,37
 721 944 721 944 721 874 c 0,38,39
 721 779 721 779 649 712 c 128,-1,40
 577 645 577 645 488 645 c 0,41,42
 453 645 453 645 421 655 c 128,-1,43
 389 665 389 665 358.5 687 c 128,-1,44
 328 709 328 709 309.5 752 c 128,-1,45
 291 795 291 795 291 854 c 0,46,47
 291 939 291 939 319 1012 c 128,-1,48
 347 1085 347 1085 394 1135 c 128,-1,49
 441 1185 441 1185 496.5 1218 c 128,-1,50
 552 1251 552 1251 612 1266 c 1,51,-1
 733 1183 l 1,52,-1
 882 1266 l 1,53,54
 942 1243 942 1243 985 1177 c 128,-1,55
 1028 1111 1028 1111 1028 1022 c 0,56,57
 1028 953 1028 953 1007 896 c 128,-1,58
 986 839 986 839 953.5 797.5 c 128,-1,59
 921 756 921 756 887.5 716.5 c 128,-1,60
 854 677 854 677 825 624 c 128,-1,61
 796 571 796 571 785 510 c 2,62,-1
 751 317 l 1,63,-1
 1255 112 l 1,64,-1
 1456 1254 l 1,65,-1
 1569 1254 l 1,66,-1
 1348 0 l 1,67,-1
 1235 0 l 1,68,-1
 731 206 l 1,69,70
 721 152 721 152 698 110.5 c 128,-1,71
 675 69 675 69 649 46.5 c 128,-1,72
 623 24 623 24 592 10 c 128,-1,73
 561 -4 561 -4 538.5 -8 c 128,-1,74
 516 -12 516 -12 496 -12 c 0,75,76
 422 -12 422 -12 375 34 c 128,-1,77
 328 80 328 80 328 150 c 0,12,13
515 100 m 0,78,79
 555 100 555 100 585.5 129.5 c 128,-1,80
 616 159 616 159 616 200 c 0,81,82
 616 230 616 230 595.5 249 c 128,-1,83
 575 268 575 268 544 268 c 0,84,85
 505 268 505 268 474 239.5 c 128,-1,86
 443 211 443 211 443 170 c 0,87,88
 443 140 443 140 464 120 c 128,-1,89
 485 100 485 100 515 100 c 0,78,79
EndSplineSet
EndChar

StartChar: uni0E07
Encoding: 3591 3591 130
Width: 977
VWidth: 2045
Flags: W
HStem: 0 21G<674.128 806.517> 873 112<714.502 845.897> 1154 112<726.998 875.655>
VStem: 593 115<990.843 1133.73> 880 115<1011.2 1148.53>
DStem2: 290 704 194 625 0.621633 -0.783308<2.20454 692.179> 689.788 0 803 0 0.173648 0.984808<162.468 904.763>
LayerCount: 3
Fore
SplineSet
593 1034 m 0
 593 1167 712 1266 829 1266 c 0
 924 1266 995 1200 995 1105 c 0
 995 1093 993 1081 991 1069 c 2
 803 0 l 1
 690 0 l 9
 194 625 l 1
 290 704 l 1
 718 160 l 17
 847 891 l 1
 819 879 790 873 759 873 c 0
 664 873 593 939 593 1034 c 0
810 1154 m 0
 758 1154 708 1110 708 1056 c 0
 708 1017 737 985 781 985 c 0
 832 985 880 1030 880 1085 c 0
 880 1123 853 1154 810 1154 c 0
EndSplineSet
Validated: 1
Layer: 2
SplineSet
593 1034 m 0,0,1
 593 1131 593 1131 665.5 1198.5 c 128,-1,2
 738 1266 738 1266 829 1266 c 0,3,4
 901 1266 901 1266 948 1221 c 128,-1,5
 995 1176 995 1176 995 1105 c 0,6,7
 995 1093 995 1093 991 1069 c 2,8,-1
 803 0 l 1,9,-1
 690 0 l 1,10,-1
 194 625 l 1,11,-1
 290 704 l 1,12,-1
 718 160 l 1,13,-1
 847 891 l 1,14,15
 805 873 805 873 759 873 c 0,16,17
 687 873 687 873 640 918 c 128,-1,18
 593 963 593 963 593 1034 c 0,0,1
810 1154 m 0,19,20
 770 1154 770 1154 739 1125 c 128,-1,21
 708 1096 708 1096 708 1056 c 0,22,23
 708 1026 708 1026 728.5 1005.5 c 128,-1,24
 749 985 749 985 781 985 c 0,25,26
 820 985 820 985 850 1014.5 c 128,-1,27
 880 1044 880 1044 880 1085 c 0,28,29
 880 1114 880 1114 860.5 1134 c 128,-1,30
 841 1154 841 1154 810 1154 c 0,19,20
EndSplineSet
EndChar

StartChar: uni0E08
Encoding: 3592 3592 131
Width: 1202
VWidth: 2045
Flags: W
HStem: 0 21G<800.502 921.639> 522 112<613.844 763.56> 801 112<625.985 776.759> 1154 112<588.753 942.778>
VStem: 211 113<776 893.58> 495 114<638.778 781.891> 801 113<281 562> 1092 115<654.484 1005.9>
DStem2: 909 281 914 0 0.356813 0.934176<0 587.076>
LayerCount: 3
Fore
SplineSet
495 684 m 0
 495 816 617 913 732 913 c 0
 833 913 893 837 896 755 c 2
 909 281 l 25
 1064 686 l 2
 1077 720 1092 790 1092 842 c 0
 1092 1020 959 1154 771 1154 c 256
 561 1154 361 985 324 776 c 9
 211 776 l 17
 256 1032 507 1266 791 1266 c 256
 1044 1266 1207 1093 1207 865 c 0
 1207 791 1191 723 1168 665 c 10
 914 0 l 1
 801 0 l 1
 787 562 l 17
 748 536 707 522 662 522 c 0
 564 522 495 592 495 684 c 0
680 634 m 0
 732 634 781 677 781 733 c 0
 781 771 754 801 711 801 c 0
 658 801 609 758 609 703 c 0
 609 665 637 634 680 634 c 0
EndSplineSet
Validated: 1
Layer: 2
SplineSet
495 684 m 0,0,1
 495 780 495 780 568.5 846.5 c 128,-1,2
 642 913 642 913 732 913 c 0,3,4
 805 913 805 913 849.5 866.5 c 128,-1,5
 894 820 894 820 896 755 c 2,6,-1
 909 281 l 1,7,-1
 1064 686 l 2,8,9
 1092 759 1092 759 1092 842 c 0,10,11
 1092 976 1092 976 1001.5 1065 c 128,-1,12
 911 1154 911 1154 771 1154 c 0,13,14
 613 1154 613 1154 482.5 1043.5 c 128,-1,15
 352 933 352 933 324 776 c 1,16,-1
 211 776 l 1,17,18
 228 871 228 871 281 960.5 c 128,-1,19
 334 1050 334 1050 410.5 1117.5 c 128,-1,20
 487 1185 487 1185 587 1225.5 c 128,-1,21
 687 1266 687 1266 791 1266 c 0,22,23
 978 1266 978 1266 1092.5 1152.5 c 128,-1,24
 1207 1039 1207 1039 1207 865 c 0,25,26
 1207 763 1207 763 1168 665 c 2,27,-1
 914 0 l 1,28,-1
 801 0 l 1,29,-1
 787 562 l 1,30,31
 727 522 727 522 662 522 c 0,32,33
 589 522 589 522 542 568 c 128,-1,34
 495 614 495 614 495 684 c 0,0,1
680 634 m 0,35,36
 720 634 720 634 750.5 663 c 128,-1,37
 781 692 781 692 781 733 c 0,38,39
 781 762 781 762 762 781.5 c 128,-1,40
 743 801 743 801 711 801 c 0,41,42
 671 801 671 801 640 772.5 c 128,-1,43
 609 744 609 744 609 703 c 0,44,45
 609 674 609 674 628.5 654 c 128,-1,46
 648 634 648 634 680 634 c 0,35,36
EndSplineSet
EndChar

StartChar: uni0E09
Encoding: 3593 3593 132
Width: 1293
VWidth: 2045
Flags: W
HStem: -12 112<996.579 1142.35> 268 104<1008.39 1054> 396 112<396.42 528.693> 674 112<408.991 557.98> 1154 112<622.948 980.914>
VStem: 276 115<514.386 654.431> 562 115<441.595 668.793> 876 115<105.365 171.621> 1131 114<561.375 1006.92> 1162 115<118.682 262.537>
DStem2: 454.884 -12 567.491 -12 0.173648 0.984808<160.698 432.572> 592 127 570 0 0.873279 0.48722<0 270.81> 986.29 -12 1099.29 -12 0.173648 0.984808<396.504 865.184>
LayerCount: 3
Fore
SplineSet
276 557 m 0xff40
 276 687 395 786 511 786 c 0
 618 786 677 710 677 624 c 0
 677 613 676 602 674 591 c 2
 592 127 l 1
 1015 363 l 2
 1027 369 1040 372 1054 372 c 9
 1125 776 l 2
 1129 799 1131 821 1131 842 c 0
 1131 1021 996 1154 808 1154 c 264
 619 1154 454 1019 392 876 c 9
 290 908 l 17
 371 1092 583 1266 828 1266 c 272
 1085 1266 1245 1081 1245 859 c 0xff80
 1245 832 1243 804 1238 776 c 2
 1167 372 l 17
 1193 364 1277 325 1277 222 c 0
 1277 89 1162 -12 1044 -12 c 0
 939 -12 876 64 876 149 c 0
 876 157 876 164 877 172 c 1
 570 0 l 1
 457 0 l 1
 530 414 l 17
 503 402 473 396 442 396 c 0
 343 396 276 466 276 557 c 0xff40
464 508 m 0
 515 508 562 550 562 605 c 0
 562 644 536 674 493 674 c 0
 440 674 391 631 391 575 c 0
 391 534 423 508 464 508 c 0
1062 100 m 0
 1115 100 1162 145 1162 199 c 0xff40
 1162 238 1134 268 1091 268 c 0
 1039 268 991 225 991 169 c 0
 991 128 1022 100 1062 100 c 0
EndSplineSet
Validated: 1
Layer: 2
SplineSet
276 557 m 0,0,1
 276 652 276 652 348.5 719 c 128,-1,2
 421 786 421 786 511 786 c 0,3,4
 588 786 588 786 632.5 739 c 128,-1,5
 677 692 677 692 677 624 c 0,6,7
 677 607.5 677 607.5 674 591 c 2,8,-1
 592 127 l 1,9,-1
 1015 363 l 2,10,11
 1033 372 1033 372 1054 372 c 1,12,-1
 1125 776 l 2,13,14
 1131 810.5 1131 810.5 1131 842 c 0,15,16
 1131 977 1131 977 1040 1065.5 c 128,-1,17
 949 1154 949 1154 808 1154 c 0,18,19
 672 1154 672 1154 556.5 1072 c 128,-1,20
 441 990 441 990 392 876 c 1,21,-1
 290 908 l 1,22,23
 355 1055 355 1055 504 1160.5 c 128,-1,24
 653 1266 653 1266 828 1266 c 0,25,26
 953 1266 953 1266 1049 1210.5 c 128,-1,27
 1145 1155 1145 1155 1195 1063 c 128,-1,28
 1245 971 1245 971 1245 859 c 0,29,30
 1245 815 1245 815 1238 776 c 2,31,-1
 1167 372 l 1,32,33
 1180 368 1180 368 1195.5 359 c 128,-1,34
 1211 350 1211 350 1231 333 c 128,-1,35
 1251 316 1251 316 1264 287 c 128,-1,36
 1277 258 1277 258 1277 222 c 0,37,38
 1277 125 1277 125 1206 56.5 c 128,-1,39
 1135 -12 1135 -12 1044 -12 c 0,40,41
 968 -12 968 -12 922 35 c 128,-1,42
 876 82 876 82 876 149 c 0,43,44
 876 164 876 164 877 172 c 1,45,-1
 570 0 l 1,46,-1
 457 0 l 1,47,-1
 530 414 l 1,48,49
 490 396 490 396 442 396 c 0,50,51
 369 396 369 396 322.5 442 c 128,-1,52
 276 488 276 488 276 557 c 0,0,1
464 508 m 0,53,54
 503 508 503 508 532.5 536.5 c 128,-1,55
 562 565 562 565 562 605 c 0,56,57
 562 635 562 635 543.5 654.5 c 128,-1,58
 525 674 525 674 493 674 c 0,59,60
 452 674 452 674 421.5 645 c 128,-1,61
 391 616 391 616 391 575 c 0,62,63
 391 545 391 545 412 526.5 c 128,-1,64
 433 508 433 508 464 508 c 0,53,54
1062 100 m 0,65,66
 1102 100 1102 100 1132 129.5 c 128,-1,67
 1162 159 1162 159 1162 199 c 0,68,69
 1162 229 1162 229 1142.5 248.5 c 128,-1,70
 1123 268 1123 268 1091 268 c 0,71,72
 1051 268 1051 268 1021 239 c 128,-1,73
 991 210 991 210 991 169 c 0,74,75
 991 139 991 139 1011.5 119.5 c 128,-1,76
 1032 100 1032 100 1062 100 c 0,65,66
EndSplineSet
EndChar

StartChar: uni0E0A
Encoding: 3594 3594 133
Width: 1192
VWidth: 2045
Flags: W
HStem: 0 112<368 480 593 932> 761 112<388.356 535.269> 1154 112<553.586 730.844>
VStem: 268 115<877.376 1020.22> 553 115<592.051 672.723 893.447 1037.46> 782 115<865.199 1105.72> 1061 115<606.016 935.175> 1280 113<1314.46 1447>
DStem2: 460.251 0 573.251 0 0.173648 0.984808<133.35 750.979> 912.251 0 1025 0 0.173648 0.984808<113.728 868.548>
LayerCount: 3
Fore
SplineSet
668 991 m 0
 668 862 552 761 434 761 c 0
 333 761 268 832 268 922 c 0
 268 1114 462 1266 635 1266 c 0
 792 1266 897 1154 897 1011 c 0
 897 766 705 752 679 601 c 2
 593 112 l 1
 932 112 l 1
 1060 837 l 2
 1061 844 1061 850 1061 856 c 0
 1061 907 1024 949 966 949 c 1
 986 1060 l 1
 1122 1132 1247 1268 1280 1447 c 9
 1393 1447 l 17
 1348 1190 1157 1047 1113 1018 c 1
 1128 1003 1176 960 1176 877 c 0
 1176 865 1176 851 1173 837 c 2
 1025 0 l 1
 348 0 l 1
 368 112 l 1
 480 112 l 1
 566 601 l 2
 604 818 782 812 782 993 c 0
 782 1087 711 1154 615 1154 c 0
 594 1154 574 1151 553 1145 c 1
 603 1133 668 1080 668 991 c 0
453 873 m 0
 499 873 553 913 553 972 c 0
 553 1010 527 1042 483 1042 c 0
 431 1042 383 997 383 943 c 0
 383 904 410 873 453 873 c 0
EndSplineSet
Validated: 1
Layer: 2
SplineSet
668 991 m 0,0,1
 668 896 668 896 596.5 828.5 c 128,-1,2
 525 761 525 761 434 761 c 0,3,4
 360 761 360 761 314 807 c 128,-1,5
 268 853 268 853 268 922 c 0,6,7
 268 1014 268 1014 324 1095 c 128,-1,8
 380 1176 380 1176 464 1221 c 128,-1,9
 548 1266 548 1266 635 1266 c 0,10,11
 751 1266 751 1266 824 1193 c 128,-1,12
 897 1120 897 1120 897 1011 c 0,13,14
 897 943 897 943 877 890 c 128,-1,15
 857 837 857 837 827.5 803.5 c 128,-1,16
 798 770 798 770 767.5 741 c 128,-1,17
 737 712 737 712 711.5 677 c 128,-1,18
 686 642 686 642 679 601 c 2,19,-1
 593 112 l 1,20,-1
 932 112 l 1,21,-1
 1060 837 l 2,22,23
 1061 844 1061 844 1061 856 c 0,24,25
 1061 895 1061 895 1034.5 922 c 128,-1,26
 1008 949 1008 949 966 949 c 1,27,-1
 986 1060 l 1,28,29
 1095 1118 1095 1118 1175.5 1218.5 c 128,-1,30
 1256 1319 1256 1319 1280 1447 c 1,31,-1
 1393 1447 l 1,32,33
 1377 1358 1377 1358 1338 1278 c 128,-1,34
 1299 1198 1299 1198 1251 1145 c 128,-1,35
 1203 1092 1203 1092 1171 1063.5 c 128,-1,36
 1139 1035 1139 1035 1113 1018 c 1,37,38
 1176 955 1176 955 1176 877 c 0,39,40
 1176 851 1176 851 1173 837 c 2,41,-1
 1025 0 l 1,42,-1
 348 0 l 1,43,-1
 368 112 l 1,44,-1
 480 112 l 1,45,-1
 566 601 l 2,46,47
 576 660 576 660 602.5 706.5 c 128,-1,48
 629 753 629 753 658.5 781.5 c 128,-1,49
 688 810 688 810 716.5 838 c 128,-1,50
 745 866 745 866 763.5 904.5 c 128,-1,51
 782 943 782 943 782 993 c 0,52,53
 782 1063 782 1063 734.5 1108.5 c 128,-1,54
 687 1154 687 1154 615 1154 c 0,55,56
 584 1154 584 1154 553 1145 c 1,57,58
 596 1135 596 1135 632 1093.5 c 128,-1,59
 668 1052 668 1052 668 991 c 0,0,1
453 873 m 0,60,61
 490 873 490 873 521.5 901.5 c 128,-1,62
 553 930 553 930 553 972 c 0,63,64
 553 1002 553 1002 534 1022 c 128,-1,65
 515 1042 515 1042 483 1042 c 0,66,67
 444 1042 444 1042 413.5 1012.5 c 128,-1,68
 383 983 383 983 383 943 c 0,69,70
 383 913 383 913 402 893 c 128,-1,71
 421 873 421 873 453 873 c 0,60,61
EndSplineSet
EndChar

StartChar: uni0E0B
Encoding: 3595 3595 134
Width: 1192
VWidth: 2045
Flags: W
HStem: 0 112<383 496 609 947> 644 112<333.842 483.187> 924 112<348.148 495.183> 1246 20G<436.5 535.916 739.337 802.5>
VStem: 189 141<761.837 977.406> 500 115<773.677 917.852> 818 115<858.91 1116.1> 1076 115<606.016 935.628> 1295 113<1314.46 1447>
DStem2: 476.251 0 589.251 0 0.173648 0.984808<133.35 725.529> 927.251 0 1040 0 0.173648 0.984808<113.728 868.548>
LayerCount: 3
Fore
SplineSet
615 875 m 0
 615 745 499 644 382 644 c 0
 261 644 189 753 189 879 c 0
 189 1094 366 1233 507 1266 c 1
 627 1183 l 1
 775 1266 l 1
 830 1240 933 1164 933 1018 c 0
 933 752 720 742 688 560 c 2
 609 112 l 1
 947 112 l 1
 1075 837 l 2
 1076 844 1076 850 1076 856 c 0
 1076 907 1039 949 981 949 c 1
 1001 1060 l 1
 1137 1132 1263 1268 1295 1447 c 9
 1408 1447 l 17
 1363 1190 1172 1047 1128 1018 c 1
 1170 975 1191 930 1191 877 c 0
 1191 864 1190 851 1188 837 c 2
 1040 0 l 1
 363 0 l 1
 383 112 l 1
 496 112 l 1
 575 560 l 2
 619 804 818 788 818 998 c 0
 818 1078 773 1120 755 1136 c 1
 603 1051 l 1
 469 1142 l 17
 413 1118 352 1063 324 997 c 1
 364 1023 406 1036 451 1036 c 0
 549 1036 615 967 615 875 c 0
400 756 m 0
 452 756 500 798 500 854 c 0
 500 895 470 924 430 924 c 0
 377 924 330 878 330 824 c 0
 330 785 357 756 400 756 c 0
EndSplineSet
Validated: 1
Layer: 2
SplineSet
615 875 m 0,0,1
 615 780 615 780 543.5 712 c 128,-1,2
 472 644 472 644 382 644 c 0,3,4
 294 644 294 644 241.5 712.5 c 128,-1,5
 189 781 189 781 189 879 c 0,6,7
 189 956 189 956 218.5 1025 c 128,-1,8
 248 1094 248 1094 295.5 1141.5 c 128,-1,9
 343 1189 343 1189 397.5 1221 c 128,-1,10
 452 1253 452 1253 507 1266 c 1,11,-1
 627 1183 l 1,12,-1
 775 1266 l 1,13,14
 799 1254 799 1254 823.5 1235.5 c 128,-1,15
 848 1217 848 1217 874 1187.5 c 128,-1,16
 900 1158 900 1158 916.5 1113.5 c 128,-1,17
 933 1069 933 1069 933 1018 c 0,18,19
 933 944 933 944 911 887 c 128,-1,20
 889 830 889 830 856 793 c 128,-1,21
 823 756 823 756 788.5 724 c 128,-1,22
 754 692 754 692 725.5 650.5 c 128,-1,23
 697 609 697 609 688 560 c 2,24,-1
 609 112 l 1,25,-1
 947 112 l 1,26,-1
 1075 837 l 2,27,28
 1076 844 1076 844 1076 856 c 0,29,30
 1076 895 1076 895 1049.5 922 c 128,-1,31
 1023 949 1023 949 981 949 c 1,32,-1
 1001 1060 l 1,33,34
 1110 1118 1110 1118 1191 1218.5 c 128,-1,35
 1272 1319 1272 1319 1295 1447 c 1,36,-1
 1408 1447 l 1,37,38
 1392 1358 1392 1358 1353 1278 c 128,-1,39
 1314 1198 1314 1198 1266 1145 c 128,-1,40
 1218 1092 1218 1092 1186 1063.5 c 128,-1,41
 1154 1035 1154 1035 1128 1018 c 1,42,43
 1191 954 1191 954 1191 877 c 0,44,45
 1191 858 1191 858 1188 837 c 2,46,-1
 1040 0 l 1,47,-1
 363 0 l 1,48,-1
 383 112 l 1,49,-1
 496 112 l 1,50,-1
 575 560 l 2,51,52
 587 627 587 627 617 678 c 128,-1,53
 647 729 647 729 680 760.5 c 128,-1,54
 713 792 713 792 745 822.5 c 128,-1,55
 777 853 777 853 797.5 896.5 c 128,-1,56
 818 940 818 940 818 998 c 0,57,58
 818 1080 818 1080 755 1136 c 1,59,-1
 603 1051 l 1,60,-1
 469 1142 l 1,61,62
 425 1123 425 1123 384.5 1084 c 128,-1,63
 344 1045 344 1045 324 997 c 1,64,65
 384 1036 384 1036 451 1036 c 0,66,67
 524 1036 524 1036 569.5 990.5 c 128,-1,68
 615 945 615 945 615 875 c 0,0,1
400 756 m 0,69,70
 440 756 440 756 470 784.5 c 128,-1,71
 500 813 500 813 500 854 c 0,72,73
 500 885 500 885 480 904.5 c 128,-1,74
 460 924 460 924 430 924 c 0,75,76
 390 924 390 924 360 894 c 128,-1,77
 330 864 330 864 330 824 c 0,78,79
 330 794 330 794 349 775 c 128,-1,80
 368 756 368 756 400 756 c 0,69,70
EndSplineSet
EndChar

StartChar: uni0E0C
Encoding: 3596 3596 135
Width: 1863
VWidth: 2045
Flags: W
HStem: -12 112<398.478 549.964 910.705 1058.89> 267 112<427.782 561.794 923.979 1055.75> 776 112<500 613> 1154 112<619.409 975.826>
VStem: 279 115<105.801 248.677> 568 115<120.756 260.329> 790 115<104.645 247.61> 1128 114<701.959 1001.91>
DStem2: 247.44 -12 361.23 -12 0.173648 0.984808<398.514 800.263> 983.232 -12 1095.46 -12 0.173648 0.984808<392.228 865.193> 1157 337 1189 187 0.895676 -0.444706<95.3676 478.968> 1562.02 -12 1674.88 -12 0.173648 0.984808<138.098 1285.49>
LayerCount: 3
Fore
SplineSet
683 218 m 0
 683 89 566 -12 446 -12 c 0
 350 -12 279 55 279 149 c 0
 279 160 280 172 282 184 c 10
 387 776 l 9
 247 776 l 1
 296 1052 559 1266 827 1266 c 256
 1070 1266 1242 1090 1242 860 c 0
 1242 833 1240 805 1235 776 c 2
 1157 337 l 17
 1586 124 l 25
 1785 1254 l 9
 1898 1254 l 17
 1677 0 l 17
 1564 0 l 1
 1189 187 l 17
 1168 66 1062 -12 956 -12 c 0
 858 -12 790 58 790 150 c 0
 790 282 911 379 1024 379 c 0
 1035 379 1044 379 1052 378 c 9
 1122 776 l 2
 1126 798 1128 821 1128 842 c 0
 1128 1022 991 1154 807 1154 c 256
 689 1154 509 1099 396 888 c 9
 633 888 l 1
 613 776 l 1
 500 776 l 17
 427 361 l 17
 455 373 484 379 515 379 c 0
 617 379 683 308 683 218 c 0
1006 267 m 0
 960 267 905 227 905 168 c 0
 905 129 934 100 977 100 c 0
 1029 100 1077 142 1077 198 c 0
 1077 236 1049 267 1006 267 c 0
495 267 m 0
 449 267 394 227 394 168 c 0
 394 129 423 100 466 100 c 0
 512 100 568 138 568 197 c 0
 568 235 540 267 495 267 c 0
EndSplineSet
Validated: 1
Layer: 2
SplineSet
683 218 m 0,0,1
 683 123 683 123 610.5 55.5 c 128,-1,2
 538 -12 538 -12 446 -12 c 0,3,4
 374 -12 374 -12 326.5 33.5 c 128,-1,5
 279 79 279 79 279 149 c 0,6,7
 279 166 279 166 282 184 c 2,8,-1
 387 776 l 1,9,-1
 247 776 l 1,10,11
 271 911 271 911 358 1024 c 128,-1,12
 445 1137 445 1137 570 1201.5 c 128,-1,13
 695 1266 695 1266 827 1266 c 0,14,15
 1008 1266 1008 1266 1125 1150 c 128,-1,16
 1242 1034 1242 1034 1242 860 c 0,17,18
 1242 817 1242 817 1235 776 c 2,19,-1
 1157 337 l 1,20,-1
 1586 124 l 1,21,-1
 1785 1254 l 1,22,-1
 1898 1254 l 1,23,-1
 1677 0 l 1,24,-1
 1564 0 l 1,25,-1
 1189 187 l 1,26,27
 1174 99 1174 99 1106 43.5 c 128,-1,28
 1038 -12 1038 -12 956 -12 c 0,29,30
 883 -12 883 -12 836.5 34 c 128,-1,31
 790 80 790 80 790 150 c 0,32,33
 790 245 790 245 862.5 312 c 128,-1,34
 935 379 935 379 1024 379 c 0,35,36
 1044 379 1044 379 1052 378 c 1,37,-1
 1122 776 l 2,38,39
 1128 809 1128 809 1128 842 c 0,40,41
 1128 977 1128 977 1036.5 1065.5 c 128,-1,42
 945 1154 945 1154 807 1154 c 0,43,44
 758 1154 758 1154 707.5 1141.5 c 128,-1,45
 657 1129 657 1129 600.5 1101 c 128,-1,46
 544 1073 544 1073 490 1018 c 128,-1,47
 436 963 436 963 396 888 c 1,48,-1
 633 888 l 1,49,-1
 613 776 l 1,50,-1
 500 776 l 1,51,-1
 427 361 l 1,52,53
 469 379 469 379 515 379 c 0,54,55
 590 379 590 379 636.5 333 c 128,-1,56
 683 287 683 287 683 218 c 0,0,1
1006 267 m 0,57,58
 969 267 969 267 937 238.5 c 128,-1,59
 905 210 905 210 905 168 c 0,60,61
 905 138 905 138 925 119 c 128,-1,62
 945 100 945 100 977 100 c 0,63,64
 1017 100 1017 100 1047 128.5 c 128,-1,65
 1077 157 1077 157 1077 198 c 0,66,67
 1077 227 1077 227 1057.5 247 c 128,-1,68
 1038 267 1038 267 1006 267 c 0,57,58
495 267 m 0,69,70
 458 267 458 267 426 238.5 c 128,-1,71
 394 210 394 210 394 168 c 0,72,73
 394 138 394 138 414 119 c 128,-1,74
 434 100 434 100 466 100 c 0,75,76
 503 100 503 100 535.5 127.5 c 128,-1,77
 568 155 568 155 568 197 c 0,78,79
 568 226 568 226 548 246.5 c 128,-1,80
 528 267 528 267 495 267 c 0,69,70
EndSplineSet
EndChar

StartChar: uni0E0D
Encoding: 3597 3597 136
Width: 1864
VWidth: 2045
Flags: W
HStem: -548 149<971.191 1230.79> -231 112<983.71 1132.47> -12 112<400.082 549.674 1118 1585> 267 112<429.475 561.904> 776 112<501 613> 1154 112<624.605 976.114>
VStem: 280 115<104.7 248.788> 568 114<119.598 260.528> 849 116<-393.762 -250.503> 1137 115<-380.692 -235.83 619.375 986.174>
DStem2: 153.929 -548 267.719 -548 0.173648 0.984808<942.782 1344.53> 888.373 -548 1001.62 -548 0.173648 0.984808<689.847 1409.52> 1468.18 -548 1581.18 -548 0.173648 0.984808<280.176 453.896 670.258 1829.81>
LayerCount: 3
Fore
SplineSet
1252 -287 m 0
 1252 -363 1221 -406 1153 -450 c 1
 1317 -438 1512 -301 1547 -101 c 9
 1660 -101 l 17
 1617 -347 1378 -548 1129 -548 c 0
 911 -548 849 -441 849 -356 c 0
 849 -209 982 -119 1085 -119 c 0
 1182 -119 1252 -191 1252 -287 c 0
1036 -399 m 0
 1088 -399 1137 -355 1137 -301 c 0
 1137 -262 1109 -231 1065 -231 c 0
 1018 -231 965 -271 965 -331 c 0
 965 -372 997 -399 1036 -399 c 0
682 218 m 0
 682 87 565 -12 446 -12 c 0
 345 -12 280 59 280 149 c 0
 280 160 281 172 283 184 c 2
 388 776 l 1
 247 776 l 1
 295 1046 555 1266 827 1266 c 256
 1067 1266 1242 1095 1242 862 c 0
 1242 834 1240 805 1235 776 c 2
 1118 112 l 1
 1585 112 l 1
 1786 1254 l 1
 1899 1254 l 1
 1678 0 l 17
 985 0 l 1
 1122 776 l 2
 1126 798 1128 821 1128 842 c 0
 1128 1020 995 1154 807 1154 c 256
 689 1154 510 1099 397 888 c 1
 633 888 l 1
 613 776 l 1
 501 776 l 1
 428 361 l 1
 457 373 486 379 516 379 c 0
 616 379 682 309 682 218 c 0
467 100 m 0
 518 100 568 142 568 198 c 0
 568 240 535 267 496 267 c 0
 444 267 395 223 395 168 c 0
 395 127 427 100 467 100 c 0
EndSplineSet
Validated: 1
Layer: 2
SplineSet
1252 -287 m 0,0,1
 1252 -342 1252 -342 1229 -379 c 128,-1,2
 1206 -416 1206 -416 1153 -450 c 1,3,4
 1284 -440 1284 -440 1403 -342 c 128,-1,5
 1522 -244 1522 -244 1547 -101 c 1,6,-1
 1660 -101 l 1,7,8
 1628 -285 1628 -285 1472 -416.5 c 128,-1,9
 1316 -548 1316 -548 1129 -548 c 0,10,11
 1051 -548 1051 -548 994 -530.5 c 128,-1,12
 937 -513 937 -513 907 -483.5 c 128,-1,13
 877 -454 877 -454 863 -422.5 c 128,-1,14
 849 -391 849 -391 849 -356 c 0,15,16
 849 -253 849 -253 924.5 -186 c 128,-1,17
 1000 -119 1000 -119 1085 -119 c 0,18,19
 1157 -119 1157 -119 1204.5 -167 c 128,-1,20
 1252 -215 1252 -215 1252 -287 c 0,0,1
1036 -399 m 0,21,22
 1076 -399 1076 -399 1106.5 -370 c 128,-1,23
 1137 -341 1137 -341 1137 -301 c 0,24,25
 1137 -271 1137 -271 1117 -251 c 128,-1,26
 1097 -231 1097 -231 1065 -231 c 0,27,28
 1027 -231 1027 -231 996 -259.5 c 128,-1,29
 965 -288 965 -288 965 -331 c 0,30,31
 965 -361 965 -361 985.5 -380 c 128,-1,32
 1006 -399 1006 -399 1036 -399 c 0,21,22
682 218 m 0,33,34
 682 122 682 122 610 55 c 128,-1,35
 538 -12 538 -12 446 -12 c 0,36,37
 372 -12 372 -12 326 34 c 128,-1,38
 280 80 280 80 280 149 c 0,39,40
 280 166 280 166 283 184 c 2,41,-1
 388 776 l 1,42,-1
 247 776 l 1,43,44
 271 909 271 909 357 1022 c 128,-1,45
 443 1135 443 1135 568 1200.5 c 128,-1,46
 693 1266 693 1266 827 1266 c 0,47,48
 1007 1266 1007 1266 1124.5 1151.5 c 128,-1,49
 1242 1037 1242 1037 1242 862 c 0,50,51
 1242 817 1242 817 1235 776 c 2,52,-1
 1118 112 l 1,53,-1
 1585 112 l 1,54,-1
 1786 1254 l 1,55,-1
 1899 1254 l 1,56,-1
 1678 0 l 1,57,-1
 985 0 l 1,58,-1
 1122 776 l 2,59,60
 1128 809 1128 809 1128 842 c 0,61,62
 1128 976 1128 976 1037.5 1065 c 128,-1,63
 947 1154 947 1154 807 1154 c 0,64,65
 758 1154 758 1154 707.5 1141.5 c 128,-1,66
 657 1129 657 1129 601 1101 c 128,-1,67
 545 1073 545 1073 491 1018 c 128,-1,68
 437 963 437 963 397 888 c 1,69,-1
 633 888 l 1,70,-1
 613 776 l 1,71,-1
 501 776 l 1,72,-1
 428 361 l 1,73,74
 472 379 472 379 516 379 c 0,75,76
 590 379 590 379 636 333 c 128,-1,77
 682 287 682 287 682 218 c 0,33,34
467 100 m 0,78,79
 506 100 506 100 537 128.5 c 128,-1,80
 568 157 568 157 568 198 c 0,81,82
 568 229 568 229 547 248 c 128,-1,83
 526 267 526 267 496 267 c 0,84,85
 456 267 456 267 425.5 238 c 128,-1,86
 395 209 395 209 395 168 c 0,87,88
 395 138 395 138 415.5 119 c 128,-1,89
 436 100 436 100 467 100 c 0,78,79
EndSplineSet
Substitution2: "'ccmp' Pali-Sanskrit Descender Removal" uni0E0D.descless
Substitution2: "Thai Descender Removal Single Substitution" uni0E0D.descless
EndChar

StartChar: uni0E0E
Encoding: 3598 3598 137
Width: 1373
VWidth: 2045
Flags: W
HStem: -541 112<507.666 657.816> -261 112<522.007 669.816> -12 112<245.716 395.246> 267 112<258.446 407.81> 776 112<495 515 628 741> 1154 112<722.786 1074.43>
VStem: 125 115<106.297 246.879> 387 115<-424.016 -280.495> 1227 114<697.316 1003.59>
DStem2: 273.079 -597 385.289 -597 0.173648 0.984808<972.779 1394.15> 978.561 -597 1091.85 -597 0.173648 0.984808<221.363 1459.31>
AnchorPoint: "BelowBase" 1034 -625 basechar 0
LayerCount: 3
Fore
SplineSet
125 149 m 0
 125 279 243 379 360 379 c 0
 391 379 419 373 442 361 c 9
 515 776 l 9
 346 776 l 1
 394 1046 654 1266 926 1266 c 256
 1167 1266 1341 1093 1341 861 c 0
 1341 833 1339 805 1334 776 c 2
 1122 -426 l 17
 919 -597 l 17
 774 -424 l 17
 705 -483 l 2
 658 -522 608 -541 554 -541 c 0
 454 -541 387 -470 387 -379 c 0
 387 -244 509 -149 624 -149 c 0
 678 -149 722 -169 754 -207 c 2
 802 -266 l 9
 895 -187 l 1
 962 -266 l 1
 869 -344 l 25
 947 -438 l 9
 1017 -379 l 9
 1221 776 l 2
 1225 798 1227 821 1227 842 c 0
 1227 1022 1090 1154 906 1154 c 256
 790 1154 602 1097 495 888 c 9
 761 888 l 1
 741 776 l 1
 628 776 l 17
 523 184 l 2
 504 75 402 -12 292 -12 c 0
 192 -12 125 57 125 149 c 0
574 -429 m 0
 625 -429 675 -388 675 -332 c 0
 675 -295 649 -261 604 -261 c 0
 548 -261 502 -308 502 -361 c 0
 502 -402 533 -429 574 -429 c 0
312 100 m 0
 364 100 412 142 412 198 c 0
 412 239 381 267 341 267 c 0
 289 267 240 223 240 168 c 0
 240 127 272 100 312 100 c 0
EndSplineSet
Validated: 1
Layer: 2
SplineSet
125 149 m 0,0,1
 125 244 125 244 197 311.5 c 128,-1,2
 269 379 269 379 360 379 c 0,3,4
 408 379 408 379 442 361 c 1,5,-1
 515 776 l 1,6,-1
 346 776 l 1,7,8
 370 909 370 909 456 1022 c 128,-1,9
 542 1135 542 1135 667 1200.5 c 128,-1,10
 792 1266 792 1266 926 1266 c 0,11,12
 1106 1266 1106 1266 1223.5 1151 c 128,-1,13
 1341 1036 1341 1036 1341 861 c 0,14,15
 1341 817 1341 817 1334 776 c 2,16,-1
 1122 -426 l 1,17,-1
 919 -597 l 1,18,-1
 774 -424 l 1,19,-1
 705 -483 l 2,20,21
 635 -541 635 -541 554 -541 c 0,22,23
 480 -541 480 -541 433.5 -494.5 c 128,-1,24
 387 -448 387 -448 387 -379 c 0,25,26
 387 -282 387 -282 460 -215.5 c 128,-1,27
 533 -149 533 -149 624 -149 c 0,28,29
 705 -149 705 -149 754 -207 c 2,30,-1
 802 -266 l 1,31,-1
 895 -187 l 1,32,-1
 962 -266 l 1,33,-1
 869 -344 l 1,34,-1
 947 -438 l 1,35,-1
 1017 -379 l 1,36,-1
 1221 776 l 2,37,38
 1227 809 1227 809 1227 842 c 0,39,40
 1227 977 1227 977 1135.5 1065.5 c 128,-1,41
 1044 1154 1044 1154 906 1154 c 0,42,43
 858 1154 858 1154 806.5 1141 c 128,-1,44
 755 1128 755 1128 698 1100 c 128,-1,45
 641 1072 641 1072 587 1017 c 128,-1,46
 533 962 533 962 495 888 c 1,47,-1
 761 888 l 1,48,-1
 741 776 l 1,49,-1
 628 776 l 1,50,-1
 523 184 l 2,51,52
 509 102 509 102 441.5 45 c 128,-1,53
 374 -12 374 -12 292 -12 c 0,54,55
 218 -12 218 -12 171.5 33.5 c 128,-1,56
 125 79 125 79 125 149 c 0,0,1
574 -429 m 0,57,58
 614 -429 614 -429 644.5 -401 c 128,-1,59
 675 -373 675 -373 675 -332 c 0,60,61
 675 -303 675 -303 655.5 -282 c 128,-1,62
 636 -261 636 -261 604 -261 c 0,63,64
 562 -261 562 -261 532 -291 c 128,-1,65
 502 -321 502 -321 502 -361 c 0,66,67
 502 -391 502 -391 522.5 -410 c 128,-1,68
 543 -429 543 -429 574 -429 c 0,57,58
312 100 m 0,69,70
 352 100 352 100 382 128.5 c 128,-1,71
 412 157 412 157 412 198 c 0,72,73
 412 228 412 228 391.5 247.5 c 128,-1,74
 371 267 371 267 341 267 c 0,75,76
 301 267 301 267 270.5 238 c 128,-1,77
 240 209 240 209 240 168 c 0,78,79
 240 138 240 138 260.5 119 c 128,-1,80
 281 100 281 100 312 100 c 0,69,70
EndSplineSet
EndChar

